/* XPM */
static char *_4cb1c485d9e4d6dc888edc039a0cf12aorJyH3JnIgIVtfq[] = {
/* columns rows colors chars-per-pixel */
"32 32 124 2 ",
"   c #566C86",
".  c #9E0B0F",
"X  c #A30D0E",
"o  c #A80E0D",
"O  c #A6110D",
"+  c #AB120D",
"@  c #AD1D0D",
"#  c #B4160B",
"$  c #B51C0B",
"%  c #BB1A09",
"&  c #BC290A",
"*  c #C51E07",
"=  c #CB1F06",
"-  c #C21D08",
";  c #C62007",
":  c #CA2206",
">  c #CC2906",
",  c #C22308",
"<  c #C42E08",
"1  c #D42604",
"2  c #D52F05",
"3  c #D92A03",
"4  c #CE3206",
"5  c #CD3E07",
"6  c #C23409",
"7  c #C93C08",
"8  c #D53305",
"9  c #DE3403",
"0  c #D43B05",
"q  c #DB3A04",
"w  c #E42D01",
"e  c #EA3300",
"r  c #E53C02",
"t  c #E83C01",
"y  c #C4400A",
"u  c #C94408",
"i  c #CC4A08",
"p  c #D54105",
"a  c #DB4404",
"s  c #D34E06",
"d  c #DC4C05",
"f  c #D24808",
"g  c #DB5505",
"h  c #DD5C05",
"j  c #D5580C",
"k  c #E24202",
"l  c #EC4300",
"z  c #E24D05",
"x  c #ED4C00",
"c  c #F04900",
"v  c #E55003",
"b  c #EE5501",
"n  c #E35C03",
"m  c #EE5C01",
"M  c #F25700",
"N  c #F25D01",
"B  c #D66511",
"V  c #D96D11",
"C  c #E66204",
"Z  c #ED6203",
"A  c #E66B04",
"S  c #ED6B05",
"D  c #F56400",
"F  c #F46B02",
"G  c #F86D00",
"H  c #EC7303",
"J  c #EE7804",
"K  c #E3710A",
"L  c #EA7208",
"P  c #F57302",
"I  c #F97703",
"U  c #F67A05",
"Y  c #FA7B01",
"T  c #F17709",
"R  c #F47E09",
"E  c #E57512",
"W  c #EC830D",
"Q  c #EF8C0D",
"!  c #F58605",
"~  c #FC8401",
"^  c #F68903",
"/  c #FD8B02",
"(  c #F38408",
")  c #F38B0B",
"_  c #FA8D09",
"`  c #EC940F",
"'  c #FC9107",
"]  c #FE9104",
"[  c #FB9204",
"{  c #FF9802",
"}  c #FE9905",
"|  c #F7980E",
" . c #FB990B",
".. c #E99713",
"X. c #E99118",
"o. c #F19915",
"O. c #FEA60A",
"+. c #FCA10D",
"@. c #FEA50A",
"#. c #FEA90D",
"$. c #FFB30D",
"%. c #ECA015",
"&. c #ECA618",
"*. c #F7A111",
"=. c #F4A512",
"-. c #F9A213",
";. c #F7B314",
":. c #F7B717",
">. c #FFB711",
",. c #FDB714",
"<. c #FDB915",
"1. c #FFBB15",
"2. c #FEBC15",
"3. c #FFBD15",
"4. c #FEBF17",
"5. c #FFC116",
"6. c #FFC415",
"7. c #FBC218",
"8. c #FFC919",
"9. c #FFC91A",
"0. c #FDC91B",
"q. c #FCDE23",
"w. c #FFE021",
"e. c #FFE123",
/* pixels */
"                                                                ",
"                                                                ",
"                                                                ",
"                                                                ",
"                                                                ",
"                                                                ",
"                                                                ",
"                                      O . . .                   ",
"                                      3 % # X O                 ",
"                            X X . X     - * + -                 ",
"                          : # O i p X . . . . O     X X         ",
"                  . . + X e r ) Y 2 X X O X O : w w 1 + . .     ",
"                  X * w   w L 9.S X . # 1 - 6 K f   e 1 + .     ",
"                  # 1 3 e 3 7 d ; O . - w * O &.7.C     O       ",
"                  ; X O # % X X # # . O : - + ..0.I : X .       ",
"                  % X X . + + o 1 : o + X X > _ (   w %         ",
"                . X 1 - O O i y X % # = % . O   < X +           ",
"              # X . X % ; + ` ' 2 * 8 e r $ . O * X X *         ",
"                %       O # X.2.9 8 b F G H q - # ; 1 w e       ",
"                      @ i   T 5.N k % > g ] S X ; q D u         ",
"                % o , C / h & _ ~ Y , X s / 5 @ h , 4 M         ",
"                  % e D / F 9 x ] ( 3 = u ^ 0 > A s a l         ",
"                    e D / N x _ <.R   N 8 ;.F l ~ $.+.q         ",
"                      l *. .I 6.U   D N j q._ D O.2.z o .       ",
"                      d o.:.U w.' k N l | :.J Y 5.4.k # %       ",
"                    Z D 4.&.Q w.W 4 8 D { g n ~ Z ( I   *       ",
"                    -.F P ) ( >.U v & A } P D P 4 8             ",
"                    F F t q F U W 0.B s O.=.p ' P               ",
"                          a k 7 6 V ) m #.E k g 8               ",
"                        . % 9 # # - , z P # %                   ",
"                                      #                         ",
"                                                                "
};
