/* XPM */
static char *result[] = {
/* columns rows colors chars-per-pixel */
"32 32 149 2 ",
"   c #262C2F",
".  c #2F3438",
"X  c #383E42",
"o  c #42494F",
"O  c #4F585E",
"+  c #715F7C",
"@  c #9F0306",
"#  c #A30406",
"$  c #A90605",
"%  c #AC0904",
"&  c #B40D03",
"*  c #AE1305",
"=  c #B41103",
"-  c #BC1202",
";  c #B31A04",
":  c #BA2703",
">  c #BE2C03",
",  c #BD3F06",
"<  c #B83408",
"1  c #C21601",
"2  c #C41901",
"3  c #CC1C01",
"4  c #D21F00",
"5  c #C42101",
"6  c #CE2000",
"7  c #C32D03",
"8  c #C82D01",
"9  c #D42100",
"0  c #DA2400",
"q  c #DF2B00",
"w  c #CB3203",
"e  c #C63E06",
"r  c #CF3901",
"t  c #D23701",
"y  c #DC3400",
"u  c #E22900",
"i  c #E92D00",
"p  c #EB3300",
"a  c #BF4408",
"s  c #C94703",
"d  c #D64603",
"f  c #D94703",
"g  c #DA4D02",
"h  c #CF5C07",
"j  c #CB550A",
"k  c #D25104",
"l  c #D85D01",
"z  c #E24200",
"x  c #EE4600",
"c  c #ED4A00",
"v  c #EF5201",
"b  c #E15B01",
"n  c #ED5901",
"m  c #F05600",
"M  c #DE6406",
"N  c #DC6907",
"B  c #D0630C",
"V  c #D2690C",
"C  c #DD7B11",
"Z  c #EB6202",
"A  c #E86C01",
"S  c #F16200",
"D  c #F36D01",
"F  c #E97006",
"G  c #EA7D06",
"H  c #F37201",
"J  c #F67A00",
"K  c #EE8806",
"L  c #F78302",
"P  c #F48E04",
"I  c #FB8F01",
"U  c #F58B0B",
"Y  c #ED9006",
"T  c #F29603",
"R  c #FB9202",
"E  c #F59B04",
"W  c #FA9C06",
"Q  c #F59F0C",
"!  c #FA9D0C",
"~  c #E99814",
"^  c #EA9C19",
"/  c #F79C12",
"(  c #ECA10E",
")  c #FBA306",
"_  c #F6A20C",
"`  c #F6AD0A",
"'  c #FEB406",
"]  c #F3B40E",
"[  c #FDB60B",
"{  c #FBBB0E",
"}  c #E3A818",
"|  c #FBA612",
" . c #F5AC12",
".. c #F5B514",
"X. c #FAB611",
"o. c #FAB817",
"O. c #F6B61B",
"+. c #F48232",
"@. c #EABD21",
"#. c #F7A633",
"$. c #FEC30E",
"%. c #FECF0D",
"&. c #FCC414",
"*. c #FDCB15",
"=. c #FBC31C",
"-. c #FAC91B",
";. c #FED015",
":. c #FED51B",
">. c #FFDC1B",
",. c #FEE01D",
"<. c #F6C32A",
"1. c #FAD227",
"2. c #FDDB24",
"3. c #FDD72D",
"4. c #F5D934",
"5. c #FFE522",
"6. c #FDEA24",
"7. c #FDED2C",
"8. c #FFF026",
"9. c #FFF328",
"0. c #FEF92E",
"q. c #FEEF37",
"w. c #FEE639",
"e. c #FEF035",
"r. c #E2B55E",
"t. c #F3C244",
"y. c #F9C24C",
"u. c #F9DA5C",
"i. c #FEF54E",
"p. c #FFFA4E",
"a. c #FEF253",
"s. c #FEF953",
"d. c #FEF75A",
"f. c #FADC61",
"g. c #FCDB6A",
"h. c #F9E863",
"j. c #FCEE68",
"k. c #FEF665",
"l. c #FCED76",
"z. c #FDF67E",
"x. c #FCF485",
"c. c #FDFA82",
"v. c #FDF28B",
"b. c #FCE595",
"n. c #FCF7A1",
"m. c #FCF3AF",
"M. c #FDFDB2",
"N. c #FCF5C4",
"B. c #FCF9C1",
/* pixels */
". X X X X X X X X o X o X X X X X X X X X X X X X X X X X X .   ",
"o o o o o o o o o o o o o o o o o o o o o o o o o o o o o o X . ",
"o o o o o o o o o o o o o o o o o o o o o o o o o o o o o o o X ",
"o o o o o o o o o o o o o o o o o o o o o o o o o o o o o o o X ",
"o o o o o o o o o o o o o o o o o o o o o o o o o o o o o o o X ",
"o o o o o o o o o o o o o o 0 # 1 1 $ o o o o o o o o o o o o X ",
"o o o o o o o o o o o o # 1 - # & % 1 1 1 4 o o o o o o o o o X ",
"o o o o o o o o o o 0 & - # # o $ 1 & - - & # u - # o o o o o X ",
"o o o o o o o o o - - - 6 $ o o $ & 2 1 & = % 4 0 # o o o o o X ",
"o o o o o o o o 1 3 & $ % B / y % 1 4 2 # % - = # o o o o o o X ",
"o o o o o o o # 3 9 % % e u.g.f & % - 1 % 2 0 2 - o o o o o o X ",
"o o o o o o o # & 4 - & k h.<.> & & 1 2 - t A y - 4 o o o o o X ",
"o o o o o o o @ # 2 = $ * G g - # - 9 u q n f.Z 0 - o o o o o X ",
"o o o o o o o # # $ - 7 2 y 9 9 % i 0 1 q +.b.Z 6 # o o o o o X ",
"o o o o o o @ @ # ; k ( Y A ; % r W V : d g.<.b # o o o o o X X ",
"X o o o o @ o o 1 q J [ X.K B : T T ..s h 4.g o 8 L o o o X   . ",
"X X X X X @ X X i i z E v U G , &.{ a l ] k % w F J R X X X X X ",
"o o o o o o o o o o u > c  .j.@.' ` < P i.N = k { ) x o o o o o ",
"o o o o o o o o o o - o I 2.N.| $.} ;  .x.O.k M &.H o o o o o o ",
"o o o o o o o o o i 5 o R =.m.! *.( j t.n.1.~ 4.>.L o o o o o o ",
"o o o o o o o o p S _ L J =.v.w.Z : C v.d.| f.r.o $.o o o o o o ",
"o o o o o o o o o ! k.3.W  .q.s.=.V 7.c.2.:.k.^ o o o o o o o o ",
"o o o o o o o o o &.a.M.a.*.&.O.T 6...7.;.) p.6.o o o o o o o o ",
"o o o o o o o o o [ o.z.B.s.&.#.U Q v *.>.W z.0.o o o o o o o o ",
"o o o o o o o o o R S 2.y.p.5.p.l.! ..8.{ D e.,.o o o o o o o o ",
"o o o o o o o o o o o p D ! *.9.d.9.9.&.m o o o o o o o o o o o ",
"o o o o o o o o o o o i p p c [ %.;.-.c i o o o o o o o o o o o ",
"o o o o o o o o o o o o o o o X + o o o o o o o o o o o o o o o ",
"o o o o o o o o o o o o o o o X O o o o o o o o o o o o o o o o ",
"o o o o o o o o o o o o o o o X O o o o o o o o o o o o o o o o ",
"o o o o o o o o o o o o o o X X o o o o o o o o o o o o o o o o ",
"o o o o o o o o o o o o o X   . X o o o o o o o o o o o o o o o "
};
