/* XPM */
static char *result[] = {
/* columns rows colors chars-per-pixel */
"32 32 162 2 ",
"   c #9D0B0F",
".  c #9B0910",
"X  c #A40E0E",
"o  c #A7100D",
"O  c #AC120C",
"+  c #B2150B",
"@  c #B51B0B",
"#  c #BC1A09",
"$  c #B5250B",
"%  c #BE2308",
"&  c #BF2909",
"*  c #C61F07",
"=  c #C11C08",
"-  c #CB2206",
";  c #C62A07",
":  c #CA2C07",
">  c #C42708",
",  c #C32B0A",
"<  c #D22505",
"1  c #D72804",
"2  c #DC2B03",
"3  c #CB3507",
"4  c #D23005",
"5  c #DC3402",
"6  c #D53B04",
"7  c #E52E01",
"8  c #E53101",
"9  c #E93100",
"0  c #E33C02",
"q  c #DB4404",
"w  c #D34306",
"e  c #D55307",
"r  c #D15E08",
"t  c #DB5C08",
"y  c #DD5404",
"u  c #E44502",
"i  c #EE4401",
"p  c #E34801",
"a  c #EB4A00",
"s  c #E65403",
"d  c #EF5500",
"f  c #E15F05",
"g  c #EC5B01",
"h  c #F35600",
"j  c #DB610A",
"k  c #DF7F1B",
"l  c #F36200",
"z  c #F66D00",
"x  c #F96B00",
"c  c #EA7A0A",
"v  c #F47403",
"b  c #F87200",
"n  c #F6740C",
"m  c #E96E13",
"M  c #F27316",
"N  c #D76720",
"B  c #ED7C24",
"V  c #EB840C",
"C  c #FF8F00",
"Z  c #F08F0A",
"A  c #F79506",
"S  c #FC9705",
"D  c #FF9B07",
"F  c #F7950D",
"G  c #FC930B",
"H  c #FB9D0C",
"J  c #ED851D",
"K  c #F68414",
"L  c #F48B12",
"P  c #EE911C",
"I  c #FAA211",
"U  c #FDA912",
"Y  c #FCB212",
"T  c #FDBE13",
"R  c #FCB31E",
"E  c #F38E2C",
"W  c #F79220",
"Q  c #F89025",
"!  c #F79825",
"~  c #F89B20",
"^  c #F69430",
"/  c #FEB820",
"(  c #FBB425",
")  c #F3A834",
"_  c #F8A33E",
"`  c #EBB43D",
"'  c #F8B634",
"]  c #FAB63A",
"[  c #FEB838",
"{  c #F9C71B",
"}  c #FFD01B",
"|  c #FEC527",
" . c #FCCA24",
".. c #FFD020",
"X. c #FFDF26",
"o. c #F7D52F",
"O. c #EFC136",
"+. c #E9C738",
"@. c #FECB34",
"#. c #FED932",
"$. c #FCD73F",
"%. c #FDED35",
"&. c #E89F46",
"*. c #F5A640",
"=. c #FAAB45",
"-. c #F4B649",
";. c #F2BE49",
":. c #FCC340",
">. c #FDD74F",
",. c #FBC453",
"<. c #FDCD5E",
"1. c #FED354",
"2. c #FED35E",
"3. c #F9DD5E",
"4. c #FCE04F",
"5. c #FFF541",
"6. c #FFFC43",
"7. c #FFFD48",
"8. c #FEF751",
"9. c #FDCC67",
"0. c #FED164",
"q. c #FBDE65",
"w. c #FBD66F",
"e. c #FBC176",
"r. c #FED27A",
"t. c #FEED61",
"y. c #FEFE60",
"u. c #FEF06B",
"i. c #FEFA69",
"p. c #FEEA74",
"a. c #FCE679",
"s. c #FEFE77",
"d. c #FEF17A",
"f. c #FEFA78",
"g. c #FAD29E",
"h. c #FDE38C",
"j. c #FEEF8F",
"k. c #FCEB85",
"l. c #FEF585",
"z. c #FDE59D",
"x. c #FCE898",
"c. c #FCEB93",
"v. c #FDF293",
"b. c #FEFD90",
"n. c #FEFB9B",
"m. c #FCE0A0",
"M. c #FEFAA1",
"N. c #FEFDAD",
"B. c #FDF5B0",
"V. c #FDFCB2",
"C. c #FDFDBA",
"Z. c #FAD9CB",
"A. c #FBE8C2",
"S. c #FCF6C2",
"D. c #FDFAC2",
"F. c #FDF4C8",
"G. c #FDFACC",
"H. c #FCFDDD",
"J. c #FCFDE5",
"K. c #FCFCEB",
"L. c #FCFFFD",
"P. c #566C86",
/* pixels */
"P.P.P.P.P.P.P.P.P.P.P.P.P.P.P.P.P.P.P.P.P.P.P.P.P.P.P.P.P.P.P.P.",
"P.P.P.P.P.P.P.P.P.P.P.P.P.P.P.P.P.P.P.P.P.P.P.P.P.P.P.P.P.P.P.P.",
"P.P.P.P.P.P.P.P.P.P.P.P.P.P.P.P.P.P.P.P.P.P.P.P.P.P.P.P.P.P.P.P.",
"P.P.P.P.P.P.P.P.P.P.P.P.P.P.P.P.P.P.P.P.P.P.P.P.P.P.P.P.P.P.P.P.",
"P.P.P.P.P.P.P.P.P.P.P.P.P.P.P.P.P.P.P.P.P.P.P.P.P.P.P.P.P.P.P.P.",
"P.P.P.P.P.P.P.P.P.P.P.P.P.P.P.P.P.P.P.P.P.P.P.P.P.P.P.P.P.P.P.P.",
"P.P.P.P.P.P.P.P.P.P.P.P.P.P.P.P.P.P.P.P.P.P.P.P.P.P.P.P.P.P.P.P.",
"P.P.P.P.P.P.P.P.P.P.P.P.P.P.P.P.P.P.P.P.P.P.P.P.P.P.P.P.P.P.P.P.",
"P.P.P.P.P.P.P.P.P.P.P.P.P.P.P.P.P.P.P.P.P.P.P.P.P.P.P.P.P.P.P.P.",
"P.P.P.P.P.P.P.P.P.P.P.P.P.P.P.P.P.P.P.P.P.P.P.9 P.P.P.P.P.P.P.P.",
"P.P.P.P.P.P.P.P.P.P.P.P.P.P.P.O * 7 P.P.P.  P.P.P.P.P.P.P.P.P.P.",
"P.P.P.P.P.P.P.P.P.P.P.P.  X P.. # 8 P.P.X P.9 9 P.P.P.P.P.P.P.P.",
"P.P.P.P.P.P.P.P.P.P.P.P.O < # P.7 < = # * - o P.P.P.P.P.P.P.P.P.",
"P.P.P.P.P.P.P.P.P.P.P.P.P.9 P.P.7 = X o - # O O P.P.P.P.P.P.P.P.",
"P.P.P.P.P.P.P.P.P.P.8 = + = X P.x s P.< - < P.9 9 P.P.P.P.P.P.P.",
"P.P.P.P.P.P.P.P.P.P.P.7 1 2 - ; b 6 O P.8 7 P.8 P.P.P.P.P.P.P.P.",
"P.P.P.P.P.P.P.P.P.P.P.P.P.# $ w 8 # . # 2 < - 2 P.P.P.P.P.P.P.P.",
"P.P.P.P.P.P.P.P.P.P.P.P.P.u ( ^ 5 $ X # 6 O @ 6 q 3 P.P.P.P.P.P.",
"P.P.P.P.P.P.P.P.+ P.P.> y x ,.e.a % # + g q & M h u P.P.P.P.P.P.",
"P.P.P.P.P.P.P.P.P.P.P.P., 6 &.h.m 6 2 o ; s ;.t.v 7 7 P.P.P.P.P.",
"P.P.P.P.P.P.P.P.P.P.P.P.@ 4 e k j ! J % $ :.N.) % 2 P.P.P.P.P.P.",
"P.P.P.P.P.P.P.P.P.P.P.P.< & Z { G @.h.N r l.u.c % # = P.P.P.P.P.",
"P.P.P.P.P.P.P.P.P.P.9 - + # t } Y ,.V.` -.M.( d % @ 0 P.P.P.P.P.",
"P.P.P.P.P.P.P.P.P.P.P.X # : V I U i.1.B 3.K.9.l 5 P L P.P.P.P.P.",
"P.P.P.P.P.P.P.P.P.P.P.> 2 t o.k.g.' H n t.C.c.l *.D.w.v P.P.P.P.",
"P.P.P.P.P.P.P.P.P.l z g a S #.l.L.h.G / C.N.i.4.n.K.j.Q P.P.P.P.",
"P.P.P.P.P.P.P.P.P.P.M @.G D ~ a.G.x.| 5.K.K.8.n.C.s.] i P.P.P.P.",
"P.P.P.P.P.P.P.S P.K E G.>.K z.C.C._ F X.B.K.d.l.D.+.P.i P.P.P.P.",
"P.P.P.P.P.P.P.P.P.P.W A.F.=.>.b.7.{ z  .b.H.v.1.3.P.P.l P.P.P.P.",
"P.P.P.P.P.P.P.P.P.P.P.r.L.Z.<.f.n.d.@.%.y.N.0.U ..P.P.P.P.P.P.P.",
"P.P.P.P.P.P.P.P.P.P.P.[ z.G.K.J.K.K.b.6.p.2.D P.P.P.P.P.P.P.P.P.",
"P.P.P.P.P.P.P.P.P.P.P.P.P.P.P.P.P.P.P.P.P.P.P.P.P.P.P.P.P.P.P.P."
};
