/* XPM */
static char *fdedd3ace8634803e8648d8853662951B6K1WyVyUkXNRkoX[] = {
/* columns rows colors chars-per-pixel */
"32 32 165 2 ",
"   c #566C86",
".  c #9E0B0F",
"X  c #A30D0E",
"o  c #AE0F0A",
"O  c #A7110D",
"+  c #AB120C",
"@  c #AB180D",
"#  c #B4160B",
"$  c #B81609",
"%  c #B5190A",
"&  c #BB1A09",
"*  c #AF230D",
"=  c #B92309",
"-  c #BD280A",
";  c #BB310B",
":  c #BD3C0E",
">  c #C51E07",
",  c #C81E05",
"<  c #C21D08",
"1  c #C62107",
"2  c #CB2206",
"3  c #C52C07",
"4  c #D22505",
"5  c #DA2702",
"6  c #D52B04",
"7  c #DC2A02",
"8  c #C83306",
"9  c #CA330A",
"0  c #CC3C08",
"q  c #DC3303",
"w  c #E92F00",
"e  c #E53201",
"r  c #E93200",
"t  c #EB3A00",
"y  c #BF420E",
"u  c #CA4708",
"i  c #C2490F",
"p  c #D44C06",
"a  c #D34308",
"s  c #DA4D04",
"d  c #CF550B",
"f  c #CF5D0F",
"g  c #DF5807",
"h  c #D4530C",
"j  c #D35A0B",
"k  c #CC5910",
"l  c #DC5C10",
"z  c #EB4502",
"x  c #E74901",
"c  c #EE4C02",
"v  c #ED5E02",
"b  c #F05B05",
"n  c #D2620D",
"m  c #D46F16",
"M  c #DD6811",
"N  c #DB6D19",
"B  c #D77310",
"V  c #DB7812",
"C  c #E66A06",
"Z  c #EC6509",
"A  c #E96D0B",
"S  c #F36504",
"D  c #F56A03",
"F  c #F26F0C",
"G  c #EE7204",
"H  c #E2790F",
"J  c #EA7B0C",
"K  c #F47204",
"L  c #F77C05",
"P  c #ED6B19",
"I  c #EF8C09",
"U  c #F98106",
"Y  c #F1850F",
"T  c #F7890C",
"R  c #F98F0A",
"E  c #FB8D05",
"W  c #EB9B0F",
"Q  c #FA9007",
"!  c #F4940D",
"~  c #FA920A",
"^  c #F39B0C",
"/  c #FA9C0F",
"(  c #F58A18",
")  c #E69219",
"_  c #F69612",
"`  c #F79E14",
"'  c #F59E18",
"]  c #FA9B19",
"[  c #FCA30C",
"{  c #FBAB0E",
"}  c #FFB50F",
"|  c #E2A41E",
" . c #F6A314",
".. c #FAA313",
"X. c #FBAC13",
"o. c #F0AB18",
"O. c #FAAC19",
"+. c #F4AA13",
"@. c #F5B315",
"#. c #FDB314",
"$. c #FEBF14",
"%. c #F5B31A",
"&. c #FAB71B",
"*. c #F6BB19",
"=. c #FCB918",
"-. c #F58335",
";. c #EAA52A",
":. c #FBAB2C",
">. c #ECBF23",
",. c #F8BF20",
"<. c #F7A433",
"1. c #F6BB34",
"2. c #F6BC3B",
"3. c #FFCC17",
"4. c #FDC31A",
"5. c #FDCC1D",
"6. c #F7C126",
"7. c #F8C62A",
"8. c #FDD725",
"9. c #FFDC21",
"0. c #FCC433",
"q. c #F3D734",
"w. c #FBD231",
"e. c #FDDC3B",
"r. c #FFE621",
"t. c #F8E728",
"y. c #FEEB29",
"u. c #FFF22B",
"i. c #FFFE2E",
"p. c #FEE531",
"a. c #FDE832",
"s. c #FFF835",
"d. c #FFF33A",
"f. c #F3BF49",
"g. c #E3BB67",
"h. c #FCD342",
"j. c #FBCB51",
"k. c #FED553",
"l. c #FFF043",
"z. c #FFFC40",
"x. c #FFF648",
"c. c #FEEC53",
"v. c #FFF556",
"b. c #FFFC56",
"n. c #FFF85A",
"m. c #FAD867",
"M. c #FDDD71",
"N. c #FFEE60",
"B. c #FDE06E",
"V. c #FFF663",
"C. c #FFFF62",
"Z. c #FEF968",
"A. c #FDE978",
"S. c #FEF671",
"D. c #FFFF75",
"F. c #FFFD7F",
"G. c #FFE78E",
"H. c #FEF486",
"J. c #FEFD81",
"K. c #FEF78C",
"L. c #FDF299",
"P. c #FEFC9F",
"I. c #FCF2AC",
"U. c #FDFFB6",
"Y. c #FDFDC5",
/* pixels */
"                                                                ",
"                                                                ",
"                                                                ",
"                                                                ",
"                                                                ",
"                                                                ",
"                                                                ",
"                                                                ",
"                                    +   # 6                     ",
"                              2 4 O 1 1 .                       ",
"                            X $ # X + + < > & 4 +               ",
"                        7 % # X X $ + $ # < > + X 2 $           ",
"                      $ % & 2 + 9 4 + $ 1 < # $ X 4 6 O         ",
"                    < 1 + + X m ] q O $ 7 1 X + $ # +           ",
"                  X 4 4 X + u M.M.s $ + # > + < 7 < $ 1         ",
"                  . + 4 & X h n.1.; X # $ > # a A q & 2         ",
"                  . . 2 $ . @ J v # X & 4 7 5 S k.P 2 #         ",
"                  . . X < - 3 q 4 1 % e 5 1 7 -.G.P 2 +         ",
"                  . . @ h o.! C * + 0 ..V @ p B.h.p . .         ",
"                    > q K #.=.! k ; ! / %.d k 7.l   3 G         ",
"                    r r x ~ b Y H y *.*.i j @.d + 9 K U R ..    ",
"                        7 0 z :.Z.6.{ +.: I l.N o f 4./ c       ",
"                        2   E w.I.:.3.| * W F.2.h M T D         ",
"                    r r 6 K E 0.L.o.5. .n f.P.w.) q.9.T         ",
"                    r S ..L L 7.K.e.Z = B H.V.[ m.g.^ #.        ",
"            r         X.V.e.~ O.d.n.6.m t.D.e.9.C.;.            ",
"                      4.c.U.v.3.4.%.' y.,.p.7.[ x.p.            ",
"                      X.&.J.Y.v.3.<.( _ c 4.9...S.z.            ",
"                      ~ D 5.j.c.r.b.A...&.u.#.F 7.              ",
"                          t S  .7.u.b.s.s.4.v                   ",
"                          r r r c R [ =. .z r                   ",
"                                                                "
};
