/* XPM */
static char *result[] = {
/* columns rows colors chars-per-pixel */
"32 32 96 2 ",
"   c #262C2F",
".  c #2F3438",
"X  c #383E42",
"o  c #42494F",
"O  c #4F585E",
"+  c #715F7C",
"@  c #9E0306",
"#  c #A30406",
"$  c #A90605",
"%  c #A70B06",
"&  c #AC0905",
"*  c #B40D03",
"=  c #AD1505",
"-  c #B61203",
";  c #BC1302",
":  c #BA1903",
">  c #B62403",
",  c #BD2502",
"<  c #BE3102",
"1  c #C31602",
"2  c #C51B01",
"3  c #CC1C01",
"4  c #D11F00",
"5  c #C62401",
"6  c #CA2401",
"7  c #C22E03",
"8  c #CE2B01",
"9  c #D22200",
"0  c #DB2400",
"q  c #D22D00",
"w  c #DA2B00",
"e  c #C63302",
"r  c #CB3502",
"t  c #C43804",
"y  c #CC3802",
"u  c #D43401",
"i  c #D23C01",
"p  c #D93D00",
"a  c #E42A00",
"s  c #EA2C00",
"d  c #E13400",
"f  c #EA3200",
"g  c #E43C00",
"h  c #EC3C00",
"j  c #CC4302",
"k  c #DD4301",
"l  c #D34C01",
"z  c #D84F00",
"x  c #DC5200",
"c  c #DC5901",
"v  c #E34300",
"b  c #EB4600",
"n  c #E34B00",
"m  c #EC4D00",
"M  c #E15300",
"N  c #E95400",
"B  c #E45F00",
"V  c #EB5E00",
"C  c #F15600",
"Z  c #F35B00",
"A  c #EB6200",
"S  c #E26E01",
"D  c #E96E00",
"F  c #F36300",
"G  c #F56B00",
"H  c #EB7401",
"J  c #F47300",
"K  c #F47D02",
"L  c #FA7D00",
"P  c #EC8303",
"I  c #E78E08",
"U  c #ED8E0A",
"Y  c #F48302",
"T  c #F98600",
"R  c #F28802",
"E  c #FC8D00",
"W  c #EA920D",
"Q  c #ED9D0B",
"!  c #F49202",
"~  c #FA9202",
"^  c #F69D06",
"/  c #FD9C01",
"(  c #F39C08",
")  c #EB9B10",
"_  c #FCA505",
"`  c #FCAB05",
"'  c #F7AE0D",
"]  c #FDB307",
"[  c #F6B40D",
"{  c #FEB90A",
"}  c #EBA111",
"|  c #FDC612",
" . c #FED317",
".. c #FDD619",
"X. c #FDDC1C",
"o. c #FEE922",
/* pixels */
". X X X X X X X X o X o X X X X X X X X X X X X X X X X X X .   ",
"o o o o o o o o o o o o o o o o o o o o o o o o o o o o o o X . ",
"o o o o o o o o o o o o o o o o o o o o o o o o o o o o o o o X ",
"o o o o o o o o o o o o o o o o o o o o o o o o o o o o o o o X ",
"o o o o o o o o o o o o o o o o o o o o o o o o o o o o o o o X ",
"o o o o o o o o o o o o o o o o o 3 & # # # o o o o o o o o o X ",
"o o o o o o o o o o o o o o o o o o 3 3 & ; o o o o o o o o o X ",
"o o o o o o o o o o o 1 # # > , o # $ & # o o o o o o o o o o X ",
"o o o o o o o o o $ # 0 0 c J v # @ @ @ # 3 o 0 1 # @ o o o o X ",
"o o o o o o o # * 9 o o o  .o @ # & 3 ; t l 9 0 s 1 # # o o o X ",
"o o o o o o o * 0 a s f j H 9 $ # ; 0 2 = Q ^ i o o * # o o o X ",
"o o o o o o o 3 # ; 2 o = * & $ # * a 9 % I  .o o @ # o o o o X ",
"o o o o o o o ; # # # * $ # 3 4 # # $ $ 2 ^ _ o s * # o o o o X ",
"o o o o o o o o 3 1 # & < , - 1 $ ; * # ; o 7 # o o o o o o o X ",
"o o o o o o # @ * * 1 % P H 2 1 3 a w # @ o 4 # @ o o o o o X X ",
"X o o o o o $ o o o ; % ) ` d 8 N Z Z z 5 * ; ; 1 0 o o o X   . ",
"X X X X X X X X X X X X K | b d 5 n B E C - 1 q m X X X X X X X ",
"o o o o o o 4 # : j J o y ] J J ; * l E r & l q M n o o o o o o ",
"o o o o o o o * f G E G 6 F E T 5 3 j Y q : H e 5 f o o o o o o ",
"o o o o o o o o f F E C h G { o + n 6 ` N d o o ~ m o o o o o o ",
"o o o o o o o o f N _ T G { ~ o + F r X.L C / | J - @ o o o o o ",
"o o o o o o o o o B U { J X.L g G m P ..E L { { p & * o o o o o ",
"o o o o o o o o v V ' [ R o.! u b C / S B T T _ J o 9 o o o o o ",
"o o o o o o o o [ C E Q K  .G v - J ~ A G J w i o o o o o o o o ",
"o o o o o o o o K G b M L E R ( t c / ` k E D o o o o o o o o o ",
"o o o o o o o o o o o p g x l } ( x _ W p H m o o o o o o o o o ",
"o o o o o o o o o o @ , g : * 6 k V L u 8 : & o o o o o o o o o ",
"o o o o o o o o o o o o o o o X + 5 o o o o o o o o o o o o o o ",
"o o o o o o o o o o o o o o o X O o o o o o o o o o o o o o o o ",
"o o o o o o o o o o o o o o o X O o o o o o o o o o o o o o o o ",
"o o o o o o o o o o o o o o X X o o o o o o o o o o o o o o o o ",
"o o o o o o o o o o o o o X   . X o o o o o o o o o o o o o o o "
};
