/* XPM */
static char *result[] = {
/* columns rows colors chars-per-pixel */
"32 32 162 2 ",
"   c #9E0B0F",
".  c #A30D0E",
"X  c #A7150E",
"o  c #A9120D",
"O  c #AB1B0D",
"+  c #B41A0B",
"@  c #BA180A",
"#  c #B2140B",
"$  c #B1220A",
"%  c #BB2709",
"&  c #BA2C0B",
"*  c #C61F07",
"=  c #C11D08",
"-  c #C52207",
";  c #CA2207",
":  c #CD2C06",
">  c #D22405",
",  c #D02905",
"<  c #DA2A03",
"1  c #CC3006",
"2  c #C63807",
"3  c #CC3B07",
"4  c #C93D08",
"5  c #D53004",
"6  c #D73805",
"7  c #E32E01",
"8  c #E92F00",
"9  c #E13702",
"0  c #EA3200",
"q  c #E33901",
"w  c #CE4307",
"e  c #CA4409",
"r  c #D24406",
"t  c #DA4D05",
"y  c #D35306",
"u  c #DE5304",
"i  c #D45A07",
"p  c #DA5B05",
"a  c #ED4B01",
"s  c #E34D03",
"d  c #F14D00",
"f  c #E45603",
"g  c #EB5301",
"h  c #E75A03",
"j  c #ED5B02",
"k  c #F15300",
"l  c #F25B01",
"z  c #F05F1B",
"x  c #DD6606",
"c  c #EE6604",
"v  c #EF6C02",
"b  c #F56501",
"n  c #F46A01",
"m  c #F0620D",
"M  c #F47301",
"N  c #F17802",
"B  c #FA7D00",
"V  c #F4740A",
"C  c #F57A0A",
"Z  c #E57611",
"A  c #F67515",
"S  c #F68600",
"D  c #FB8300",
"F  c #F68803",
"G  c #FB8900",
"H  c #F6850C",
"J  c #F99407",
"K  c #F7940F",
"L  c #F9920D",
"P  c #F69B0E",
"I  c #FA9F0D",
"U  c #EB8918",
"Y  c #F48C18",
"T  c #EA9713",
"R  c #F19016",
"E  c #F69916",
"W  c #F79F1E",
"Q  c #FCA30E",
"!  c #FCAE0F",
"~  c #F7A011",
"^  c #FBAD17",
"/  c #F9A91A",
"(  c #FBB414",
")  c #FDB815",
"_  c #E99B24",
"`  c #F89E23",
"'  c #F78D3D",
"]  c #F9A620",
"[  c #F9A72B",
"{  c #FBB823",
"}  c #FCBA2A",
"|  c #F3A730",
" . c #FDC71B",
".. c #FFD21D",
"X. c #FDD521",
"o. c #FEDF23",
"O. c #FED62B",
"+. c #FED836",
"@. c #FFEA2D",
"#. c #FEEA33",
"$. c #DB835A",
"%. c #F58548",
"&. c #F3AF42",
"*. c #F5BE40",
"=. c #FCBD45",
"-. c #F9AD54",
";. c #FBAC5B",
":. c #FABB52",
">. c #FCD843",
",. c #FED34A",
"<. c #FBD155",
"1. c #FFDB52",
"2. c #FFD459",
"3. c #FDEE45",
"4. c #FFE049",
"5. c #FDE553",
"6. c #FDE65D",
"7. c #FCC86A",
"8. c #FCDE6C",
"9. c #F9D263",
"0. c #FECC78",
"q. c #FCDA7A",
"w. c #FDE162",
"e. c #FEE963",
"r. c #FEE46E",
"t. c #FEF763",
"y. c #FEFC6A",
"u. c #FEE976",
"i. c #FEE678",
"p. c #FEF675",
"a. c #FEF27E",
"s. c #F5B18D",
"d. c #FBDE82",
"f. c #F9C594",
"g. c #F9E18E",
"h. c #FEFB83",
"j. c #FEFE8F",
"k. c #FCEE98",
"l. c #FDF593",
"z. c #FEFE96",
"x. c #FDF79B",
"c. c #FEFD9D",
"v. c #FADFB0",
"b. c #FEFEA2",
"n. c #FDFAAA",
"m. c #FCE5B9",
"M. c #FDFDB4",
"N. c #FDFDBB",
"B. c #FBF2B2",
"V. c #F8CDC2",
"C. c #FDF4C6",
"Z. c #FDFCC1",
"A. c #FDFEC9",
"S. c #FAE1D4",
"D. c #FDFDDF",
"F. c #FCEFE5",
"G. c #FDFBE0",
"H. c #FCF6E9",
"J. c #FCFBE9",
"K. c #FCFCFC",
"L. c #FCFCF3",
"P. c #566C86",
/* pixels */
"P.P.P.P.P.P.P.P.P.P.P.P.P.P.P.P.P.P.P.P.P.P.P.P.P.P.P.P.P.P.P.P.",
"P.P.P.P.P.P.P.P.P.P.P.P.P.P.P.P.P.P.P.P.P.P.P.P.P.P.P.P.P.P.P.P.",
"P.P.P.P.P.P.P.P.P.P.P.P.P.P.P.P.P.P.P.P.P.P.P.P.P.P.P.P.P.P.P.P.",
"P.P.P.P.P.P.P.P.P.P.P.P.P.P.P.P.P.P.P.P.P.P.P.P.P.P.P.P.P.P.P.P.",
"P.P.P.P.P.P.P.P.P.P.P.P.P.P.P.P.P.P.P.P.P.P.P.P.P.P.P.P.P.P.P.P.",
"P.P.P.P.P.P.P.P.P.P.P.P.P.P.P.P.P.P.P.P.P.P.P.P.P.P.P.P.P.P.P.P.",
"P.P.P.P.P.P.P.P.P.P.P.P.P.P.P.P.P.P.P.P.P.P.P.P.P.P.P.P.P.P.P.P.",
"P.P.P.P.P.P.P.P.P.P.P.P.P.P.P.P.P.P.P.P.P.P.P.P.P.P.P.P.P.P.P.P.",
"P.P.P.P.P.P.P.P.P.P.P.P.P.P.P.P.P.P.P.P.P.P.P.P.P.P.P.P.P.P.P.P.",
"P.P.P.P.P.P.P.P.P.P.P.P.P.P.P.P.P.P.P.P.P.P.P.P.P.P.P.P.P.P.P.P.",
"P.P.P.P.P.P.P.P.P.P.P.P.P.P.P.P.P.P.P.P.P.P.P.P.P.P.P.P.P.P.P.P.",
"P.P.P.P.P.P.P.P.P.P.P.P.P.P.P.P.P.0 P.P.  P.P.< P.P.P.P.P.P.P.P.",
"P.P.P.P.P.P.P.P.P.P.P.P.P.P.P.P.P.0 P.P.o . > @ P.P.P.P.P.P.P.P.",
"P.P.P.P.P.P.P.P.P.P.P.P.P.= . P.0 0 0 n w @ 7 P.P.P.P.P.P.P.P.P.",
"P.P.P.P.P.P.P.P.P.P.P.P.P.    P.P.P.0 a D a 0 n P.; P.P.P.P.P.P.",
"P.P.P.P.P.P.P.P.P.P.P.P.P.; o P.P.P.P.B n l ; a P.P.P.P.P.P.P.P.",
"P.P.P.P.P.P.P.P.P.P.P.P.# - = o f u p B k a : t : P.P.P.P.P.P.P.",
"P.P.P.P.P.P.P.P.P.P.P.P.: ; . O g 9 h M 3 6 n G 4 > P.P.P.P.P.P.",
"P.P.P.P.P.P.P.P.P.P.@ P.l f X i l g d B y h D c & P.P.P.P.P.P.P.",
"P.P.P.P.P.P.P.P.P.P.P.b n 6 % | E P.: g M p p e T P.P.P.P.P.P.P.",
"P.P.P.P.P.P.P.P.P.P.P.n N j y g.i.i X s 4 2 U R X.P.P.P.P.P.P.P.",
"P.P.P.P.P.P.P.P.= P.P.l M g r <.B._ $ < f &.8./ ~ P.P.P.P.P.P.P.",
"P.P.P.P.P.P.P.P.P.P.@ : t + $ ) r.2.S y J a.4.^ l w P.P.P.P.P.P.",
"P.P.P.P.P.P.P.P.P.P.& + + - Z O.>.@.S x O.M.z.q.j % X P.P.P.P.P.",
"P.P.P.P.P.P.P.P.P.D l 4 9 n 7.-.3.X.' $.*.b.n.m.A : f P.P.P.P.P.",
"P.P.P.P.P.P.P.P.P.P.b c E P q.v.#.] V.g.5.e.{ [ V P P.P.P.P.P.P.",
"P.P.P.P.P.P.P.P.k d P.H  .m 9.D.r.} F.C.+.Q ( ^ Q ^ P.P.P.P.P.P.",
"P.P.P.P.P.P.P.P.l d P...) Y x.A.6.@.h.M.l.%./ 1.( a P.P.P.P.P.P.",
"P.P.P.P.P.P.P.P.a C o.X...8.j.b.:.O.z.y.D.S.;.0.L l l P.P.P.P.P.",
"P.P.P.P.P.P.P.P.P.l L ` p.z.L.J.t.Z.K.b.N.C.f.,.( n l P.P.P.P.P.",
"P.P.P.P.P.P.P.P.P.P.P.P.=.u.H.K.J.K.K.G.k.s.z ^ V P.P.P.P.P.P.P.",
"P.P.P.P.P.P.P.P.P.P.P.P.P.P.P.K.K.K.K.P.P.P.P.P.P.P.P.P.P.P.P.P."
};
