/* XPM */
static char *result[] = {
/* columns rows colors chars-per-pixel */
"32 32 254 2 ",
"   c #262C2F",
".  c #2F3438",
"X  c #383E42",
"o  c #42494F",
"O  c #4F585E",
"+  c #715F7C",
"@  c #A00306",
"#  c #A10406",
"$  c #A20406",
"%  c #A40506",
"&  c #A40606",
"*  c #A60606",
"=  c #A80605",
"-  c #A90605",
";  c #AC0804",
":  c #AD0804",
">  c #AE0B04",
",  c #AA0C04",
"<  c #AE0C04",
"1  c #B10D03",
"2  c #B60F03",
"3  c #B61003",
"4  c #BA1202",
"5  c #BC1202",
"6  c #BC1302",
"7  c #BF1302",
"8  c #BD1402",
"9  c #BE1502",
"0  c #BA1902",
"q  c #BD1B03",
"w  c #BF1B02",
"e  c #B81E03",
"r  c #BC1D03",
"t  c #B01B08",
"y  c #B52205",
"u  c #BD2002",
"i  c #C01401",
"p  c #C21601",
"a  c #C01602",
"s  c #C21702",
"d  c #C51601",
"f  c #C41701",
"g  c #C01902",
"h  c #C51801",
"j  c #C61901",
"k  c #C11F02",
"l  c #C91901",
"z  c #CC1B01",
"x  c #CD1E00",
"c  c #CF1F00",
"v  c #D01F00",
"b  c #D11F00",
"n  c #C02203",
"m  c #CE2501",
"M  c #C22D04",
"N  c #C92801",
"B  c #CB2A03",
"V  c #D22000",
"C  c #D32000",
"Z  c #D52100",
"A  c #D62200",
"S  c #D72200",
"D  c #DE2700",
"F  c #D22A00",
"G  c #D82900",
"H  c #DD2900",
"J  c #DB2C00",
"K  c #CF3101",
"L  c #D13B01",
"P  c #D63B00",
"I  c #D93800",
"U  c #D83B00",
"Y  c #DF3901",
"T  c #D93F00",
"R  c #E02800",
"E  c #E12900",
"W  c #E32900",
"Q  c #E42900",
"!  c #E52B00",
"~  c #E82C00",
"^  c #E92C00",
"/  c #EA2D00",
"(  c #EA2E00",
")  c #EB2F00",
"_  c #ED2D00",
"`  c #E63900",
"'  c #D54302",
"]  c #DA4300",
"[  c #DF4200",
"{  c #CF5606",
"}  c #D35202",
"|  c #D55602",
" . c #E34100",
".. c #ED4203",
"X. c #E94400",
"o. c #ED4A00",
"O. c #EC4B00",
"+. c #EE4C01",
"@. c #E05300",
"#. c #E55000",
"$. c #EF5500",
"%. c #E05C00",
"&. c #EE5D00",
"*. c #F15100",
"=. c #F25E00",
"-. c #F05D06",
";. c #DC6202",
":. c #D6600E",
">. c #E76303",
",. c #EF6400",
"<. c #ED6D07",
"1. c #F56C00",
"2. c #F76D00",
"3. c #F16B04",
"4. c #EC7602",
"5. c #F67400",
"6. c #F67404",
"7. c #F87600",
"8. c #F67E06",
"9. c #EC7C2A",
"0. c #ED8003",
"q. c #F4890C",
"w. c #F69101",
"e. c #FE9100",
"r. c #FC9006",
"t. c #FE9800",
"y. c #FE9B04",
"u. c #FB9E06",
"i. c #F89908",
"p. c #EF8B17",
"a. c #E78E19",
"s. c #F48711",
"d. c #F18015",
"f. c #F58417",
"g. c #F68E14",
"h. c #F78E19",
"j. c #F59119",
"k. c #FF9E19",
"l. c #FDAD06",
"z. c #FBA608",
"x. c #FCB10D",
"c. c #FCB20D",
"v. c #F8AA11",
"b. c #FEA91A",
"n. c #FAAE18",
"m. c #FDB414",
"M. c #FCBC14",
"N. c #E3992B",
"B. c #F48F31",
"V. c #F99731",
"C. c #E8AE2B",
"Z. c #F5A823",
"A. c #E8A13F",
"S. c #FAA638",
"D. c #F7AE3D",
"F. c #F9AF39",
"G. c #F7B433",
"H. c #FEC70E",
"J. c #FFCF14",
"K. c #F6CA18",
"L. c #EDCE2D",
"P. c #FBCB27",
"I. c #FDC72A",
"U. c #FCD120",
"Y. c #FFDB23",
"T. c #FEC634",
"R. c #FED135",
"E. c #FEDC32",
"W. c #FADD35",
"Q. c #FDEA28",
"!. c #FEE136",
"~. c #FFF636",
"^. c #FFF93D",
"/. c #F9BD41",
"(. c #F6C643",
"). c #F8C042",
"_. c #FACA42",
"`. c #FECD45",
"'. c #FDCA49",
"]. c #FBD64D",
"[. c #FED454",
"{. c #FED35D",
"}. c #FFFC46",
"|. c #FEF44D",
" X c #FEE056",
".X c #FCE659",
"XX c #FBCA64",
"oX c #F9D86B",
"OX c #FBC575",
"+X c #FEE163",
"@X c #FCEC65",
"#X c #FDE768",
"$X c #FBE46D",
"%X c #FDF461",
"&X c #FEFC66",
"*X c #FDF569",
"=X c #FDE573",
"-X c #FDE97C",
";X c #FCEC7C",
":X c #FEF773",
">X c #FDF176",
",X c #FEFA70",
"<X c #FEFA7C",
"1X c #FEFB7C",
"2X c #FDD680",
"3X c #FACE9A",
"4X c #F8DE94",
"5X c #FBE881",
"6X c #FDF386",
"7X c #FDF886",
"8X c #FAF38A",
"9X c #FDF18A",
"0X c #FCEB92",
"qX c #FBE39B",
"wX c #FCF593",
"eX c #FDFA92",
"rX c #FDFE91",
"tX c #FDFB96",
"yX c #FDFB97",
"uX c #FDFB9E",
"iX c #FDFF9F",
"pX c #FBDFAB",
"aX c #FDE8A9",
"sX c #FDFCA6",
"dX c #FCF5AB",
"fX c #FDF6AD",
"gX c #FDFCA9",
"hX c #FDFCAA",
"jX c #FCF7B3",
"kX c #FDFAB5",
"lX c #FCFBB7",
"zX c #FDFCB5",
"xX c #FCF1BE",
"cX c #F9DCD1",
"vX c #FCF4C4",
"bX c #FDF4C5",
"nX c #FCFAC7",
"mX c #FBFACB",
"MX c #FCF8CB",
"NX c #FCF8CC",
"BX c #FCF8D3",
"VX c #FCF4D8",
"CX c #FCFADC",
"ZX c #FCFCE2",
"AX c #FCFCE3",
"SX c #FCFCE6",
"DX c #FCF8EA",
"FX c #FCFCEB",
"GX c #FCFBED",
"HX c #FCFBF0",
"JX c #FCFBF3",
"KX c #FCFDF0",
"LX c #FCFCF3",
"PX c #FCF9F8",
/* pixels */
". X X X X X X X X o X o X X X X X X X X X X X X X X X X X X .   ",
"o o o o o o o o o o o o o o o o o o o o o o o o o o o o o o X . ",
"o o o o o o o o o o o o o o o o o o o o o o o o o o o o o o o X ",
"o o o o o o o o o o o o o o o o o o o o o o o o o o o o o o o X ",
"o o o o o o o o o o o o o o o o o o o o o o o o o o o o o o o X ",
"o o o o o o o o o o o o o o ~ o o o o o o o o o o o o o o o o X ",
"o o o o o o o o o o o o o : h o o o o o o o o o o o o o o o o X ",
"o o o o o o o o o o @ * o o o ^ o b & o o o o o o o o o o o o X ",
"o o o o o o o o o o * Z 3 o ( A 9 i s o o o o o o o o o o o o X ",
"o o o o o o o o o o o Q o o o d # $ x 5 ; o o o o o o o o o o X ",
"o o o o o o o o ! a 1 f - o o o o o v C o _ / o o o o o o o o X ",
"o o o o o o o o o W V D h w 5.T o ^ o S o o o o o o o o o o o X ",
"o o o o o o o o o o o p > ' J 5 $ z R C j Q o o o o o o o o o X ",
"o o o o o o o o o o o [ c.B.Y 6 % 4 U q 6 O.P L o o o o o o o X ",
"o o o o o o o o o o @.7./.OX+.8 5 < &. .M g.*.o.o o o o o o X X ",
"X o o o o o o o o o u B A.4X>.] G ; m #.C.$X<.) o o o o o X   . ",
"X X X X X X X X X X , F } a.;.j.s.n t (.fXZ.y E X X X X X X X X ",
"o o o o o o o o o o c e w.K.o o qX:.{ 8X%X4.g 7 l o o o o o o o ",
"o o o o o o o o ~ o 2 r %.J.x.`.MXN.).dXM.$.K 0 ` o o o o o o o ",
"o o o o o o o o o = a N 0.v.n.@X_.9..XDXXX=.I p.q.o o o o o o o ",
"o o o o o o o o o k H | W.;X3XG.l.6.*XsXwX-.D.xXoXo o o o o o o ",
"o o o o o o o o 2.,.X.t.E.7XGX5Xr.m.NXgX,X].tXFX9XV.o o o o o o ",
"o o o o o o o o 3.'.u.z.h.-XnX0XT.~.LXHX|.rXzX1XI...o o o o o o ",
"o o o o o e.o o d.VX!.8.pXlXjXF.i.Y.kXJX6X:XmXL.o o o o o o o o ",
"o o o o o o o o f.BXvXS. XuX^.H.1.U.eXZXyXR.#Xo o o o o o o o o ",
"o o o o o o o o o 2XPXcX[.<XhX>XP.Q.&XjX{.b.o o o o o o o o o o ",
"o o o o o o o o o k.aXbXCXAXSXKXiX}.=X+Xy.o o o o o o o o o o o ",
"o o o o o o o o o o o o o o o X + o o o o o o o o o o o o o o o ",
"o o o o o o o o o o o o o o o X O o o o o o o o o o o o o o o o ",
"o o o o o o o o o o o o o o o X O o o o o o o o o o o o o o o o ",
"o o o o o o o o o o o o o o X X o o o o o o o o o o o o o o o o ",
"o o o o o o o o o o o o o X   . X o o o o o o o o o o o o o o o "
};
