/* XPM */
static char *_67a499f55424b4187286423e9d879eaRQk7clCA0Y6Qyyb1[] = {
/* columns rows colors chars-per-pixel */
"32 32 149 2 ",
"   c #566C86",
".  c #C42007",
"X  c #C82707",
"o  c #CD2B06",
"O  c #C82F07",
"+  c #CB2F07",
"@  c #C32F08",
"#  c #D22F05",
"$  c #DB2F03",
"%  c #DF2F02",
"&  c #C03C0C",
"*  c #D23307",
"=  c #DB3503",
"-  c #DC3703",
";  c #DC3F07",
":  c #DE3E07",
">  c #CD4507",
",  c #DF4602",
"<  c #DE4703",
"1  c #DC4A04",
"2  c #DF5E07",
"3  c #D7510A",
"4  c #D6570C",
"5  c #E34306",
"6  c #EE4300",
"7  c #EE4600",
"8  c #F04B00",
"9  c #EB5701",
"0  c #ED5401",
"q  c #EF5602",
"w  c #E25C04",
"e  c #EA5B01",
"r  c #E85C06",
"t  c #F05000",
"y  c #F35E01",
"u  c #F25F03",
"i  c #DA6E10",
"p  c #D87B15",
"a  c #E66104",
"s  c #EE6A01",
"d  c #EC6C04",
"f  c #ED6F08",
"g  c #F36102",
"h  c #F46201",
"j  c #F46400",
"k  c #F56400",
"l  c #F66700",
"z  c #F06E01",
"x  c #F36E06",
"c  c #F66D04",
"v  c #F77102",
"b  c #F57403",
"n  c #F67304",
"m  c #F87202",
"M  c #F87500",
"N  c #FB7F00",
"B  c #F0750C",
"V  c #F37D09",
"C  c #F57F08",
"Z  c #F4742A",
"A  c #F37E4A",
"S  c #F98502",
"D  c #F88007",
"F  c #FF8E00",
"G  c #FE8C02",
"H  c #FD8F03",
"J  c #FB8805",
"K  c #FC8D05",
"L  c #FC8F04",
"P  c #F4830A",
"I  c #FA8D08",
"U  c #FB8F0B",
"Y  c #FC9107",
"T  c #F9930A",
"R  c #FB970B",
"E  c #F8910E",
"W  c #FC920D",
"Q  c #F9940C",
"!  c #F9970E",
"~  c #FD9A08",
"^  c #FF9F08",
"/  c #FA9F0F",
"(  c #FC9D0C",
")  c #F99D10",
"_  c #FEA20A",
"`  c #FFB20F",
"'  c #F6A111",
"]  c #FBA612",
"[  c #FDAF10",
"{  c #F9AA18",
"}  c #FEB311",
"|  c #FDB113",
" . c #FFB410",
".. c #FCB114",
"X. c #FDB714",
"o. c #FDB715",
"O. c #FFBC12",
"+. c #FEBB14",
"@. c #FDBF17",
"#. c #FAB218",
"$. c #F9B51A",
"%. c #FCB518",
"&. c #FDB51C",
"*. c #FBBB1A",
"=. c #FABE1E",
"-. c #FB9C37",
";. c #F9A42F",
":. c #FAA72E",
">. c #FBB727",
",. c #FAA93F",
"<. c #FDBF3B",
"1. c #FEC417",
"2. c #FFC517",
"3. c #FEC518",
"4. c #FCC81D",
"5. c #FFD61D",
"6. c #FDD51F",
"7. c #FDC523",
"8. c #FDDB23",
"9. c #FBC43F",
"0. c #FFEA26",
"q. c #FFEB26",
"w. c #FFEC28",
"e. c #FBBC48",
"r. c #FEBD50",
"t. c #FBB862",
"y. c #F9B371",
"u. c #FBCF57",
"i. c #FCD276",
"p. c #FEDC73",
"a. c #FDF67E",
"s. c #FDDC9D",
"d. c #FDE68B",
"f. c #FDEF8B",
"g. c #FDE997",
"h. c #FDE79D",
"j. c #FAD9BF",
"k. c #FBE3A5",
"l. c #FDE9A7",
"z. c #FDE8AB",
"x. c #FDF6C6",
"c. c #FDF6C9",
"v. c #FDFCD9",
"b. c #FDFDD9",
"n. c #FDFADF",
"m. c #FDFEDF",
"M. c #FCEFE0",
"N. c #FCFEEC",
"B. c #FCFEF6",
/* pixels */
"                                                                ",
"                                                                ",
"                                                                ",
"                                                                ",
"                                                                ",
"                                                                ",
"                                                                ",
"                                                                ",
"                                                                ",
"                                                                ",
"                                                                ",
"                                                                ",
"                                                                ",
"                                                                ",
"                                                                ",
"                                                                ",
"                                                                ",
"                                                                ",
"                          . -   _ F   w                         ",
"                        X o a Q } d > s 3                       ",
"                        0 d w B E : & 4 @                       ",
"                      t g F 1 < { 5 p T P ^ < O                 ",
"                      k L } b e O.x V D K +.m 9                 ",
"                      r ] _ g S 5.Y k n ~ Q * =                 ",
"                    % f w.*.v X.5...L =.2.5 # O                 ",
"                    6 | 0.8.S 1.0.$.o.4.' i t $                 ",
"                    7 ^ &.%.n [ #.6.1.E 1.` g 8                 ",
"                      m t.f.u.~ >.a.7.N e.e.C                   ",
"                    y S e.x.v.u.d.N.k.i.x.p.:.                  ",
"                    k W <.g.v.N.v.l.s.M.j.y.A                   ",
"                        c I :.h.B.z.-.Z                         ",
"                                                                "
};
