/* XPM */
static char *_954c82f12ef42c5b30de10635a696dfT3ZojI6zu4IpGF6B[] = {
/* columns rows colors chars-per-pixel */
"32 32 68 1 ",
"  c #566C86",
". c #9D0B0F",
"X c #9E0B0F",
"o c #9F0C0F",
"O c #A00C0F",
"+ c #A20D0E",
"@ c #A50E0E",
"# c #A7100D",
"$ c #AC120C",
"% c #AF140C",
"& c #B0140B",
"* c #B1150B",
"= c #B3160B",
"- c #B5170A",
"; c #B4160B",
": c #B6170A",
"> c #B7170A",
", c #B7180A",
"< c #BA1909",
"1 c #BB1A09",
"2 c #B8180A",
"3 c #B9190A",
"4 c #BC1A09",
"5 c #BD1B09",
"6 c #BF1C08",
"7 c #C41E07",
"8 c #C51F07",
"9 c #C61F07",
"0 c #C01C08",
"q c #C11D08",
"w c #C21D08",
"e c #C72007",
"r c #C92106",
"t c #CA2106",
"y c #CA2206",
"u c #CB2206",
"i c #CE2305",
"p c #CC2206",
"a c #D02405",
"s c #D02505",
"d c #D12505",
"f c #D22505",
"g c #D32604",
"h c #D42604",
"j c #D42704",
"k c #D52704",
"l c #D82803",
"z c #D92903",
"x c #DD2B02",
"c c #DC2A03",
"v c #DE2B02",
"b c #DE2C02",
"n c #DF2C02",
"m c #E22E01",
"M c #E32E01",
"N c #E02C02",
"B c #E02D02",
"V c #E12D02",
"C c #E42F01",
"Z c #E52F01",
"A c #E73000",
"S c #E63001",
"D c #E83000",
"F c #E83100",
"G c #E93100",
"H c #EA3100",
"J c #EA3200",
"K c #ED3300",
/* pixels */
"                                ",
"                                ",
"                                ",
"                                ",
"                                ",
"                                ",
"                                ",
"                      +         ",
"                                ",
"                       k        ",
"           F    35 C30          ",
"         38w    -0 3ic          ",
"        wu        $,i3X         ",
"        k d*  5d u              ",
"       $-     5e   C  -         ",
"       3    Nuw   bN5d          ",
"            & Xub i,o@o         ",
"         F   @u-w3     Ndu      ",
"              8k30-    b5ud#    ",
"               FN7k  3  Ne      ",
"         zF  X+*N       FNc*XX  ",
"        8cFK XX kSF    &  z5    ",
"         kCkwX*FF F   kz *3     ",
"          C&  aF      >3kcF     ",
"                                ",
"                                ",
"                                ",
"                                ",
"                                ",
"                                ",
"                                ",
"                                "
};
