/* XPM */
static char *_3c6b417957c49d8c06d97b2148cc88eDiARBF2YL35fe54B[] = {
/* columns rows colors chars-per-pixel */
"32 32 42 1 ",
"  c #566C86",
". c #9E0B0F",
"X c #A00C0F",
"o c #A20D0E",
"O c #AA110D",
"+ c #AB120C",
"@ c #AD130C",
"# c #AE130C",
"$ c #AF140C",
"% c #B0140B",
"& c #B4160B",
"* c #B6170A",
"= c #B7170A",
"- c #B7180A",
"; c #BA1909",
": c #BB1A09",
"> c #BE1B09",
", c #C41E07",
"< c #C51F07",
"1 c #C61F07",
"2 c #C01C08",
"3 c #C21D08",
"4 c #C31E08",
"5 c #CA2106",
"6 c #CE2305",
"7 c #CC2206",
"8 c #CF2405",
"9 c #D02405",
"0 c #D12505",
"q c #D32604",
"w c #D42604",
"e c #D42704",
"r c #D52704",
"t c #D72804",
"y c #DA2903",
"u c #DC2A03",
"i c #DE2B02",
"p c #E22E01",
"a c #E42F01",
"s c #E63001",
"d c #E93100",
"f c #EA3200",
/* pixels */
"                                ",
"                                ",
"                                ",
"                                ",
"                                ",
"                                ",
"                                ",
"                                ",
"                                ",
"                &   ;1          ",
"                @+; >t          ",
"               -@@ ay           ",
"        8e     4                ",
"         a   ts  pe             ",
"                                ",
"                >    &5dd       ",
"        1s  X &41$  0&          ",
"               6                ",
"               ;-   5-   y      ",
"         1     45    X   4  %%  ",
"        e66   #i        0O      ",
"        04   .            0     ",
"                                ",
"                                ",
"                                ",
"                                ",
"                                ",
"                                ",
"                                ",
"                                ",
"                                ",
"                                "
};
