/* XPM */
static char *_777185b28864ff2dd9d5f0f167e0b34ECchORwIENKKm2zG[] = {
/* columns rows colors chars-per-pixel */
"32 32 3 1 ",
"  c #566C86",
"- c #566C86",
"| c #566C86"
/* pixels */
"--------------------------------",
"|                              |",
"|                              |",
"|                              |",
"|                              |",
"|                              |",
"|                              |",
"|                              |",
"|                              |",
"|                              |",
"|                              |",
"|                              |",
"|                              |",
"|                              |",
"|                              |",
"|                              |",
"|                              |",
"|                              |",
"|                              |",
"|                              |",
"|                              |",
"|                              |",
"|                              |",
"|                              |",
"|                              |",
"|                              |",
"|                              |",
"|                              |",
"|                              |",
"|                              |",
"|                              |",
"--------------------------------"
};
