/* XPM */
static char *result[] = {
/* columns rows colors chars-per-pixel */
"32 32 6 1 ",
"  c #262C2F",
". c #2F3438",
"X c #383E42",
"o c #42494F",
"O c #4F585E",
"+ c #715F7C",
/* pixels */
".XXXXXXXXoXoXXXXXXXXXXXXXXXXXX. ",
"ooooooooooooooooooooooooooooooX.",
"oooooooooooooooooooooooooooooooX",
"oooooooooooooooooooooooooooooooX",
"oooooooooooooooooooooooooooooooX",
"oooooooooooooooooooooooooooooooX",
"oooooooooooooooooooooooooooooooX",
"oooooooooooooooooooooooooooooooX",
"oooooooooooooooooooooooooooooooX",
"oooooooooooooooooooooooooooooooX",
"oooooooooooooooooooooooooooooooX",
"oooooooooooooooooooooooooooooooX",
"oooooooooooooooooooooooooooooooX",
"oooooooooooooooooooooooooooooooX",
"ooooooooooooooooooooooooooooooXX",
"XooooooooooooooooooooooooooooX .",
"XXXXXXXXXXXXXooo.XXXXXXXXXXXXXXX",
"ooooooooooooooooX+oooooooooooooo",
"oooooooooooooooo+ooooooooooooooo",
"oooooooooooooooo+ooooooooooooooo",
"oooooooooooooooo+ooooooooooooooo",
"oooooooooooooooX+ooooooooooooooo",
"oooooooooooooooX+ooooooooooooooo",
"oooooooooooooooo+ooooooooooooooo",
"oooooooooooooooX+ooooooooooooooo",
"oooooooooooooooX+ooooooooooooooo",
"oooooooooooooooX+ooooooooooooooo",
"oooooooooooooooX+ooooooooooooooo",
"oooooooooooooooXOooooooooooooooo",
"oooooooooooooooXOooooooooooooooo",
"ooooooooooooooXXoooooooooooooooo",
"oooooooooooooX .Xooooooooooooooo"
};
