/* XPM */
static char *result[] = {
/* columns rows colors chars-per-pixel */
"32 32 83 1 ",
"  c #262C2F",
". c #2F3438",
"X c #383E42",
"o c #42494F",
"O c #4F585E",
"+ c #715F7C",
"@ c #6A36FD",
"# c #6D34FF",
"$ c #6D37FE",
"% c #643EFD",
"& c #6E38FE",
"* c #693DFE",
"= c #6D3EFE",
"- c #773AFE",
"; c #723FFE",
": c #753DFE",
"> c #773DFE",
", c #7F3EFF",
"< c #6F41FE",
"1 c #6A45FD",
"2 c #6C4EFE",
"3 c #7340FE",
"4 c #7243FF",
"5 c #764DFE",
"6 c #7A48FD",
"7 c #7A49FE",
"8 c #794AFE",
"9 c #7D48FE",
"0 c #7D4BFE",
"q c #7E4AFE",
"w c #7A4FFE",
"e c #7F4EFE",
"r c #7454FE",
"t c #7C51FE",
"y c #755DFD",
"u c #785DFF",
"i c #7A61FD",
"p c #7469FE",
"a c #756CFE",
"s c #7979FE",
"d c #8439FE",
"f c #8243FD",
"g c #8443FF",
"h c #8044FD",
"j c #8547FD",
"k c #814BFE",
"l c #824AFE",
"z c #804DFE",
"x c #854FFF",
"c c #884EFF",
"v c #8A4FFF",
"b c #8C4CFE",
"n c #8655FF",
"m c #8B55FD",
"M c #8D57FE",
"N c #825AFF",
"B c #865DFF",
"V c #9250FE",
"C c #9052FF",
"Z c #9854FE",
"A c #945BFE",
"S c #925DFE",
"D c #A25CFF",
"F c #8A61FE",
"G c #8B63FE",
"H c #8A67FE",
"J c #826BFE",
"K c #9362FD",
"L c #9263FD",
"P c #9B65FE",
"I c #9F67FE",
"U c #9E6EFF",
"Y c #897FFE",
"T c #887EFF",
"R c #897EFF",
"E c #A764FE",
"W c #AB61FF",
"Q c #A26FFE",
"! c #AA76FE",
"~ c #8080FF",
"^ c #8982FF",
"/ c #B19DFF",
"( c #ADA3FF",
/* pixels */
".XXXXXXXXoXoXXXXXXXXXXXXXXXXXX. ",
"ooooooooooooooooooooooooooooooX.",
"oooooooooooooooooooooooooooooooX",
"oooooooooooooooooooooooooooooooX",
"ooooooooooooooLooooooooooooooooX",
"ooooooooooooUUoooooooooooooooooX",
"ooooooooooooUUoooooooooooooooooX",
"ooooooooooo:CCfoooom996ooooooooX",
"ooooooooowwoFFxnnvvboooooooooooX",
"ooooooooowwoFFxnnvvboooooooooooX",
"ooooooooSqqPooooooooQQoooooooooX",
"ooooooHHI>>oooooooooooKccjoooooX",
"ooooooHHI>>oooooooooooKccjoooooX",
"ooooooBB!$$oooooooooooikk3oooooX",
"ooooooNN/##oooooooooooh,,=ooooXX",
"XoooooNN/##oooooooooooh,,=oooX .",
"XXXXXXXXZ22XXooo.XXXXXsll%XXXXXX",
"ooooooooZ22oooooX+oooosll%oooooo",
"ooooooooVYYooooo+ooo**p001oooooo",
"oooooooooWWroooo+ooo^^g;;ooooooo",
"oooooooooWWroooo+ooo^^g;;ooooooo",
"ooooooooyJJeddoX+ooDtt-ooooooooo",
"oooooooooaaT~~(RRuu4&&oooooooooo",
"oooooooooaaT~~(RRuu4&&oooooooooo",
"ooooooooooooooEMM77<@@oooooooooo",
"ooooooooooooGG8zzAA5oooooooooooo",
"ooooooooooooGG8zzAA5oooooooooooo",
"oooooooooooooooX+ooooooooooooooo",
"oooooooooooooooXOooooooooooooooo",
"oooooooooooooooXOooooooooooooooo",
"ooooooooooooooXXoooooooooooooooo",
"oooooooooooooX .Xooooooooooooooo"
};
