/* XPM */
static char *_8d37d585eda4c8dcd62b3a64e8de6f9efUCpI2qISDyMaoX[] = {
/* columns rows colors chars-per-pixel */
"32 32 181 2 ",
"   c #566C86",
".  c #1C1F26",
"X  c #1C1F27",
"o  c #1D1F27",
"O  c #1E2027",
"+  c #1C2028",
"@  c #1D2028",
"#  c #1C2129",
"$  c #1E2129",
"%  c #1C212A",
"&  c #1C222A",
"*  c #1C222B",
"=  c #1F222A",
"-  c #1E232A",
";  c #1B232C",
":  c #1B232D",
">  c #1B242E",
",  c #1F262F",
"<  c #1B2630",
"1  c #1B2731",
"2  c #1B2732",
"3  c #1A2733",
"4  c #1B2833",
"5  c #1A2934",
"6  c #1A2935",
"7  c #1A2A36",
"8  c #1B2A36",
"9  c #1A2B37",
"0  c #1A2D3B",
"q  c #192E3B",
"w  c #1E2D39",
"e  c #192E3C",
"r  c #192F3D",
"t  c #1A2F3D",
"y  c #192F3E",
"u  c #1F303B",
"i  c #21232A",
"p  c #20242B",
"a  c #20272F",
"s  c #252930",
"d  c #282B31",
"f  c #2A2A30",
"g  c #2A2B31",
"h  c #282C32",
"j  c #2A2C32",
"k  c #2A2D33",
"l  c #2C2C31",
"z  c #292E34",
"x  c #2C2F34",
"c  c #2C2F35",
"v  c #2B3136",
"b  c #2E3035",
"n  c #2F3035",
"m  c #2D3136",
"M  c #2F3136",
"N  c #2D3338",
"B  c #2D373B",
"V  c #28383C",
"C  c #2B393D",
"Z  c #2B393E",
"A  c #2F3A3E",
"S  c #313237",
"D  c #303338",
"F  c #313439",
"G  c #313539",
"H  c #323439",
"J  c #33353A",
"K  c #34363B",
"L  c #35373C",
"P  c #38363A",
"I  c #38373B",
"U  c #37383C",
"Y  c #37393D",
"T  c #363B3F",
"R  c #193241",
"E  c #193242",
"W  c #183444",
"Q  c #183546",
"!  c #183646",
"~  c #183647",
"^  c #1A3747",
"/  c #17394C",
"(  c #173A4C",
")  c #173B4D",
"_  c #1A3A4A",
"`  c #183A4D",
"'  c #183B4E",
"]  c #173D51",
"[  c #173E51",
"{  c #173F53",
"}  c #353D41",
"|  c #363C40",
" . c #373D41",
".. c #363E41",
"X. c #343E42",
"o. c #353F43",
"O. c #164055",
"+. c #164157",
"@. c #164257",
"#. c #164258",
"$. c #164359",
"%. c #17445A",
"&. c #15465D",
"*. c #15465E",
"=. c #2F494B",
"-. c #2C494C",
";. c #2E4B4E",
":. c #364043",
">. c #354144",
",. c #344245",
"<. c #344447",
"1. c #344749",
"2. c #34474A",
"3. c #33484B",
"4. c #33494B",
"5. c #304B4D",
"6. c #324A4C",
"7. c #314D4F",
"8. c #2D4E50",
"9. c #314E50",
"0. c #324E50",
"q. c #2A5153",
"w. c #2F5456",
"e. c #2D5657",
"r. c #2F5657",
"t. c #285859",
"y. c #2B595A",
"u. c #2F595A",
"i. c #2E5B5C",
"p. c #2D5C5C",
"a. c #2E5C5C",
"s. c #2D5E5F",
"d. c #315052",
"f. c #305456",
"g. c #144961",
"h. c #144A64",
"j. c #144B64",
"k. c #144B65",
"l. c #144C66",
"z. c #144D67",
"x. c #13506B",
"c. c #13506C",
"v. c #13516D",
"b. c #13526F",
"n. c #14516D",
"m. c #125572",
"M. c #115B7B",
"N. c #2B6161",
"B. c #2C6262",
"V. c #2B6665",
"C. c #286666",
"Z. c #2A6766",
"A. c #246C6B",
"S. c #2A6968",
"D. c #2A6969",
"F. c #286C6B",
"G. c #296D6C",
"H. c #286E6D",
"J. c #286F6D",
"K. c #286F6E",
"L. c #296F6E",
"P. c #277170",
"I. c #277472",
"U. c #277473",
"Y. c #247674",
"T. c #267674",
"R. c #287270",
"E. c #257976",
"W. c #257A77",
"Q. c #257B79",
"!. c #247C7A",
"~. c #247D7A",
"^. c #21827F",
"/. c #115E80",
"(. c #105F81",
"). c #106183",
"_. c #0E6D94",
"`. c #1E9691",
"'. c #228481",
"]. c #208884",
"[. c #208C88",
/* pixels */
"                                                                ",
"                                                                ",
"                                                                ",
"                                                                ",
"                            j L Y                               ",
"                            p G Y                               ",
"                          # i G Y                               ",
"                          8 1 G f.<.                            ",
"                          n.$.K `.K.                            ",
"                          [ ' B S.r.                            ",
"                          u > n K.<.                            ",
"                        t v.{ n U.V.                            ",
"                        < z.' n 0.d.6.                          ",
"                        t j.# Z R.E.~.                          ",
"                        6 6 # Z u.0.i.                          ",
"                      % ) M.E n K.B.d.                          ",
"                      % O.O.% B U.K.s.P                         ",
"                      t ) Q % v u.o.s. .                        ",
"                      v.q l.Q j S.[.!.|                         ",
"                      { Q *.< j  .'.w.U                         ",
"                    % 6 < 6 % z 6.| ,.>.                        ",
"                    ; l.).*.> V ~.S.U.K.1.                      ",
"                    # O._.0 o j 1.E.<. .X.                      ",
"                    ! g.! n.t g ;.Y.V.H.4.                      ",
"                    s # o < > s y.-.=.;.G                       ",
"                  _ w , # i p z D G S K  .                      ",
"                  x.! m.E O._ x F.P.1.N.8.'.                    ",
"                  z.! /.#./.g.g A.p.>.].r.V.                    ",
"                  # # 4 t O.' g N.7.<.y.q.8.                    ",
"                        . o o x  .Y Y                           ",
"                                                                ",
"                                                                "
};
