/* XPM */
static char *result[] = {
/* columns rows colors chars-per-pixel */
"32 32 118 2 ",
"   c #262C2F",
".  c #2F3438",
"X  c #383E42",
"o  c #42494F",
"O  c #4F585E",
"+  c #715F7C",
"@  c #6A36FD",
"#  c #653FFE",
"$  c #6E38FE",
"%  c #6F3BFF",
"&  c #6D3FFE",
"*  c #6E3FFF",
"=  c #7639FE",
"-  c #713EFD",
";  c #713EFF",
":  c #723FFE",
">  c #753DFE",
",  c #773DFE",
"<  c #783EFE",
"1  c #7C3EFF",
"2  c #6B45FE",
"3  c #7040FE",
"4  c #7440FF",
"5  c #7944FE",
"6  c #704AFE",
"7  c #764BFE",
"8  c #7A48FD",
"9  c #7849FE",
"0  c #794AFE",
"q  c #7B4AFE",
"w  c #7D48FE",
"e  c #7E48FE",
"r  c #7F49FE",
"t  c #7C4AFE",
"y  c #7F4BFE",
"u  c #794EFD",
"i  c #7F4FFE",
"p  c #7753FE",
"a  c #7B50FE",
"s  c #7956FF",
"d  c #755DFD",
"f  c #7B5FFF",
"g  c #7D5CFE",
"h  c #7C5FFE",
"j  c #7567FF",
"k  c #766DFE",
"l  c #7A74FF",
"z  c #7C74FF",
"x  c #843EFF",
"c  c #8043FE",
"v  c #8542FF",
"b  c #8244FD",
"n  c #8244FE",
"m  c #8046FF",
"M  c #8346FE",
"N  c #8648FE",
"B  c #804DFE",
"V  c #814EFE",
"C  c #844DFF",
"Z  c #874DFE",
"A  c #844FFE",
"S  c #8A4EFF",
"D  c #8E4FFD",
"F  c #8C4CFE",
"G  c #8C4FFE",
"H  c #934CFE",
"J  c #8651FF",
"K  c #8255FF",
"L  c #8755FF",
"P  c #8657FE",
"I  c #8B55FD",
"U  c #8B54FF",
"Y  c #8F54FF",
"T  c #8D57FE",
"R  c #8159FE",
"E  c #855CFE",
"W  c #875EFE",
"Q  c #885DFE",
"!  c #9250FF",
"~  c #9354FF",
"^  c #9456FF",
"/  c #9955FF",
"(  c #9C56FD",
")  c #925BFD",
"_  c #9159FE",
"`  c #925EFE",
"'  c #935EFF",
"]  c #A552FE",
"[  c #A65FFE",
"{  c #8966FD",
"}  c #8269FE",
"|  c #9363FF",
" . c #9264FD",
".. c #9B65FE",
"X. c #946BFF",
"o. c #9869FE",
"O. c #9D6DFE",
"+. c #8573FF",
"@. c #8B76FF",
"#. c #8B79FE",
"$. c #887EFF",
"%. c #A062FE",
"&. c #A660FE",
"*. c #A267FE",
"=. c #AB66FE",
"-. c #A06BFE",
";. c #A66AFE",
":. c #A272FE",
">. c #B07AFE",
",. c #7E8CFE",
"<. c #7290FF",
"1. c #8A83FF",
"2. c #9B85FD",
"3. c #B186FE",
"4. c #BD8CFE",
"5. c #AE91FE",
"6. c #B1A1FF",
"7. c #B8A7FF",
/* pixels */
". X X X X X X X X o X o X X X X X X X X X X X X X X X X X X .   ",
"o o o o o o o o o o o o o o o o o o o o o o o o o o o o o o X . ",
"o o o o o o o o o o o o o o o o o o o o o o o o o o o o o o o X ",
"o o o o o o o o o o o o o o o o o o o o o o o o o o o o o o o X ",
"o o o o o o o o o o o o o o o o o o o o o o o o o o o o o o o X ",
"o o o o o o o o o o o o o o o o o o o o o o o o o o o o o o o X ",
"o o o o o o o o o o o N N 4 * * # # 2 o o o o o o o o o o o o X ",
"o o o o o o o o o o o N N 4 * * # # 2 o o o o o o o o o o o o X ",
"o o o o o o o o o o o Z Z r 1 1 e e q - - o o o o o o o o o o X ",
"o o o o o o o 8 o o o | | h c c l l j v v = o o o o o o o o o X ",
"o o o o o o o 8 o o o | | h c c l l j v v = o o o o o o o o o X ",
"o o o o o o o w o o -.o o K m m 9 9 3 +.+.a $ $ @ o o o o o o X ",
"o o o o o o o I F F &.o o ;.4.4.5.5.M % % ~ ; ; & 6 6 o o o o X ",
"o o o o o o o I F F &.o o ;.4.4.5.5.M % % ~ ; ; & 6 6 o o o o X ",
"o o o o o o o o S S o C C o o o 2.2.) : : 7 f f t _ _ o o o X X ",
"X o o o o o o o L L ^ U U H o o o o ( z z V @.@.T B B o o X   . ",
"X X X X X X X X L L ^ U U H o o . X ( z z V @.@.T B B X X X X X ",
"o o o o  .o o b A A 3.J J o ` ` X + ] <.<.o.6.6.=.0 0 o o o o o ",
"o o o o  .o o b A A 3.J J o ` ` + o ] <.<.o.6.6.=.0 0 o o o o o ",
"o o o o o O.O.D Q Q o X.X.x o o + o g ,.,.G 1.1.o W W o o o o o ",
"o o o o o o o > o o ..5 5 %.:.:.Y Y P s s i $.$.o o o o o o o o ",
"o o o o o o o > o o ..5 5 %.:.:.Y Y P s s i $.$.o o o o o o o o ",
"o o o o o o o o u u y , , < n n p p #.[ [ } k k o o o o o o o o ",
"o o o o o o o o o o ' *.*.>.7.7./ / ! o o d o o o o o o o o o o ",
"o o o o o o o o o o ' *.*.>.7.7./ / ! o o d o o o o o o o o o o ",
"o o o o o o o o o o o { { E R R + o o o o o o o o o o o o o o o ",
"o o o o o o o o o o o o o o o X + o o o o o o o o o o o o o o o ",
"o o o o o o o o o o o o o o o X + o o o o o o o o o o o o o o o ",
"o o o o o o o o o o o o o o o X O o o o o o o o o o o o o o o o ",
"o o o o o o o o o o o o o o o X O o o o o o o o o o o o o o o o ",
"o o o o o o o o o o o o o o X X o o o o o o o o o o o o o o o o ",
"o o o o o o o o o o o o o X   . X o o o o o o o o o o o o o o o "
};
