/* XPM */
static char *result[] = {
/* columns rows colors chars-per-pixel */
"32 32 118 2 ",
"   c #262C2F",
".  c #2F3438",
"X  c #383E42",
"o  c #42494F",
"O  c #4F585E",
"+  c #715F7C",
"@  c #6A36FD",
"#  c #643EFD",
"$  c #6E38FE",
"%  c #6F3AFE",
"&  c #6D3EFE",
"*  c #7138FE",
"=  c #773AFE",
"-  c #763BFE",
";  c #723FFE",
":  c #753DFE",
">  c #773DFF",
",  c #7F3EFF",
"<  c #6F41FE",
"1  c #6A45FD",
"2  c #7040FE",
"3  c #7340FE",
"4  c #7243FF",
"5  c #7944FE",
"6  c #744AFE",
"7  c #764DFE",
"8  c #7A48FD",
"9  c #7849FE",
"0  c #7A49FE",
"q  c #794AFE",
"w  c #7D48FE",
"e  c #7D4BFE",
"r  c #7E4AFE",
"t  c #7A4FFE",
"y  c #7F4FFE",
"u  c #7653FE",
"i  c #7B50FE",
"p  c #7956FF",
"a  c #755DFD",
"s  c #755EFE",
"d  c #795CFF",
"f  c #7C5FFE",
"g  c #7465FE",
"h  c #756CFE",
"j  c #7971FE",
"k  c #7C74FF",
"l  c #843DFE",
"z  c #8243FD",
"x  c #8041FF",
"c  c #8043FE",
"v  c #8046FF",
"b  c #8547FD",
"n  c #8545FF",
"m  c #814BFE",
"M  c #824AFE",
"N  c #864AFE",
"B  c #804DFE",
"V  c #814EFE",
"C  c #844CFF",
"Z  c #844FFE",
"A  c #8949FE",
"S  c #8B4CFE",
"D  c #884EFF",
"F  c #8B4EFF",
"G  c #934CFE",
"H  c #8651FF",
"J  c #8255FF",
"K  c #8755FF",
"L  c #8657FE",
"P  c #8D52FE",
"I  c #8B55FD",
"U  c #8B54FF",
"Y  c #8F54FF",
"T  c #8D57FE",
"R  c #825AFF",
"E  c #865DFF",
"W  c #9250FE",
"Q  c #9052FF",
"!  c #9456FF",
"~  c #9854FE",
"^  c #9C56FD",
"/  c #925BFE",
"(  c #945BFE",
")  c #915DFD",
"_  c #925DFE",
"`  c #A352FE",
"'  c #8A61FE",
"]  c #8B63FE",
"[  c #8A67FE",
"{  c #826BFE",
"}  c #9263FD",
"|  c #9262FE",
" . c #9566FE",
".. c #9B65FE",
"X. c #9F67FE",
"o. c #9E6EFF",
"O. c #8573FF",
"+. c #8B76FF",
"@. c #827DFF",
"#. c #8B7BFE",
"$. c #887EFF",
"%. c #9872FF",
"&. c #A062FE",
"*. c #A560FD",
"=. c #A764FE",
"-. c #A960FE",
";. c #A06BFE",
":. c #A669FD",
">. c #A272FE",
",. c #AA76FE",
"<. c #738CFF",
"1. c #818CFE",
"2. c #9C86FE",
"3. c #AD80FE",
"4. c #AA8EFE",
"5. c #BC8BFD",
"6. c #AC9BFF",
"7. c #B19DFF",
/* pixels */
". X X X X X X X X o X o X X X X X X X X X X X X X X X X X X .   ",
"o o o o o o o o o o o o o o o o o o o o o o o o o o o o o o X . ",
"o o o o o o o o o o o o o o o o o o o o o o o o o o o o o o o X ",
"o o o o o o o o o o o o o o o o o o o o o o o o o o o o o o o X ",
"o o o o o o o o o o o o o o } o o o o o o o o o o o o o o o o X ",
"o o o o o o o o o o o o o.o.o o o o o o o o o o o o o o o o o X ",
"o o o o o o o o o o o o o.o.o o o o o o o o o o o o o o o o o X ",
"o o o o o o o o o o o : Q Q z o o o o I w w 8 o o o o o o o o X ",
"o o o o o o o o o t t o ' ' Z K K F F S o o o o o o o o o o o X ",
"o o o o o o o o o t t o ' ' Z K K F F S o o o o o o o o o o o X ",
"o o o o o o o o _ r r ..o o 3.! ! o o *.;.;.o o o o o o o o o X ",
"o o o o o o [ [ X.> > 5 %.%.H U U C C o o o | D D b o o o o o X ",
"o o o o o o [ [ X.> > 5 %.%.H U U C C o o o | D D b o o o o o X ",
"o o o o o o E E ,.- - &.l l o G G o o :.J J f m m 3 o o o o o X ",
"o o o o o o R R 7.x x >.o o ) o o o o 5.v v c , , & o o o o X X ",
"X o o o o o R R 7.x x >.o o ) o o o o 5.v v c , , & o o o X   . ",
"X X X X X X X X ~ u u Y X o o o . 2.2.4.9 9 j M M # X X X X X X ",
"o o o o o o o o ~ u u Y o o o o X 2.2.4.9 9 j M M # o o o o o o ",
"o o o o o o o o W #.#.L s s ` ^ ^ / / N 2 2 g e e 1 o o o o o o ",
"o o o o o o o o o -.-.p 1.1.<.k k * * % O.O.n ; ; o o o o o o o ",
"o o o o o o o o o -.-.p 1.1.<.k k * * % O.O.n ; ; o o o o o o o ",
"o o o o o o o o a { { y A A  .V V 6 6 P i i = o o o o o o o o o ",
"o o o o o o o o o h h $.@.@.6.+.+.d d 4 $ $ o o o o o o o o o o ",
"o o o o o o o o o h h $.@.@.6.+.+.d d 4 $ $ o o o o o o o o o o ",
"o o o o o o o o o o o o o o =.T T 0 0 < @ @ o o o o o o o o o o ",
"o o o o o o o o o o o o ] ] q B B ( ( 7 o o o o o o o o o o o o ",
"o o o o o o o o o o o o ] ] q B B ( ( 7 o o o o o o o o o o o o ",
"o o o o o o o o o o o o o o o X + o o o o o o o o o o o o o o o ",
"o o o o o o o o o o o o o o o X O o o o o o o o o o o o o o o o ",
"o o o o o o o o o o o o o o o X O o o o o o o o o o o o o o o o ",
"o o o o o o o o o o o o o o X X o o o o o o o o o o o o o o o o ",
"o o o o o o o o o o o o o X   . X o o o o o o o o o o o o o o o "
};
