/* XPM */
static char *result[] = {
/* columns rows colors chars-per-pixel */
"32 32 83 1 ",
"  c #262C2F",
". c #2F3438",
"X c #383E42",
"o c #42494F",
"O c #4F585E",
"+ c #715F7C",
"@ c #6B37FE",
"# c #6D34FF",
"$ c #6D37FE",
"% c #653EFD",
"& c #6D38FE",
"* c #6A3EFF",
"= c #6D3EFE",
"- c #763AFE",
"; c #723FFE",
": c #753CFE",
"> c #763EFF",
", c #7F3EFF",
"< c #6F40FE",
"1 c #6C46FE",
"2 c #6C4AFE",
"3 c #7143FE",
"4 c #7440FE",
"5 c #764CFD",
"6 c #7949FD",
"7 c #7948FE",
"8 c #7B48FE",
"9 c #7E49FF",
"0 c #7E4AFE",
"q c #7A4EFE",
"w c #7D4CFF",
"e c #7C4EFE",
"r c #7454FE",
"t c #755DFD",
"y c #785AFE",
"u c #7366FF",
"i c #7A65FD",
"p c #746BFD",
"a c #7A73FD",
"s c #853AFF",
"d c #8443FF",
"f c #8044FD",
"g c #8244FD",
"h c #8246FD",
"j c #8148FE",
"k c #804CFD",
"l c #824DFE",
"z c #804EFE",
"x c #864DFE",
"c c #844EFE",
"v c #8B4BFD",
"b c #894EFE",
"n c #8F4FFF",
"m c #8554FE",
"M c #8B54FD",
"N c #825AFF",
"B c #875EFF",
"V c #8E58FE",
"C c #9050FE",
"Z c #945AFD",
"A c #925DFE",
"S c #9C5EFE",
"D c #A35CFE",
"F c #8960FD",
"G c #8A62FD",
"H c #8E63FD",
"J c #8965FE",
"K c #806CFE",
"L c #9263FD",
"P c #9B65FE",
"I c #9D6DFE",
"U c #8979FE",
"Y c #887DFE",
"T c #AB61FF",
"R c #AA66FE",
"E c #A168FE",
"W c #A26FFE",
"Q c #AA71FE",
"! c #8080FE",
"~ c #8982FF",
"^ c #908BFF",
"/ c #AD9BFE",
"( c #B19DFF",
/* pixels */
".XXXXXXXXoXoXXXXXXXXXXXXXXXXXX. ",
"ooooooooooooooooooooooooooooooX.",
"oooooooooooooooooooooooooooooooX",
"oooooooooooooooooooooooooooooooX",
"oooooooooooooooooooooooooooooooX",
"oooooooooooooooooooooooooooooooX",
"ooooooooooooooNNBBJooooooooooooX",
"ooooooooooooooNNBBJooooooooooooX",
"oooooooottoCCS((QQEAAooooooooooX",
"ooooooopKKT^^2##&&:00qoooooooooX",
"ooooooopKKT^^2##&&:00qoooooooooX",
"oooooooYzzrooooooooPPo>>oooooooX",
"ooooGoo!ssoooooooooooFnnIooooooX",
"ooooGoo!ssoooooooooooFnnIooooooX",
"oooo6RR/ooooooooooooocggoLLoooXX",
"XoookVVUooooooooooooomoooooooX .",
"XXXXkVVUXXXXXooo.XXXXmXXXXXXXXXX",
"ooooZ77yooooooooX+oooboooooooooo",
"ooooZ77yoooooooo+ooooboooooooooo",
"oooo5<<3DDoooooo+oooovMMoooooooo",
"ooooo@@$ee~**ooo+ooWWo99oooooooo",
"ooooo@@$ee~**ooX+ooWWo99oooooooo",
"oooooooo--duuaffiiHooo88oooooooo",
"oooooooooo;wwj,,llxooooooooooooo",
"oooooooooo;wwj,,llxooooooooooooo",
"ooooooooooo11%==44hooooooooooooo",
"oooooooooooooooX+ooooooooooooooo",
"oooooooooooooooX+ooooooooooooooo",
"oooooooooooooooXOooooooooooooooo",
"oooooooooooooooXOooooooooooooooo",
"ooooooooooooooXXoooooooooooooooo",
"oooooooooooooX .Xooooooooooooooo"
};
