/* XPM */
static char *result[] = {
/* columns rows colors chars-per-pixel */
"32 32 117 2 ",
"   c #262C2F",
".  c #2F3438",
"X  c #383E42",
"o  c #42494F",
"O  c #4F585E",
"+  c #715F7C",
"@  c #6B37FE",
"#  c #6D37FE",
"$  c #653EFD",
"%  c #6F3AFE",
"&  c #6D3EFE",
"*  c #6F3FFF",
"=  c #7138FE",
"-  c #753BFE",
";  c #763AFE",
":  c #723FFE",
">  c #763CFE",
",  c #763EFF",
"<  c #7E3AFF",
"1  c #7F3EFF",
"2  c #6F40FE",
"3  c #6C46FE",
"4  c #7243FE",
"5  c #7440FE",
"6  c #764CFD",
"7  c #754CFF",
"8  c #7949FD",
"9  c #7948FE",
"0  c #7B48FE",
"q  c #7E49FF",
"w  c #7E4AFE",
"e  c #7A4EFE",
"r  c #7B4EFE",
"t  c #7D4CFF",
"y  c #7750FE",
"u  c #7956FF",
"i  c #755DFD",
"p  c #755FFF",
"a  c #7959FE",
"s  c #7362FF",
"d  c #7C63FE",
"f  c #746BFD",
"g  c #7A6BFE",
"h  c #7C74FF",
"j  c #853EFF",
"k  c #8041FF",
"l  c #8043FE",
"z  c #8244FD",
"x  c #8246FD",
"c  c #8046FF",
"v  c #8545FF",
"b  c #8A45FE",
"n  c #8148FE",
"m  c #8049FE",
"M  c #834BFE",
"N  c #804CFD",
"B  c #824CFE",
"V  c #824DFE",
"C  c #804FFE",
"Z  c #864DFE",
"A  c #8A4DFE",
"S  c #8C4CFD",
"D  c #8F4FFF",
"F  c #944DFF",
"G  c #8650FE",
"H  c #8652FE",
"J  c #8755FF",
"K  c #8C52FF",
"L  c #8B54FD",
"P  c #8F54FF",
"I  c #8358FF",
"U  c #825AFF",
"Y  c #8558FE",
"T  c #875EFF",
"R  c #8E58FE",
"E  c #9050FE",
"W  c #9052FF",
"Q  c #9157FE",
"!  c #9456FF",
"~  c #9D57FE",
"^  c #945AFD",
"/  c #915DFD",
"(  c #925DFE",
")  c #9C5EFE",
"_  c #A453FE",
"`  c #8960FD",
"'  c #8A62FD",
"]  c #8E63FD",
"[  c #8965FE",
"{  c #806CFE",
"}  c #9263FD",
"|  c #9763FE",
" . c #9B65FE",
".. c #9468FF",
"X. c #9D6DFE",
"o. c #8573FF",
"O. c #8B72FE",
"+. c #817CFE",
"@. c #887DFE",
"#. c #A060FF",
"$. c #A560FD",
"%. c #A265FD",
"&. c #A960FE",
"*. c #AA66FE",
"=. c #A168FE",
"-. c #A06BFE",
";. c #A272FE",
":. c #AA71FE",
">. c #738CFF",
",. c #818CFE",
"<. c #9185FF",
"1. c #9B85FD",
"2. c #AD80FE",
"3. c #AC8EFD",
"4. c #BC8BFD",
"5. c #AC94FE",
"6. c #B19DFF",
/* pixels */
". X X X X X X X X o X o X X X X X X X X X X X X X X X X X X .   ",
"o o o o o o o o o o o o o o o o o o o o o o o o o o o o o o X . ",
"o o o o o o o o o o o o o o o o o o o o o o o o o o o o o o o X ",
"o o o o o o o o o o o o o o o o o o o o o o o o o o o o o o o X ",
"o o o o o o o o o o o o o o o o o o o o o o o o o o o o o o o X ",
"o o o o o o o o o o o o o o o o o o o o o o o o o o o o o o o X ",
"o o o o o o o o o o o o o o U U T T [ o o o o o o o o o o o o X ",
"o o o o o o o o o o o o o o U U T T [ o o o o o o o o o o o o X ",
"o o o o o o o o i i o E E ) 6.6.:.:.=.( ( o o o o o o o o o o X ",
"o o o o o o o f { { &.<.<.y k k - - > w w e o o o o o o o o o X ",
"o o o o o o o f { { &.<.<.y k k - - > w w e o o o o o o o o o X ",
"o o o o o o o @.C C u Y Y Q ;.;.#.#.m  . .o , , o o o o o o o X ",
"o o o o ' o o +.b b ,.p p o o o j j ..o o ` D D X.o o o o o o X ",
"o o o o ' o o +.b b ,.p p o o o j j ..o o ` D D X.o o o o o o X ",
"o o o o 8 *.*.5.| | >._ _ o / / o o G 2.2.H z z o } } o o o X X ",
"X o o o N R R O.B B h ~ ~ o o o F F K ! ! J o o o o o o o X   . ",
"X X X X N R R O.B B h ~ ~ o o o F F K ! ! J X X X X X X X X X X ",
"o o o o ^ 9 9 a 7 7 = W W 1.o o X + M o o A o o o o o o o o o o ",
"o o o o ^ 9 9 a 7 7 = W W 1.o o + o M o o A o o o o o o o o o o ",
"o o o o 6 2 2 4 P P % < < 3.4.4.%.%.o $.$.S L L o o o o o o o o ",
"o o o o o @ @ # r r o.* * 9 c c I I o -.-.o q q o o o o o o o o ",
"o o o o o @ @ # r r o.* * 9 c c I I o -.-.o q q o o o o o o o o ",
"o o o o o o o o ; ; v s s g l l d d ] o o o 0 0 o o o o o o o o ",
"o o o o o o o o o o : t t n 1 1 V V Z o o o o o o o o o o o o o ",
"o o o o o o o o o o : t t n 1 1 V V Z o o o o o o o o o o o o o ",
"o o o o o o o o o o o 3 3 $ & & 5 5 x o o o o o o o o o o o o o ",
"o o o o o o o o o o o o o o o X + o o o o o o o o o o o o o o o ",
"o o o o o o o o o o o o o o o X + o o o o o o o o o o o o o o o ",
"o o o o o o o o o o o o o o o X O o o o o o o o o o o o o o o o ",
"o o o o o o o o o o o o o o o X O o o o o o o o o o o o o o o o ",
"o o o o o o o o o o o o o o X X o o o o o o o o o o o o o o o o ",
"o o o o o o o o o o o o o X   . X o o o o o o o o o o o o o o o "
};
