/* XPM */
static char *result[] = {
/* columns rows colors chars-per-pixel */
"32 32 199 2 ",
"   c #15182B",
".  c #222537",
"X  c #1A1F4B",
"o  c #222743",
"O  c #212645",
"+  c #252841",
"@  c #252A49",
"#  c #272C4F",
"$  c #2A2F55",
"%  c #22295E",
"&  c #2E3355",
"*  c #363B5B",
"=  c #343A5D",
"-  c #363B5C",
";  c #393E5F",
":  c #1F2F7C",
">  c #303662",
",  c #272F74",
"<  c #3E4676",
"1  c #404771",
"2  c #40487C",
"3  c #4B517E",
"4  c #505673",
"5  c #505776",
"6  c #213280",
"7  c #223281",
"8  c #233484",
"9  c #243484",
"0  c #243585",
"q  c #2D3D94",
"w  c #394397",
"e  c #30419A",
"r  c #3647A4",
"t  c #3B46A8",
"y  c #3B4CAC",
"u  c #3B4DAD",
"i  c #3D4EAF",
"p  c #3D4EB0",
"a  c #3F51B4",
"s  c #474E88",
"d  c #606895",
"f  c #4153B8",
"g  c #4253B8",
"h  c #4557BE",
"j  c #4658BF",
"k  c #5761A4",
"l  c #5761A5",
"z  c #5762A7",
"x  c #5E69B2",
"c  c #636CA4",
"v  c #4557C0",
"b  c #4658C0",
"n  c #4658C1",
"m  c #4759C1",
"M  c #485AC2",
"N  c #4B5CC4",
"B  c #4B5DC4",
"V  c #4C5DC5",
"C  c #4C5EC5",
"Z  c #4D5FC5",
"A  c #4E5FC6",
"S  c #4E60C6",
"D  c #4F60C7",
"F  c #5061C7",
"G  c #5162C8",
"H  c #5263C8",
"J  c #5263C9",
"K  c #5465CA",
"L  c #576BC9",
"P  c #5768CB",
"I  c #5768CC",
"U  c #586ACB",
"Y  c #586CCA",
"T  c #596CCA",
"R  c #596DCB",
"E  c #5869CD",
"W  c #5969CD",
"Q  c #5D70CE",
"!  c #5E70CF",
"~  c #5E71CF",
"^  c #5C6CD0",
"/  c #5D6DD1",
"(  c #5E6ED1",
")  c #5E6FD1",
"_  c #6D7ACF",
"`  c #6274D2",
"'  c #6375D2",
"]  c #6375D3",
"[  c #6476D1",
"{  c #6272D4",
"}  c #6373D4",
"|  c #6373D5",
" . c #6475D5",
".. c #6677D5",
"X. c #6779D5",
"o. c #6778D6",
"O. c #6F7CD2",
"+. c #6F7CD3",
"@. c #697AD7",
"#. c #6777D8",
"$. c #6877D8",
"%. c #6978D9",
"&. c #6A79D9",
"*. c #6A7AD8",
"=. c #6A7BD8",
"-. c #6A79DA",
";. c #6A7ADA",
":. c #6D7CDB",
">. c #6D7DDB",
",. c #6E7DDC",
"<. c #6E7DDD",
"1. c #707DD2",
"2. c #717FD7",
"3. c #727FD6",
"4. c #707FDE",
"5. c #707FDF",
"6. c #7380D8",
"7. c #7280DA",
"8. c #7384DB",
"9. c #7282DD",
"0. c #7281DE",
"q. c #7280DF",
"w. c #7281DF",
"e. c #7382DF",
"r. c #7788D8",
"t. c #798AD9",
"y. c #7D8ADE",
"u. c #7482E0",
"i. c #7483E0",
"p. c #7583E1",
"a. c #7584E1",
"s. c #7785E1",
"d. c #7685E2",
"f. c #7785E2",
"g. c #7785E3",
"h. c #7886E3",
"j. c #7987E3",
"k. c #7A87E3",
"l. c #7887E4",
"z. c #7987E4",
"x. c #7987E5",
"c. c #7B8AE1",
"v. c #7A88E3",
"b. c #7F8DE2",
"n. c #7988E5",
"m. c #7A88E4",
"M. c #7B89E4",
"N. c #7A88E6",
"B. c #7D8BE5",
"V. c #7F8EE4",
"C. c #7E8CE6",
"Z. c #7F8DE6",
"A. c #858EB8",
"S. c #8C95BE",
"D. c #8691D7",
"F. c #959FD2",
"G. c #A4AEDC",
"H. c #808DE2",
"J. c #808FE4",
"K. c #808DE6",
"L. c #818FE7",
"P. c #828FE7",
"I. c #8695E3",
"U. c #8796E2",
"Y. c #8492E4",
"T. c #8693E6",
"R. c #8693E7",
"E. c #8E9DE5",
"W. c #8F9DE5",
"Q. c #8491E8",
"!. c #8895EA",
"~. c #8896EA",
"^. c #8B98EB",
"/. c #8E9BE9",
"(. c #8B98EC",
"). c #8E9BED",
"_. c #8F9CED",
"`. c #919EE9",
"'. c #929FEA",
"]. c #909DED",
"[. c #919EEE",
"{. c #919FEE",
"}. c #98A7E6",
"|. c #92A0EE",
" X c #94A1EF",
".X c #96A3F0",
"XX c #97A4F0",
"oX c #98A5F0",
"OX c #9AA7F5",
"+X c #A1ADEC",
"@X c #AAB4E3",
"#X c #A3AFF0",
"$X c #A4B0F0",
"%X c #AAB6F1",
"&X c #ADB9F6",
"*X c #B5C0F1",
"=X c #B6C1F2",
"-X c #B7C3F4",
";X c #566C86",
/* pixels */
";X;X;X;X;X;X;X;X;X;X;X;X;X;X;X;X` ;X;X;X;X;X;X;X;X;X;X;X;X;X;X;X",
";X;X;X;X;X;X;X;X;X;X;X;X;X;X;X;X0.;X;X;X;X;X;X;X;X;X;X;X;X;X;X;X",
";X;X;X;X;X;X;X;X;X;X;X;X;X;X;X;X;X;X;X;X;X;X;X;X;X;X;X;X;X;X;X;X",
";X;X;X;X;X;X;X;X;X;X;X;X;X;X;X;X;X;X;X;X;X;X;X;X;X;X;X;X;X;X;X;X",
";X;X;X;X;X;X;X;X;X;X;X;X;X;X;X;X;X;X;X;X;X;X;X;X;X;X;X;X;X;X;X;X",
";X;X;X;X;X;X;X;X;X;X;X;X;X;X;X;XL ;X;X;X;X;X;X;X;X;X;X;X;X;X;X;X",
";X;X;X;X;X;X;X;X;X;X;X;X;X;X;X;X;X' ;X;X;X;X;X;X;X;X;X;X;X;X;X;X",
";X;X;X;X;X;X;X;X;X;X;X;X;X;X;X;X;Xo.h.;X;X;X;X;X;X;X;X;X;X;X;X;X",
";X;X;X;X;X;X;X;X;X;X;XL ;X;X;X;XY *.h.h.;X;X;X;X;X;X;X;X;X;X;X;X",
";X;X;X;X;X;X;X;X;X;X;XL ;X;X;XL ..d.h.h.;X;X;X;X;X;X;X;X;X;X;X;X",
";X;X;X;X;X;X;X;X;X;XL ~ ;X;X..R >.z.h.h.h.;X;XL ;X;X;X;X;X;X;X;X",
";X;X;X;X;X;X;X;X;X;X` i.;Xh.i.] i.h.h.h.h.z. .U ;X;X;X;X;X;X;X;X",
";X;X;X;X;X;X;X;X;XT X.c.j.h.d.=.e.h.h.h.h.z.| P ;X;X;X;X;X;X;X;X",
";X;X;X;X;X;X;X;X;XQ 8.b.j.h.h.a.j.j.h.h.h.h.w.! r.;X;X;XT.;X;X;X",
";X;X;X;X;X;X;X;X[ 9.k.h.m.P.M.M.!.M.B.C.g.h.j.@.t.;X;X;X;X;X;X;X",
";X;X;X;X;X;X;X;XU.J.v.z.~. X[.{.].K._.^.L.K.Q.f.I.}.;X;X;X;X;X;X",
";X;X;X;X;X;X;XE.Y.j.h.B. XXXoX.X X|.XX.X.X).Z.h.V.W.;X;X;X;X;X;X",
";X;X;X;X;X;X;Xj.h.h.s.H.`.+X%X#X#X%X$X'.'./.m.h.h.M.;X;X;X;X;X;X",
";X;X;X;X;X;X;Xh.h.x.x = * 5 G.=X*X=XA.; - 1 3.l.g.4.;X;X;X;X;X;X",
";X;X;X;X;X;X;X&.4.N.l   % 3 4 @X-XS.> s . @ +.z.$.S ;X;X;X;X;X;X",
";X;X;X;X;X;X;XN E g.2.< , w + F.&Xd X t $ k f.z./ v ;X;X;X;X;X;X",
";X;X;X;X;X;X;Xb H i.x.6.2 O & D.OXc o # z p.h.,.H ;X;X;X;X;X;X;X",
";X;X;X;X;X;X;Xj M ^ u.<.7._ 1.R.(.y._ O.s.{ %.G h ;X;X;X;X;X;X;X",
";X;X;X;X;X;X;X;Xp M J K p.n.#.:.z.-.5.x.#.A Z i ;X;X;X;X;X;X;X;X",
";X;X;X;X;X;X;X;X0 u n B ) ;.K } q.I W ( C m y 0 ;X;X;X;X;X;X;X;X",
";X;X;X;X;X;X;X;X;X8 u m m V M F D M m m m u 8 ;X;X;X;X;X;X;X;X;X",
";X;X;X;X;X;X;X;X;X;X9 q r g g f f g g a e 8 ;X;X;X;X;X;X;X;X;X;X",
";X;X;X;X;X;X;X;X;X;X;X;X: 7 6 6 6 6 7 8 ;X;X;X;X;X;X;X;X;X;X;X;X",
";X;X;X;X;X;X;X;X;X;X;X;X;X;X;X;X;X;X;X;X;X;X;X;X;X;X;X;X;X;X;X;X",
";X;X;X;X;X;X;X;X;X;X;X;X;X;X;X;X;X;X;X;X;X;X;X;X;X;X;X;X;X;X;X;X",
";X;X;X;X;X;X;X;X;X;X;X;X;X;X;X;X;X;X;X;X;X;X;X;X;X;X;X;X;X;X;X;X",
";X;X;X;X;X;X;X;X;X;X;X;X;X;X;X;X;X;X;X;X;X;X;X;X;X;X;X;X;X;X;X;X"
};
