/* XPM */
static char *result[] = {
/* columns rows colors chars-per-pixel */
"32 32 181 2 ",
"   c #1E2239",
".  c #292E4F",
"X  c #2E3148",
"o  c #212751",
"O  c #2A2F57",
"+  c #303450",
"@  c #1F2F7C",
"#  c #282F66",
"$  c #262D70",
"%  c #41487B",
"&  c #444C7D",
"*  c #213280",
"=  c #223281",
"-  c #233383",
";  c #233484",
":  c #243485",
">  c #243585",
",  c #253586",
"<  c #2D3D94",
"1  c #31429B",
"2  c #3A449C",
"3  c #3546A3",
"4  c #3B46A9",
"5  c #3A4BAB",
"6  c #3A4CAB",
"7  c #3C4DAE",
"8  c #3C4EAF",
"9  c #3F51B1",
"0  c #464E86",
"q  c #535B9A",
"w  c #535D9E",
"e  c #61699E",
"r  c #535EA2",
"t  c #545EA3",
"y  c #4051B4",
"u  c #4253B4",
"i  c #4153B8",
"p  c #4253B8",
"a  c #4254B8",
"s  c #5862A7",
"d  c #5C67AF",
"f  c #5E69B3",
"g  c #6C75A8",
"h  c #6973AD",
"j  c #727BAC",
"k  c #4759C1",
"l  c #4759C2",
"z  c #485AC1",
"x  c #485AC2",
"c  c #4A5CC4",
"v  c #4C5DC5",
"b  c #4D5EC5",
"n  c #4D5FC5",
"m  c #4E60C6",
"M  c #4F60C7",
"N  c #5062C6",
"B  c #5162C7",
"V  c #5263C9",
"C  c #5364C9",
"Z  c #5667CB",
"A  c #566AC8",
"S  c #566AC9",
"D  c #5868CD",
"F  c #5969CD",
"G  c #5A6BCE",
"H  c #5E70CE",
"J  c #5E6ED1",
"K  c #6F7AC4",
"L  c #727EC3",
"P  c #6171D3",
"I  c #6372D4",
"U  c #6373D4",
"Y  c #6574D5",
"T  c #6677D5",
"R  c #6678D5",
"E  c #6778D6",
"W  c #687BD1",
"Q  c #6E7BD0",
"!  c #6A7DD2",
"~  c #6879D6",
"^  c #697AD7",
"/  c #6A7BD7",
"(  c #6877D8",
")  c #6A7AD8",
"_  c #6B7BD9",
"`  c #6A7ADA",
"'  c #6C7CDA",
"]  c #6D7CDB",
"[  c #6F7DDD",
"{  c #6F7EDD",
"}  c #717ED6",
"|  c #707EDD",
" . c #707FDE",
".. c #717FDE",
"X. c #7A84C5",
"o. c #7B86C4",
"O. c #7284D5",
"+. c #7485D7",
"@. c #7280D8",
"#. c #7080DD",
"$. c #7181DE",
"%. c #7583DE",
"&. c #7888DB",
"*. c #7888DF",
"=. c #7C8ADF",
"-. c #7482E0",
";. c #7483E1",
":. c #7583E1",
">. c #7684E0",
",. c #7785E1",
"<. c #7684E2",
"1. c #7785E2",
"2. c #7785E3",
"3. c #7786E2",
"4. c #7786E3",
"5. c #7885E2",
"6. c #7886E3",
"7. c #7987E3",
"8. c #7886E4",
"9. c #7987E4",
"0. c #7A88E3",
"q. c #7D8BE3",
"w. c #7F8CE1",
"e. c #7E8EE0",
"r. c #7A88E4",
"t. c #7B89E4",
"y. c #7988E6",
"u. c #7A88E6",
"i. c #7A88E7",
"p. c #7D8AE5",
"a. c #7D8BE5",
"s. c #7F8EE4",
"d. c #7E8CE6",
"f. c #8A93BA",
"g. c #848EC7",
"h. c #939DCE",
"j. c #828ED0",
"k. c #96A0D4",
"l. c #808EE4",
"z. c #808DE6",
"x. c #818EE7",
"c. c #818FE7",
"v. c #8392E4",
"b. c #8492E4",
"n. c #8694E4",
"m. c #8895E7",
"M. c #8E9DE5",
"N. c #8491E8",
"B. c #8693E9",
"V. c #8492EA",
"C. c #8997EA",
"Z. c #8B98EB",
"A. c #8B99EB",
"S. c #8C99EC",
"D. c #8C9AEC",
"F. c #8E9BED",
"G. c #919EEE",
"H. c #929FEE",
"J. c #93A2E6",
"K. c #95A3E6",
"L. c #97A6E6",
"P. c #96A3EF",
"I. c #96A3F0",
"U. c #97A4F0",
"Y. c #97A4F2",
"T. c #98A5F0",
"R. c #99A6F3",
"E. c #9AA7F5",
"W. c #AEB9E9",
"Q. c #A3AFF1",
"!. c #A4B0F1",
"~. c #A5B1F1",
"^. c #A5B1F2",
"/. c #A9B5F1",
"(. c #AAB6F1",
"). c #ADB9F5",
"_. c #B4BFF0",
"`. c #B5C0F0",
"'. c #B5C0F1",
"]. c #B6C1F2",
"[. c #566C86",
/* pixels */
"[.[.[.[.[.[.[.[.[.[.[.[.[.[.[.[.[.[.[.[.[.[.[.[.[.[.[.[.[.[.[.[.",
"[.[.[.[.[.[.[.[.[.[.[.[.[.[.[.[.[.[.[.[.[.[.[.[.[.[.[.[.[.[.[.[.",
"[.[.[.[.[.[.[.[.[.[.[.[.[.[.[.[.[.[.[.[.[.[.[.[.[.[.[.[.[.[.[.[.",
"[.[.[.[.[.[.[.[.[.[.[.[.[.[.[.[.[.[.[.[.[.[.[.[.[.[.[.[.[.[.[.[.",
"[.[.[.[.[.[.[.[.[.[.[.[.[.6.[.[.[.[.[.[.[.[.[.[.[.[.[.[.[.[.[.[.",
"[.[.[.[.[.[.[.[.[.[.[.[.[.6.[.[.[.[.[.[.[.[.[.[.[.[.[.[.[.[.[.[.",
"[.[.[.[.[.[.[.[.[.[.[.[.) 6.[.[.[.[.[.[.[.[.[.[.[.[.[.[.[.[.[.[.",
"[.[.[.[.[.[.[.[.[.[.[.[.R 6.6.[.[.[.[.[.[.[.[.[.[.[.[.[.[.[.[.[.",
"[.[.[.[.[.[.[.[.[.[.[.[.^ 6.6.[.[.[.[.[.[.[.[.[.[.[.[.[.[.[.[.[.",
"[.[.[.[.[.[.[.[.[.[.[.[.[.6.6.[.[.[.[._ [.[.[.[.[.[.[.[.[.[.[.[.",
"[.[.[.[.[.[.[.[.[.[.[.[.[.6.6.6.[.[.[.~ [.[.[.[.[.[.[.[.[.[.[.[.",
"[.[.[.[.[.[.[.[.[.[.[.[.n.6.6.6.[.[.H $.6.[.[.[.[.[.[.[.[.[.[.[.",
"[.[.[.[.[.[.[.[.[.! [.K.v.6.6.6.[.[.T 1.6.[.[.[.[.[.[.[.[.[.[.[.",
"[.[.[.[.[.[.[.[.S +.J.b.7.N.9.6.' ~ 3.t.6._ O.L.[.[.[.[.[.[.[.[.",
"[.[.[.[.[.[.[.[.S / l.6.7.A.x.2.#.:.z.B.6.E &.[.[.[.[.[.[.[.[.[.",
"[.[.[.[.[.[.[.[.A ^ 6.6.a.G.S.d.r.c.F.H.p.;.v.[.[.[.[.[.[.[.[.[.",
"[.[.[.[.[.[.[.[.W *.6.r.F.U.T.H.D.P.U.I.C.r.q.M.[.[.[.[.[.[.[.[.",
"[.[.[.[.[.[.[.[.e.0.8.V.Y.^.(.Q.!./.~.R.Y.V.2.l.J.[.[.[.[.[.[.[.",
"[.[.[.[.[.[.[.n.0.8.} L o.h.`.'.'.].W.g.X.K %.0.s.[.[.[.[.[.[.[.",
"[.[.[.[.[.[.[.7.6.y.d   # e f._.].W.g q X . Q 9.6.[.[.[.[.[.[.[.",
"[.[.[.[.[.[.[.6.6.9.@.% $ 2 + k.).j o 4 O w ,.6.6.[.[.[.[.[.[.[.",
"[.[.[.[.[.[.[.:.1.:.4.@.s r & j.E.h 0 t f 5.9.1.:.[.[.[.[.[.[.[.",
"[.[.[.[.[.[.[.N I U | 9.u.u.=.m.Z.w.>.i.u.[ -.Y B [.[.[.[.[.[.[.",
"[.[.[.[.[.[.[.[.9 n G { 6.7.;.<.7.-.P .. .D V u [.[.[.[.[.[.[.[.",
"[.[.[.[.[.[.[.[.; 5 x b J ` F ] ( Z z C m x 7 , [.[.[.[.[.[.[.[.",
"[.[.[.[.[.[.[.[.[.- 6 k k v x M c k l k k 8 > [.[.[.[.[.[.[.[.[.",
"[.[.[.[.[.[.[.[.[.[.- < 3 i p i p a p y 1 : [.[.[.[.[.[.[.[.[.[.",
"[.[.[.[.[.[.[.[.[.[.[.[.@ = * * * * = ; [.[.[.[.[.[.[.[.[.[.[.[.",
"[.[.[.[.[.[.[.[.[.[.[.[.[.[.[.[.[.[.[.[.[.[.[.[.[.[.[.[.[.[.[.[.",
"[.[.[.[.[.[.[.[.[.[.[.[.[.[.[.[.[.[.[.[.[.[.[.[.[.[.[.[.[.[.[.[.",
"[.[.[.[.[.[.[.[.[.[.[.[.[.[.[.[.[.[.[.[.[.[.[.[.[.[.[.[.[.[.[.[.",
"[.[.[.[.[.[.[.[.[.[.[.[.[.[.[.[.[.[.[.[.[.[.[.[.[.[.[.[.[.[.[.[."
};
