/* XPM */
static char *result[] = {
/* columns rows colors chars-per-pixel */
"32 32 189 2 ",
"   c #1F2F7C",
".  c #383F6D",
"X  c #3D4471",
"o  c #213280",
"O  c #223281",
"+  c #233383",
"@  c #233484",
"#  c #243484",
"$  c #243585",
"%  c #253586",
"&  c #2D3D94",
"*  c #30419A",
"=  c #3647A4",
"-  c #3B4CAC",
";  c #3B4DAD",
":  c #3C4DAE",
">  c #3D4EAF",
",  c #3D4EB0",
"<  c #3F51B4",
"1  c #434B80",
"2  c #4E5683",
"3  c #555FA1",
"4  c #4153B8",
"5  c #4253B8",
"6  c #4254B8",
"7  c #4557BE",
"8  c #4658BF",
"9  c #5660A2",
"0  c #5761A2",
"q  c #5761A3",
"w  c #5761A5",
"e  c #5F69AD",
"r  c #5F6AB4",
"t  c #606AAC",
"y  c #606AAD",
"u  c #606BB6",
"i  c #6F79B4",
"p  c #4759C1",
"a  c #485AC2",
"s  c #495BC2",
"d  c #495BC3",
"f  c #4A5BC3",
"g  c #4B5DC4",
"h  c #4D5FC6",
"j  c #4E5FC6",
"k  c #4E60C6",
"l  c #4F60C7",
"z  c #5061C7",
"x  c #5162C8",
"c  c #5263C9",
"v  c #5364CA",
"b  c #5465CA",
"n  c #566AC9",
"m  c #576BC9",
"M  c #5768CC",
"N  c #5B6BCF",
"B  c #5A6ECC",
"V  c #5B6ECC",
"C  c #5D70CE",
"Z  c #5C6CD0",
"A  c #5F72D0",
"S  c #6672C1",
"D  c #6174CD",
"F  c #757FC1",
"G  c #6072D0",
"H  c #6073D0",
"J  c #6173D1",
"K  c #6174D1",
"L  c #6375D3",
"P  c #6476D3",
"I  c #6373D4",
"U  c #6473D5",
"Y  c #6576D4",
"T  c #6677D5",
"R  c #6675D6",
"E  c #6777D7",
"W  c #6979D7",
"Q  c #6C7ED4",
"!  c #6979D9",
"~  c #6A79D9",
"^  c #6A79DA",
"/  c #6B7ADA",
"(  c #6C7BDB",
")  c #6B7CD9",
"_  c #6C7CD9",
"`  c #6D7DD9",
"'  c #6D7DDA",
"]  c #6D7CDB",
"[  c #6E7EDB",
"{  c #6E7DDC",
"}  c #6F7EDC",
"|  c #707DD4",
" . c #727FD7",
".. c #707FDE",
"X. c #707FDF",
"o. c #7781BA",
"O. c #7A86CE",
"+. c #7280D9",
"@. c #7383DB",
"#. c #7180DE",
"$. c #7281DE",
"%. c #7382DF",
"&. c #7F8BDB",
"*. c #7D8EDA",
"=. c #7482E0",
"-. c #7483E0",
";. c #7583E1",
":. c #7584E1",
">. c #7784E0",
",. c #7786E0",
"<. c #7584E2",
"1. c #7685E2",
"2. c #7785E2",
"3. c #7785E3",
"4. c #7786E2",
"5. c #7886E3",
"6. c #7987E3",
"7. c #7887E4",
"8. c #7987E4",
"9. c #7887E5",
"0. c #7987E5",
"q. c #7987E6",
"w. c #7B8AE0",
"e. c #7A88E3",
"r. c #7B89E3",
"t. c #7D8BE3",
"y. c #7E8DE2",
"u. c #7F8DE3",
"i. c #7A88E4",
"p. c #7B89E4",
"a. c #7C8AE5",
"s. c #7D8BE5",
"d. c #7E8CE4",
"f. c #7F8DE4",
"g. c #7E8CE6",
"h. c #7D8BE8",
"j. c #848FD2",
"k. c #818EE7",
"l. c #818FE7",
"z. c #8190E2",
"x. c #8696E0",
"c. c #8594E4",
"v. c #8695E4",
"b. c #8795E4",
"n. c #8E9AE5",
"m. c #8391E9",
"M. c #8491E8",
"N. c #8693E9",
"B. c #8694E9",
"V. c #8895EA",
"C. c #8996EA",
"Z. c #8996EB",
"A. c #8A97EA",
"S. c #8A97EB",
"D. c #8896EC",
"F. c #8B98EC",
"G. c #8D9BEC",
"H. c #8D9BED",
"J. c #8E9CED",
"K. c #8F9CED",
"L. c #929FEE",
"P. c #91A0E5",
"I. c #95A4E6",
"U. c #93A0EB",
"Y. c #94A1EF",
"T. c #95A2EF",
"R. c #95A2F0",
"E. c #96A3F1",
"W. c #97A4F0",
"Q. c #97A4F1",
"!. c #98A5F0",
"~. c #98A6F2",
"^. c #9EABF0",
"/. c #9CA9F4",
"(. c #A3AFE8",
"). c #A2AFF0",
"_. c #A3AFF1",
"`. c #A4B0F0",
"'. c #A4B0F1",
"]. c #A5B1F3",
"[. c #A9B5F1",
"{. c #AAB6F1",
"}. c #AAB6F2",
"|. c #AEBAF4",
" X c #B2BDF1",
".X c #B2BEF2",
"XX c #B5C0F1",
"oX c #B6C1F1",
"OX c #566C86",
/* pixels */
"OXOXOXOXOXOXOXOXOXOXOXOXOXOXOXOXOXOXOXOXOXOXOXOXOXOXOXOXOXOXOXOX",
"OXOXOXOXOXOXOXOXOXOXOXOXOXOXOXOXOXOXOXOXOXOXOXOXOXOXOXOXOXOXOXOX",
"OXOXOXOXOXOXOXOXOXOXOXOXOXOXOXOXOXOXOXOXOXOXOXOXOXOXOXOXOXOXOXOX",
"OXOXOXOXOXOXOXOXOXOXOXOXOXOXOXOXOXOXOXOXOXOXOXOXOXOXOXOXOXOXOXOX",
"OXOXOXOXOXOXOXOXOXOXOXOXOXOXL OXOXOXOXOXOXOXOXOXOXOXOXOXOXOXOXOX",
"OXOXOXOXOXOXOXOXOXOXOXOXOXOXOXOXOXOXOXOXOXOXOXOXOXOXOXOXOXOXOXOX",
"OXOXOXOXOXOXOXOXOXOXOXOXOXOXOXOXW OXOXOXOXOXOXOXOXOXOXOXOXOXOXOX",
"OXOXOXOXOXOXOXOXOXOXOXOXOXOXOXJ $.5.OXOXOXOXOXOXOXOXOXOXOXOXOXOX",
"OXOXOXOXOXOXOXOXOXOXOXOXOXOXJ #.5.5.OXOXOXOXOXOXOXOXOXOXOXOXOXOX",
"OXOXOXOXOXOXOXOXOXOXOXOXOXK #.5.5.5.OXOXOX5.OXOXOXOXOXOXOXOXOXOX",
"OXOXOXOXOXOXOXOXOXOXm P T #.5.5.5.5.OXOX) 5.OXOXOXOXOXOXOXOXOXOX",
"OXOXOXOXOXOXOXOXOXOXG ,.u.5.5.5.5.OXOXC %.5.OXOXOXOXOXOXOXOXOXOX",
"OXOXOXOXOXOXOXOXOXOXH w.r.5.5.5.5.OXB [ 5.5.OXOXOXOXOXOXOXOXOXOX",
"OXOXOXOXOXOXOXOXOXA @.y.p.8.5.5._ V Y 2.5.1.OXr.OXOXOXOXOXOXOXOX",
"OXOXOXOXOXOXOXOXn ` i.5.B.V.6.2.T ' 4.i.5.[ } f.I.OXOXOXOXOXOXOX",
"OXOXOXOXOXOXOXOXQ z.e.a.L.R.C.g.:.a.N.K.k.;.3.t.P.OXOXOXOXOXOXOX",
"OXOXOXOXOXOXOXD x.d.5.s.Y.W.!.L.F.L.W.W.G.i.5.5.b.P.OXOXOXOXOXOX",
"OXOXOXOXOXOXOX*.v.5.5.M.R.`.[._.'.{.`.W.T.l.5.5.e.e.OXOXOXOXOXOX",
"OXOXOXOXOXOXOXc.e.5.8.H.Q.).XXXXXXoX X^.E.m.5.5.5.5.OXOXOXOXOXOX",
"OXOXOXOXOXOXOX6.5.0.S F U./.|.oXXX.X].J.&.e +.7.5.5.OXOXOXOXOXOX",
"OXOXOXOXOXOXOX..5.0.u X 2 i o.(.}.j.y 0 . 1  .;.#.5.OXOXOXOXOXOX",
"OXOXOXOXOXOXOXv R ( 5.| w q t n.~.O.9 3 r >.6.! v OXOXOXOXOXOXOX",
"OXOXOXOXOXOXOX8 s U 8.<.X.h.D.S.A.Z.h.q.9.{ ( x 7 OXOXOXOXOXOXOX",
"OXOXOXOXOXOXOXOX, c / E c ..8.-.I ;.^ ~ ] k h > OXOXOXOXOXOXOXOX",
"OXOXOXOXOXOXOXOX% : f d d / =.N g Z j b M p - $ OXOXOXOXOXOXOXOX",
"OXOXOXOXOXOXOXOXOX@ ; p a l z a p p p p p - + OXOXOXOXOXOXOXOXOX",
"OXOXOXOXOXOXOXOXOXOX# & = 4 4 5 6 6 5 < * + OXOXOXOXOXOXOXOXOXOX",
"OXOXOXOXOXOXOXOXOXOXOXOX  O o o o o O @ OXOXOXOXOXOXOXOXOXOXOXOX",
"OXOXOXOXOXOXOXOXOXOXOXOXOXOXOXOXOXOXOXOXOXOXOXOXOXOXOXOXOXOXOXOX",
"OXOXOXOXOXOXOXOXOXOXOXOXOXOXOXOXOXOXOXOXOXOXOXOXOXOXOXOXOXOXOXOX",
"OXOXOXOXOXOXOXOXOXOXOXOXOXOXOXOXOXOXOXOXOXOXOXOXOXOXOXOXOXOXOXOX",
"OXOXOXOXOXOXOXOXOXOXOXOXOXOXOXOXOXOXOXOXOXOXOXOXOXOXOXOXOXOXOXOX"
};
