/* XPM */
static char *_1ddd0e65f2f4f69e49018d30375ac7cCij3w6kFraoKVjzu[] = {
/* columns rows colors chars-per-pixel */
"32 32 185 2 ",
"   c #566C86",
".  c #16192B",
"X  c #242639",
"o  c #1A1F4A",
"O  c #222744",
"+  c #222645",
"@  c #242840",
"#  c #242947",
"$  c #262B4E",
"%  c #2A2F56",
"&  c #21285B",
"*  c #303555",
"=  c #363B5B",
"-  c #353B5C",
";  c #353A5E",
":  c #1F2F7C",
">  c #313762",
",  c #393F60",
"<  c #262E72",
"1  c #3C426E",
"2  c #404778",
"3  c #41497E",
"4  c #4B517F",
"5  c #505572",
"6  c #505675",
"7  c #213280",
"8  c #223281",
"9  c #233383",
"0  c #233484",
"q  c #243484",
"w  c #243485",
"e  c #243586",
"r  c #2D3D94",
"t  c #31429B",
"y  c #3A4398",
"u  c #3647A3",
"i  c #3B46A8",
"p  c #3B4CAC",
"a  c #3B4CAD",
"s  c #3B4DAD",
"d  c #3C4DAD",
"f  c #3F51B4",
"g  c #474E88",
"h  c #626A98",
"j  c #555FA2",
"k  c #4051B1",
"l  c #4152B3",
"z  c #4153B8",
"x  c #4253B8",
"c  c #4254B8",
"v  c #5661A5",
"b  c #5862A7",
"n  c #5F6AB3",
"m  c #656EA6",
"M  c #4759C1",
"N  c #4759C2",
"B  c #485AC1",
"V  c #485AC2",
"C  c #4A5CC4",
"Z  c #4C5DC5",
"A  c #4D5FC5",
"S  c #4D5FC6",
"D  c #4E5FC6",
"F  c #4F60C7",
"G  c #5061C6",
"H  c #5162C6",
"J  c #5263C9",
"K  c #5364CA",
"L  c #5566CB",
"P  c #566AC8",
"I  c #576BC9",
"U  c #5768CC",
"Y  c #5869CD",
"T  c #5B6BCF",
"R  c #5E71CF",
"E  c #5E6FD1",
"W  c #6D7ACF",
"Q  c #6171D4",
"!  c #6272D4",
"~  c #6373D4",
"^  c #6473D5",
"/  c #6677D5",
"(  c #6777D7",
")  c #6778D5",
"_  c #687BD1",
"`  c #6E7BD1",
"'  c #6A7DD2",
"]  c #6F7CD1",
"[  c #6879D7",
"{  c #697AD7",
"}  c #6A7AD8",
"|  c #6A7BD8",
" . c #6A7ADA",
".. c #6B7CD8",
"X. c #6C7CD9",
"o. c #6E7CDC",
"O. c #6F7DDD",
"+. c #707DD4",
"@. c #727FD7",
"#. c #707EDD",
"$. c #707FDE",
"%. c #7385D5",
"&. c #7784D5",
"*. c #7380D9",
"=. c #7586D8",
"-. c #7080DD",
";. c #7281DE",
":. c #7482DC",
">. c #7989DB",
",. c #7988DF",
"<. c #7E8BDF",
"1. c #7281E0",
"2. c #7382E0",
"3. c #7483E0",
"4. c #7483E1",
"5. c #7583E1",
"6. c #7785E1",
"7. c #7685E2",
"8. c #7785E2",
"9. c #7785E3",
"0. c #7886E2",
"q. c #7886E3",
"w. c #7987E3",
"e. c #7886E4",
"r. c #7987E4",
"t. c #7987E5",
"y. c #7A88E3",
"u. c #7E8DE0",
"i. c #7F8CE2",
"p. c #7A88E4",
"a. c #7B89E4",
"s. c #7B89E5",
"d. c #7A88E6",
"f. c #7D8BE4",
"g. c #7C8AE5",
"h. c #7D8BE5",
"j. c #7E8CE6",
"k. c #8790B9",
"l. c #8E97C0",
"z. c #8691D6",
"x. c #949ED1",
"c. c #A4AEDB",
"v. c #808DE2",
"b. c #808EE4",
"n. c #808EE6",
"m. c #808EE7",
"M. c #818FE7",
"N. c #8391E4",
"B. c #8492E4",
"V. c #8493E4",
"C. c #8694E4",
"Z. c #8F9EE5",
"A. c #8491E8",
"S. c #8593E9",
"D. c #8895E8",
"F. c #8996EB",
"G. c #8B98EB",
"H. c #8B99EB",
"J. c #8C99EC",
"K. c #8C9AEC",
"L. c #8E9CED",
"P. c #8F9CED",
"I. c #919EE9",
"U. c #939FEA",
"Y. c #919FEE",
"T. c #929FEE",
"R. c #93A2E6",
"E. c #94A3E6",
"W. c #97A6E6",
"Q. c #96A3EF",
"!. c #96A3F0",
"~. c #97A4F0",
"^. c #98A4F0",
"/. c #9AA7F5",
"(. c #A1ADEC",
"). c #A9B4E2",
"_. c #A3AFF1",
"`. c #A4B0F0",
"'. c #A4B0F1",
"]. c #AAB5F1",
"[. c #AAB6F1",
"{. c #ADB9F6",
"}. c #B5C0F1",
"|. c #B6C1F2",
" X c #B7C3F4",
/* pixels */
"                                                                ",
"                                                                ",
"                                                                ",
"                                                                ",
"                          q.                                    ",
"                          q.                                    ",
"                        ..9.                                    ",
"                        ) q.q.                                  ",
"                        { q.q.                                  ",
"                          q.q.        ..                        ",
"                          q.q.q.      {                         ",
"                        C.q.q.q.    R ;.r.                      ",
"                  '   E.N.q.9.q.    ) 9.9.                      ",
"                I =.R.B.r.A.p.9.X.} q.p.9.} %.W.                ",
"                I ..b.q.r.J.b.9.-.2.b.A.p.) >.                  ",
"                I { q.q.h.Y.J.j.p.A.J.!.p.2.C.                  ",
"                _ ,.q.h.P.^.^.Y.J.!.!.!.F.p.h.Z.                ",
"                <.q.q.b.I.(.[.'.'.[._.R.I.i.9.b.E.              ",
"              C.y.p.m > - 6 c.}.}.|.k., - 1 +.y.b.              ",
"              q.r.p.b . & g 5 ).|.l.> g X # ] q.q.              ",
"              r.r.r.+.2 < y @ x.{.h o i % j 9.q.q.              ",
"              3.9.3.r.:.3 O * z./.m O $ v 9.q.9.3.              ",
"              H Q Q $.r.;.` &.D.J.i.` ` 9.O.3.^ H               ",
"                l D T $.9.p.2.9.r.2.Q ;.$.U J l                 ",
"                e p B D E } U O.( L B J D B a e                 ",
"                  9 a M M Z V F C M M M B a e                   ",
"                    0 r u x x x x x x l t e                     ",
"                        : 7 7 7 7 7 7 e                         ",
"                                                                ",
"                                                                ",
"                                                                ",
"                                                                "
};
