/* XPM */
static char *result[] = {
/* columns rows colors chars-per-pixel */
"32 32 200 2 ",
"   c #171B39",
".  c #1C2036",
"X  c #1F2237",
"o  c #1E223C",
"O  c #1F233C",
"+  c #20243D",
"@  c #1B2151",
"#  c #262A42",
"$  c #292D46",
"%  c #272C4C",
"&  c #2F344E",
"*  c #333753",
"=  c #333755",
"-  c #31375F",
";  c #1F2F7C",
":  c #212863",
">  c #282E63",
",  c #242B6E",
"<  c #333A6A",
"1  c #283077",
"2  c #3B4271",
"3  c #3C4473",
"4  c #404778",
"5  c #213280",
"6  c #223281",
"7  c #233383",
"8  c #233484",
"9  c #243484",
"0  c #243485",
"q  c #253586",
"w  c #2D3D94",
"e  c #31429B",
"r  c #3647A3",
"t  c #3B4CAC",
"y  c #3B4DAD",
"u  c #3C4DAE",
"i  c #3C4EAF",
"p  c #3D4EB0",
"a  c #3F51B4",
"s  c #444C80",
"d  c #5E6799",
"f  c #626A98",
"g  c #4F5AA1",
"h  c #4153B8",
"j  c #4253B8",
"k  c #4254B8",
"l  c #4557BE",
"z  c #4658BF",
"x  c #5762A6",
"c  c #5862A6",
"v  c #5760A9",
"b  c #5762BD",
"n  c #606BB6",
"m  c #6974B8",
"M  c #4759C1",
"N  c #4759C2",
"B  c #485AC2",
"V  c #495BC2",
"C  c #495BC3",
"Z  c #4A5BC3",
"A  c #4B5DC4",
"S  c #4D5FC6",
"D  c #4E60C6",
"F  c #4F60C6",
"G  c #5061C7",
"H  c #5162C8",
"J  c #5263C9",
"K  c #5364C9",
"L  c #5465CA",
"P  c #566AC9",
"I  c #576BC9",
"U  c #5A6ECB",
"Y  c #5868CD",
"T  c #5B6BCF",
"R  c #5B6ECC",
"E  c #5C6CCF",
"W  c #5D70CD",
"Q  c #5F71D0",
"!  c #6875C6",
"~  c #6A76C7",
"^  c #6E7AC5",
"/  c #6073CD",
"(  c #737EC3",
")  c #6072D0",
"_  c #6073D0",
"`  c #6173D1",
"'  c #6375D3",
"]  c #6476D3",
"[  c #6272D4",
"{  c #6373D4",
"}  c #6576D4",
"|  c #6677D5",
" . c #6575D6",
".. c #6678D5",
"X. c #6E7BD0",
"o. c #6879D6",
"O. c #6B7DD4",
"+. c #6877D8",
"@. c #6A79D9",
"#. c #6B7BD8",
"$. c #6A79DA",
"%. c #6B7ADA",
"&. c #6B7ADB",
"*. c #6C7BDB",
"=. c #6C7CD9",
"-. c #6C7DDA",
";. c #6D7DDB",
":. c #6E7EDB",
">. c #6E7DDD",
",. c #6F7EDC",
"<. c #6F7EDE",
"1. c #717ED5",
"2. c #727FD7",
"3. c #707FDE",
"4. c #7D86B9",
"5. c #7A85C5",
"6. c #7383DB",
"7. c #7180DD",
"8. c #7180DE",
"9. c #7281DE",
"0. c #7382DF",
"q. c #7583DF",
"w. c #7E8BD9",
"e. c #7C8DDA",
"r. c #7482E0",
"t. c #7483E1",
"y. c #7583E1",
"u. c #7584E1",
"i. c #7685E0",
"p. c #7584E2",
"a. c #7785E2",
"s. c #7785E3",
"d. c #7786E2",
"f. c #7886E3",
"g. c #7987E3",
"h. c #7886E4",
"j. c #7987E4",
"k. c #7987E5",
"l. c #7A87E4",
"z. c #7B8AE0",
"x. c #7A88E3",
"c. c #7B89E3",
"v. c #7C8BE3",
"b. c #7E8DE2",
"n. c #7F8DE3",
"m. c #7A88E4",
"M. c #7B89E4",
"N. c #7A88E6",
"B. c #7C8AE4",
"V. c #7C8AE5",
"C. c #7D8AE5",
"Z. c #7F8DE4",
"A. c #7E8CE6",
"S. c #818CC5",
"D. c #8E97C1",
"F. c #828ED1",
"G. c #8B96D0",
"H. c #9AA4D2",
"J. c #98A2D8",
"K. c #818FE7",
"L. c #8190E2",
"P. c #8595E0",
"I. c #8694E4",
"U. c #8694E5",
"Y. c #8796E4",
"T. c #8391E9",
"R. c #8593E9",
"E. c #8693E9",
"W. c #8593EA",
"Q. c #8896EA",
"!. c #8996EA",
"~. c #8B98EC",
"^. c #8E9BED",
"/. c #8C99EE",
"(. c #8F9DED",
"). c #919EED",
"_. c #919EEE",
"`. c #929FEE",
"'. c #91A0E5",
"]. c #95A4E6",
"[. c #93A1EF",
"{. c #95A2F0",
"}. c #97A4F0",
"|. c #97A4F2",
" X c #98A5F0",
".X c #99A6F3",
"XX c #9AA8F6",
"oX c #A3AFF1",
"OX c #A4B0F1",
"+X c #A5B1F2",
"@X c #A6B2F2",
"#X c #AAB5F1",
"$X c #ADB9F6",
"%X c #B2BDF1",
"&X c #B3BEF0",
"*X c #B5C0F0",
"=X c #B5C0F1",
"-X c #B6C1F1",
";X c #B7C2F3",
":X c #566C86",
/* pixels */
":X:X:X:X:X:X:X:X:X:X:X:X:X:X:X:X:X:X:X:X:X:X:X:X:X:X:X:X:X:X:X:X",
":X:X:X:X:X:X:X:X:X:X:X:X:X:X:X:X:X:X:X:X:X:X:X:X:X:X:X:X:X:X:X:X",
":X:X:X:X:X:X:X:X:X:X:X:X:X:X:X:X:X:X:X:X:X:X:X:X:X:X:X:X:X:X:X:X",
":X:X:X:X:X:X:X:X:X:X:X:X:X:X:X:X:X:X:X:X:X:X:X:X:X:X:X:X:X:X:X:X",
":X:X:X:X:X:X:X:X:X:X:X:X:X:X' :X:X:X:X:X:X:X:X:X:X:X:X:X:X:X:X:X",
":X:X:X:X:X:X:X:X:X:X:X:X:X:X:X:X:X:X:X:X:X:X:X:X:X:X:X:X:X:X:X:X",
":X:X:X:X:X:X:X:X:X:X:X:X:X:X:X:Xo.:X:X:X:X:X:X:X:X:X:X:X:X:X:X:X",
":X:X:X:X:X:X:X:X:X:X:X:X:X:X:X` 9.f.:X:X:X:X:X:X:X:X:X:X:X:X:X:X",
":X:X:X:X:X:X:X:X:X:X:X:X:X:X` 7.f.f.:X:X:X:X:X:X:X:X:X:X:X:X:X:X",
":X:X:X:X:X:X:X:X:X:X:X:X:X` 7.f.f.f.:X:X:Xf.:X:X:X:X:X:X:X:X:X:X",
":X:X:X:X:X:X:X:X:X:XI ] | 7.f.f.f.f.:X:X#.f.:X:X:X:X:X:X:X:X:X:X",
":X:X:X:X:X:X:X:X:X:X) i.n.f.f.f.f.:X:XW 0.f.:X:X:X:X:X:X:X:X:X:X",
":X:X:X:X:X:X:X:X:X:X_ z.c.f.f.f.f.:XU ;.f.f.f.:X:X:X:X:X:X:X:X:X",
":X:X:X:X:X:X:X:X:XQ 6.b.M.l.f.f.-.R } a.f.a.:Xx.:X:X:X:X:X:X:X:X",
":X:X:X:X:X:X:X:XP =.m.f.E.Q.j.s...-.d.m.f.:.,.Z.].:X:X:X:X:X:X:X",
":X:X:X:X:X:X:X:XO.L.x.V._.{.!.A.u.B.R.(.K.u.s.v.'.:X:X:X:X:X:X:X",
":X:X:X:X:X:X:X/ P.Z.f.C.[.}. X`.~.).}.}.^.m.f.f.I.'.:X:X:X:X:X:X",
":X:X:X:X:X:X:Xe.Y.f.h.W.|.+X#XoXOX#X@X.X|.T.f.f.x.x.:X:X:X:X:X:X",
":X:X:X:X:X:X:XU.x.h.1.( 5.G.%X-X=X*XH.S.5.^ q.f.f.f.:X:X:X:X:X:X",
":X:X:X:X:X:X:Xg.f.N.x . o = 4.&X;XD.& # X % X.j.f.f.:X:X:X:X:X:X",
":X:X:X:X:X:X:X3.f.k.n O 1 v * J.$Xf @ b $ - 2.p.8.f.:X:X:X:X:X:X",
":X:X:X:X:X:X:XK  .*.f.c > : + F.XXd   , < ~ j.@.K :X:X:X:X:X:X:X",
":X:X:X:X:X:X:Xz V [ l.y.g 2 s w./.m 3 4 ! <.*.H l :X:X:X:X:X:X:X",
":X:X:X:X:X:X:X:Xi H %.+.J 3.j.t.{ y.&.$.>.F S p :X:X:X:X:X:X:X:X",
":X:X:X:X:X:X:X:X0 t Z C V @.r.T A E D L Y N y q :X:X:X:X:X:X:X:X",
":X:X:X:X:X:X:X:X:X7 t M B D G B M M M M M u 9 :X:X:X:X:X:X:X:X:X",
":X:X:X:X:X:X:X:X:X:X8 w r h h j k k j a e 9 :X:X:X:X:X:X:X:X:X:X",
":X:X:X:X:X:X:X:X:X:X:X:X; 6 5 5 5 5 6 8 :X:X:X:X:X:X:X:X:X:X:X:X",
":X:X:X:X:X:X:X:X:X:X:X:X:X:X:X:X:X:X:X:X:X:X:X:X:X:X:X:X:X:X:X:X",
":X:X:X:X:X:X:X:X:X:X:X:X:X:X:X:X:X:X:X:X:X:X:X:X:X:X:X:X:X:X:X:X",
":X:X:X:X:X:X:X:X:X:X:X:X:X:X:X:X:X:X:X:X:X:X:X:X:X:X:X:X:X:X:X:X",
":X:X:X:X:X:X:X:X:X:X:X:X:X:X:X:X:X:X:X:X:X:X:X:X:X:X:X:X:X:X:X:X"
};
