/* XPM */
static char *result[] = {
/* columns rows colors chars-per-pixel */
"32 32 214 2 ",
"   c #232843",
".  c #262B4E",
"X  c #292E4C",
"o  c #2C3256",
"O  c #1F2F7B",
"+  c #3E4467",
"@  c #213280",
"#  c #223281",
"$  c #233382",
"%  c #233383",
"&  c #243484",
"*  c #243586",
"=  c #253586",
"-  c #263688",
";  c #343D83",
":  c #2D3D93",
">  c #36408D",
",  c #38428C",
"<  c #32439C",
"1  c #3546A1",
"2  c #394BA9",
"3  c #3A4BAA",
"4  c #3B4DAD",
"5  c #3C4EB0",
"6  c #3D4FB0",
"7  c #3E50B2",
"8  c #465099",
"9  c #4D579B",
"0  c #575F93",
"q  c #5A6294",
"w  c #4051B5",
"e  c #4153B7",
"r  c #4153B8",
"t  c #4253B8",
"y  c #4254B8",
"u  c #4658BF",
"i  c #666FA6",
"p  c #626CAD",
"a  c #626DB8",
"s  c #636FBC",
"d  c #6974B8",
"f  c #4759C1",
"g  c #485AC2",
"h  c #495BC3",
"j  c #4B5CC4",
"k  c #4B5DC4",
"l  c #4C5EC5",
"z  c #4E5FC6",
"x  c #4F61C7",
"c  c #5061C7",
"v  c #5162C8",
"b  c #5263C9",
"n  c #5364C9",
"m  c #5566CB",
"M  c #5666CB",
"N  c #566AC8",
"B  c #576BC9",
"V  c #5768CC",
"C  c #596CCA",
"Z  c #596DCA",
"A  c #596DCB",
"S  c #596ACE",
"D  c #5C6FCD",
"F  c #5C6CCF",
"G  c #5D70CD",
"H  c #5E71CF",
"J  c #5F72CF",
"K  c #5F72D0",
"L  c #6873C0",
"P  c #6975C6",
"I  c #6E79C0",
"U  c #6C78C7",
"Y  c #6072D0",
"T  c #6073D0",
"R  c #6173D1",
"E  c #6070D2",
"W  c #6274D1",
"Q  c #6375D3",
"!  c #6677D5",
"~  c #6575D6",
"^  c #6675D6",
"/  c #6776D7",
"(  c #6777D7",
")  c #6F7CD2",
"_  c #6B79D5",
"`  c #6879D6",
"'  c #697AD7",
"]  c #6A7BD7",
"[  c #6877D8",
"{  c #6978D8",
"}  c #6979D9",
"|  c #6B7BD9",
" . c #6B7ADA",
".. c #6C7CD9",
"X. c #6D7DDA",
"o. c #6D7CDB",
"O. c #6E7EDB",
"+. c #6E7DDC",
"@. c #6E7DDD",
"#. c #6F7EDC",
"$. c #6F7FDC",
"%. c #727FD6",
"&. c #707FDC",
"*. c #707EDD",
"=. c #707DE7",
"-. c #7680BA",
";. c #7D88C9",
":. c #7683D2",
">. c #7884D2",
",. c #7A86D2",
"<. c #7282DB",
"1. c #7585DB",
"2. c #7181DC",
"3. c #7080DD",
"4. c #7383DD",
"5. c #7180DE",
"6. c #7281DE",
"7. c #7282DE",
"8. c #7382DF",
"9. c #7483DF",
"0. c #7686DD",
"q. c #7788D9",
"w. c #7888DC",
"e. c #7989DF",
"r. c #7482E0",
"t. c #7583E0",
"y. c #7583E1",
"u. c #7584E1",
"i. c #7684E1",
"p. c #7685E1",
"a. c #7785E1",
"s. c #7684E2",
"d. c #7685E2",
"f. c #7785E2",
"g. c #7785E3",
"h. c #7685E4",
"j. c #7886E3",
"k. c #7987E3",
"l. c #7886E4",
"z. c #7987E4",
"x. c #7987E5",
"c. c #7A88E3",
"v. c #7B89E3",
"b. c #7C8AE3",
"n. c #7D8BE3",
"m. c #7F8DE2",
"M. c #7E8CE3",
"N. c #7988E5",
"B. c #7A88E4",
"V. c #7B89E4",
"C. c #7A88E5",
"Z. c #7C89E5",
"A. c #7D89E7",
"S. c #7F8DE4",
"D. c #7F8DE6",
"F. c #818CCD",
"G. c #8794DD",
"H. c #8F9AD9",
"J. c #808EE4",
"K. c #8290E7",
"L. c #8492E4",
"P. c #8493E4",
"I. c #8795E5",
"U. c #8997E5",
"Y. c #8998E3",
"T. c #8A98E5",
"R. c #8C9BE5",
"E. c #8F9DE5",
"W. c #8F9EE4",
"Q. c #8290E8",
"!. c #8391E8",
"~. c #8492E8",
"^. c #8592E9",
"/. c #8997EA",
"(. c #8A97EB",
"). c #8997EC",
"_. c #8B98EC",
"`. c #8C9AEE",
"'. c #8F9CED",
"]. c #8F9DED",
"[. c #8E9CEE",
"{. c #919EED",
"}. c #909DEE",
"|. c #929FEF",
" X c #91A0E6",
".X c #96A5E5",
"XX c #9FABE4",
"oX c #93A0EF",
"OX c #94A1EF",
"+X c #95A2F0",
"@X c #96A3F0",
"#X c #97A4F0",
"$X c #97A4F1",
"%X c #98A5F0",
"&X c #99A6F2",
"*X c #9FABF0",
"=X c #9FABF1",
"-X c #9BA8F6",
";X c #A2AEF0",
":X c #A3AFF0",
">X c #A3AFF1",
",X c #A2AEF3",
"<X c #A4B0F1",
"1X c #A5B1F1",
"2X c #A9B5F1",
"3X c #AAB6F1",
"4X c #ABB7F2",
"5X c #AAB6F4",
"6X c #B1BCF1",
"7X c #B3BEF2",
"8X c #B4BFF1",
"9X c #B4BFF2",
"0X c #B5C0F1",
"qX c #566C86",
/* pixels */
"qXqXqXqXqXqXqXqXqXqXqXqXqXqXqXqXqXqXqXqXqXqXqXqXqXqXqXqXqXqXqXqX",
"qXqXqXqXqXqXqXqXqXqXqXqXqXqXqXqXqXqXqXqXqXqXqXqXqXqXqXqXqXqXqXqX",
"qXqXqXqXqXqXqXqXqXqXqXqXqXQ qXqXqXqXqXqXqXqXqXqXqXqXqXqXqXqXqXqX",
"qXqXqXqXqXqXqXqXqXqXqXqXqXqXqXqXqXqXqXqXqXqXqXqXqXqXqXqXqXqXqXqX",
"qXqXqXqXqXqXqXqXqXqXqXqXqXqXqXqXqXqXqXqXqXqXqXqXqXqXqXqXqXqXqXqX",
"qXqXqXqXqXqXqXqXqXqXqXqXqXqXqXqXqXqXqXqXqXqXqXqXqXqXqXqXqXqXqXqX",
"qXqXqXqXqXqXqXqXqXqXqXqXqXqXqXqXqXqXqXqXqXqXqXqXqXqXqXqXqXqXqXqX",
"qXqXqXqXqXqXqXqXqXqXqXqXqXqXqXqXD 6.qXqXqXqXqXqXqXqXqXqXqXqXqXqX",
"qXqXqXqXqXqXqXqXqXqXqXqXqXqXqXqXK t.j.qXqXqXqXqXqXqXqXqXqXqXqXqX",
"qXqXqXqXqXqXqXqXqXqXqXB qXqXqXJ 5.j.j.qXqXqXR qXqXqXqXqXqXqXqXqX",
"qXqXqXqXqXqXqXqXqXqXqXZ R Y ..t.j.j.j.3.qXY 8.qXqXqXqXqXqXqXqXqX",
"qXqXqXqXqXqXqXqXqXqXA ] 1.T i.j.j.j.j.' ' 8.j.j.qXqXqXqXqXqXqXqX",
"qXqXqXqXqXqXqXqXqXN G e.4.W u.j.j.d.X.#.j.j.j.g.qXqXqXqXqXqXqXqX",
"qXqXqXqXqXqXqXqXC K <.m.V.7.&.j.5.Q ! s.j.g.O.9.M.qXqXqXqXqXqXqX",
"qXqXqXqXqXqXqXN H p.k.j.~./.k.j.` | f.B.j.$.O.n.W.w.qXqXqXqXqXqX",
"qXqXqXqXqXqXqXD 0.L.v.V.}.@X(.D.i.V.^.].Q.u.f.b.P.I.qXqXqXqXqXqX",
"qXqXqXqXqX.XD 2.R.S.j.Z.oX#X%X|._.{.#X@X'.V.j.j.J.E.qXqXqXqXqXqX",
"qXqXqXqXqXqXq.Y.U.k.j.K.OX;X3X>X<X2X1X#X+X!.g.j.c.c.qXqXqXqXqXqX",
"qXqXqXqXqXqX XT.c.j.C.[.$X*X6X0X0X0X8X:X$X).z.j.j.j.qXqXqXqXqXqX",
"qXqXqXqXqXqX8.o.j.x.U q G.&X,X7X0X9X5X=XF.0 %.l.f.{ qXqXqXqXqXqX",
"qXqXqXqXqXqXqXV r.N.s   , A.-.XX4XH.L =.+ o ) z.*.n qXqXqXqXqXqX",
"qXqXqXqXqXqXqXg ( z.j.a 8 ; X ;.-Xi . > 9 P +.^ m qXqXqXqXqXqXqX",
"qXqXqXqXqXqXqXqXx  .+.h._ >.p ,.`.I d :.a.x.~ h u qXqXqXqXqXqXqX",
"qXqXqXqXqXqXqXqX4 l M [ b @.z.j.j./ @.C.s.E c 7 qXqXqXqXqXqXqXqX",
"qXqXqXqXqXqXqXqX% 2 g h g ( u.y.~ k F } S h 5 - qXqXqXqXqXqXqXqX",
"qXqXqXqXqXqXqXqXqX# 3 f f z v v j f h k f 6 = qXqXqXqXqXqXqXqXqX",
"qXqXqXqXqXqXqXqXqXqX$ : 1 e r r t y t w < * qXqXqXqXqXqXqXqXqXqX",
"qXqXqXqXqXqXqXqXqXqXqXqXO # @ @ @ @ # & qXqXqXqXqXqXqXqXqXqXqXqX",
"qXqXqXqXqXqXqXqXqXqXqXqXqXqXqXqXqXqXqXqXqXqXqXqXqXqXqXqXqXqXqXqX",
"qXqXqXqXqXqXqXqXqXqXqXqXqXqXqXqXqXqXqXqXqXqXqXqXqXqXqXqXqXqXqXqX",
"qXqXqXqXqXqXqXqXqXqXqXqXqXqXqXqXqXqXqXqXqXqXqXqXqXqXqXqXqXqXqXqX",
"qXqXqXqXqXqXqXqXqXqXqXqXqXqXqXqXqXqXqXqXqXqXqXqXqXqXqXqXqXqXqXqX"
};
