/* XPM */
static char *result[] = {
/* columns rows colors chars-per-pixel */
"32 32 200 2 ",
"   c #16192B",
".  c #242639",
"X  c #1A1F4A",
"o  c #222744",
"O  c #222645",
"+  c #242840",
"@  c #242847",
"#  c #262B4E",
"$  c #2A2F56",
"%  c #21285B",
"&  c #2E3354",
"*  c #363B5B",
"=  c #353B5C",
"-  c #353A5E",
";  c #1F2F7C",
":  c #313762",
">  c #393F60",
",  c #262E72",
"<  c #3F4670",
"1  c #404778",
"2  c #41497E",
"3  c #4B517F",
"4  c #505572",
"5  c #505675",
"6  c #213280",
"7  c #223281",
"8  c #233383",
"9  c #233484",
"0  c #243484",
"q  c #243485",
"w  c #253586",
"e  c #2D3D94",
"r  c #31429B",
"t  c #3A4398",
"y  c #3647A3",
"u  c #3B46A8",
"i  c #3B4CAC",
"p  c #3B4DAD",
"a  c #3C4DAE",
"s  c #3C4EAF",
"d  c #3D4EB0",
"f  c #3F51B4",
"g  c #474E88",
"h  c #626A98",
"j  c #4153B8",
"k  c #4253B8",
"l  c #4557BE",
"z  c #4658BF",
"x  c #5660A2",
"c  c #5661A5",
"v  c #5862A7",
"b  c #5F6AB3",
"n  c #656EA6",
"m  c #4557C0",
"M  c #4658C0",
"N  c #4658C1",
"B  c #4759C1",
"V  c #485AC1",
"C  c #485AC2",
"Z  c #4B5CC4",
"A  c #4C5DC5",
"S  c #4C5EC5",
"D  c #4D5FC6",
"F  c #4E60C6",
"G  c #4F61C7",
"H  c #5162C8",
"J  c #5263C9",
"K  c #5264C9",
"L  c #5364CA",
"P  c #5465CA",
"I  c #576BC9",
"U  c #5668CB",
"Y  c #5768CC",
"T  c #586ACB",
"R  c #586CCA",
"E  c #596CCA",
"W  c #596DCB",
"Q  c #5969CD",
"!  c #5B6CCF",
"~  c #5D70CE",
"^  c #5E71CE",
"/  c #5E70CF",
"(  c #5E6ED1",
")  c #5F6FD1",
"_  c #6D7ACF",
"`  c #6274D2",
"'  c #6375D2",
"]  c #6375D3",
"[  c #6476D1",
"{  c #6272D4",
"}  c #6474D5",
"|  c #6575D5",
" . c #6576D4",
".. c #6678D5",
"X. c #6778D5",
"o. c #6E7BD1",
"O. c #6F7CD1",
"+. c #697AD7",
"@. c #6777D8",
"#. c #6877D8",
"$. c #6978D9",
"%. c #6979D9",
"&. c #6A79D9",
"*. c #6A7BD8",
"=. c #6B7ADA",
"-. c #6D7DDA",
";. c #6D7CDB",
":. c #6E7DDC",
">. c #6E7DDD",
",. c #707DD2",
"<. c #717ED5",
"1. c #727FD7",
"2. c #707FDD",
"3. c #707FDE",
"4. c #7380D9",
"5. c #7280DA",
"6. c #7383DB",
"7. c #7586D8",
"8. c #7281DD",
"9. c #7281DE",
"0. c #7280DF",
"q. c #7281DF",
"w. c #7382DF",
"e. c #7483DF",
"r. c #7889D8",
"t. c #7D8ADF",
"y. c #7482E0",
"u. c #7483E0",
"i. c #7583E1",
"p. c #7584E1",
"a. c #7785E1",
"s. c #7685E2",
"d. c #7785E2",
"f. c #7785E3",
"g. c #7987E2",
"h. c #7886E3",
"j. c #7987E3",
"k. c #7A87E3",
"l. c #7887E4",
"z. c #7987E4",
"x. c #7987E5",
"c. c #7A87E4",
"v. c #7B8AE1",
"b. c #7988E3",
"n. c #7A89E3",
"m. c #7F8DE2",
"M. c #7B88E4",
"N. c #7B89E4",
"B. c #7A88E5",
"V. c #7A88E6",
"C. c #7D8BE5",
"Z. c #7F8DE4",
"A. c #7F8CE6",
"S. c #7F8DE6",
"D. c #8790B9",
"F. c #8E97C0",
"G. c #8591D5",
"H. c #949ED1",
"J. c #A4AEDB",
"K. c #808FE4",
"L. c #808DE6",
"P. c #818FE7",
"I. c #828FE7",
"U. c #8594E3",
"Y. c #8796E2",
"T. c #8493E4",
"R. c #8693E6",
"E. c #8693E7",
"W. c #8E9DE5",
"Q. c #8F9DE5",
"!. c #8491E8",
"~. c #8795EA",
"^. c #8896EA",
"/. c #8B99EB",
"(. c #8E9BE9",
"). c #8B98EC",
"_. c #8E9CED",
"`. c #919DE9",
"'. c #929FEA",
"]. c #939FEA",
"[. c #909DED",
"{. c #919EEE",
"}. c #929FEE",
"|. c #98A7E6",
" X c #94A1EF",
".X c #96A3F0",
"XX c #97A4F0",
"oX c #98A5F0",
"OX c #9AA7F5",
"+X c #A1ADEC",
"@X c #A9B4E2",
"#X c #A3AFF0",
"$X c #A4B0F0",
"%X c #AAB5F1",
"&X c #AAB6F1",
"*X c #ADB9F6",
"=X c #B5C0F1",
"-X c #B6C1F2",
";X c #B7C3F4",
":X c #566C86",
/* pixels */
":X:X:X:X:X:X:X:X:X:X:X:X:X:X:X:X` :X:X:X:X:X:X:X:X:X:X:X:X:X:X:X",
":X:X:X:X:X:X:X:X:X:X:X:X:X:X:X:X9.:X:X:X:X:X:X:X:X:X:X:X:X:X:X:X",
":X:X:X:X:X:X:X:X:X:X:X:X:X:X:X:X:X:X:X:X:X:X:X:X:X:X:X:X:X:X:X:X",
":X:X:X:X:X:X:X:X:X:X:X:X:X:X:X:X:X:X:X:X:X:X:X:X:X:X:X:X:X:X:X:X",
":X:X:X:X:X:X:X:X:X:X:X:X:X:X:X:X:X:X:X:X:X:X:X:X:X:X:X:X:X:X:X:X",
":X:X:X:X:X:X:X:X:X:X:X:X:X:X:X:XI :X:X:X:X:X:X:X:X:X:X:X:X:X:X:X",
":X:X:X:X:X:X:X:X:X:X:X:X:X:X:X:X:X' :X:X:X:X:X:X:X:X:X:X:X:X:X:X",
":X:X:X:X:X:X:X:X:X:X:X:X:X:X:X:X:X..h.:X:X:X:X:X:X:X:X:X:X:X:X:X",
":X:X:X:X:X:X:X:X:X:X:XI :X:X:X:XR +.h.h.:X:X:X:X:X:X:X:X:X:X:X:X",
":X:X:X:X:X:X:X:X:X:X:XI :X:X:XI  .s.h.h.:X:X:X:X:X:X:X:X:X:X:X:X",
":X:X:X:X:X:X:X:X:X:XI ^ :X:X..W -.z.h.h.h.:X:XI :X:X:X:X:X:X:X:X",
":X:X:X:X:X:X:X:X:X:X` y.:Xh.u.] u.h.h.h.h.z.| T :X:X:X:X:X:X:X:X",
":X:X:X:X:X:X:X:X:XE X.v.j.h.s.*.w.h.h.h.h.z.} U e.:X:X:X:X:X:X:X",
":X:X:X:X:X:X:X:X:X~ 6.m.j.h.h.p.g.j.h.h.h.h.q./ 7.:X:X:XR.:X:X:X",
":X:X:X:X:X:X:X:X[ 8.k.h.c.I.N.N.~.N.C.A.f.h.z.+.r.:X:X:X:X:X:X:X",
":X:X:X:X:X:X:X:XY.K.n.z.^. X{.{.[.L._./.P.S.!.d.U.|.:X:X:X:X:X:X",
":X:X:X:X:X:X:XW.T.j.h.C. XXXoX.X X}.XX.X.X_.S.h.Z.Q.:X:X:X:X:X:X",
":X:X:X:X:X:X:Xb.h.h.a.m.`.+X&X#X#X%X$X].'.(.M.h.h.N.:X:X:X:X:X:X",
":X:X:X:X:X:X:Xh.h.x.b - * 5 J.-X=X-XD.> = < <.l.f.3.:X:X:X:X:X:X",
":X:X:X:X:X:X:X&.2.V.v   % 3 4 @X;XF.: g . @ o.z.$.F :X:X:X:X:X:X",
":X:X:X:X:X:X:XZ Y f.1.1 , t + H.*Xh X u $ x a.z.) m :X:X:X:X:X:X",
":X:X:X:X:X:X:XM H y.x.4.2 O & G.OXn o # c i.h.:.K :X:X:X:X:X:X:X",
":X:X:X:X:X:X:Xz V ! y.>.5._ ,.E.).t._ O.a.{ %.H l :X:X:X:X:X:X:X",
":X:X:X:X:X:X:X:Xs C J L i.B.@.;.z.=.3.x.#.F D d :X:X:X:X:X:X:X:X",
":X:X:X:X:X:X:X:Xq i N Z ( =.P { 0.Y Q ( S B p w :X:X:X:X:X:X:X:X",
":X:X:X:X:X:X:X:X:X8 p B B A C G G C B B B a 0 :X:X:X:X:X:X:X:X:X",
":X:X:X:X:X:X:X:X:X:X9 e y k k j j k k f r 0 :X:X:X:X:X:X:X:X:X:X",
":X:X:X:X:X:X:X:X:X:X:X:X; 7 6 6 6 6 7 9 :X:X:X:X:X:X:X:X:X:X:X:X",
":X:X:X:X:X:X:X:X:X:X:X:X:X:X:X:X:X:X:X:X:X:X:X:X:X:X:X:X:X:X:X:X",
":X:X:X:X:X:X:X:X:X:X:X:X:X:X:X:X:X:X:X:X:X:X:X:X:X:X:X:X:X:X:X:X",
":X:X:X:X:X:X:X:X:X:X:X:X:X:X:X:X:X:X:X:X:X:X:X:X:X:X:X:X:X:X:X:X",
":X:X:X:X:X:X:X:X:X:X:X:X:X:X:X:X:X:X:X:X:X:X:X:X:X:X:X:X:X:X:X:X"
};
