/* XPM */
static char *result[] = {
/* columns rows colors chars-per-pixel */
"32 32 38 1 ",
"  c #0C1128",
". c #0C1228",
"X c #0D1228",
"o c #262C2F",
"O c #2F3438",
"+ c #383E42",
"@ c #08287A",
"# c #3A4360",
"$ c #42494F",
"% c #4F585E",
"& c #3B59C5",
"* c #3C58C5",
"= c #3C59C5",
"- c #4762CC",
"; c #4A65CD",
": c #4B6ACD",
"> c #4C6ACD",
", c #4C6BCD",
"< c #526BD3",
"1 c #506FD0",
"2 c #516CD2",
"3 c #566FD5",
"4 c #5371D2",
"5 c #6E83E3",
"6 c #7287E7",
"7 c #788DE7",
"8 c #7E94E8",
"9 c #859AE8",
"0 c #8BA1E8",
"q c #92A8E8",
"w c #92A8E9",
"e c #8DA1F1",
"r c #92A5F3",
"t c #96A8F3",
"y c #9AACF4",
"u c #B2C1F3",
"i c #C6CEF4",
"p c #DAE0F3",
/* pixels */
"O++++++++$+$++++++++++++++++++Oo",
"$$$$$$$$$$$$$,$$$$$$$$$$$$$$$$+O",
"$$$$$$$$$$$$$4$$$$$>$$$$$$$$$$$+",
"$$$$$$$$$$$$$$$$$$$$$$$$$$$$$$$+",
"$$$$$$$$$$$$$$$$$$$$$$$$$$$$$$$+",
"$$$$$$$$$$$$$$$$$$$$$$$$$$$$$$$+",
"$$$$$$$$w$$$$$$$,$$$$$$$$$$$$$$+",
"$$$$$$$$$$$$$$$$:6$$$$$$$$$$$$$+",
"$$$$$$$$$$$$$$$$,66$$$,$$$$$$$$+",
"$$$$$$$w$$$,,$,,666$$,,$$$$$$$$+",
"$$$$$$$w$$$,,$66666$$,6$$$$$$$$+",
"$$$$$$$$$$,6w,6666616666$$$$$$$+",
"$$$$$$$$$,,66,6666656666$$$$$$$+",
"$$$$$$$$,,6666666,,66666$$$$$$$+",
"$$$$$$$>,6666e66,5666156q5$$$$++",
"+$$$$$$:6w66rr66666r666686$$$+oO",
"++++ww,6w666rrrrrrrrr6669w+w++++",
"$$$$$$,7w666rrrrrrrrr66666$w$$$$",
"$$$$$$w0666rrruuuuutr66666$$$$$$",
"$$$$$$62666. .yuuu# ..666;$$$$$$",
"$$$$$$$-666XXpXuurXiXX666=$$$$$$",
"$$$$$$$&6666XXXrrrXXX666&$$$$$$$",
"$$$$$$$$=6666XXrrrXX666=$$$$$$$$",
"$$$$$$$$===6=66666666===$$$$$$$$",
"$$$$$$$$@&&&*666<&<3<&&@$$$$$$$$",
"$$$$$$$$$@============@$$$$$$$$$",
"$$$$$$$$$$@@@=======@@$$$$$$$$$$",
"$$$$$$$$$$$@@@@@@@@@@$$$$$$$$$$$",
"$$$$$$$$$$$$$$$+%$$$$$$$$$$$$$$$",
"$$$$$$$$$$$$$$$+%$$$$$$$$$$$$$$$",
"$$$$$$$$$$$$$$++$$$$$$$$$$$$$$$$",
"$$$$$$$$$$$$$+oO+$$$$$$$$$$$$$$$"
};
