/* XPM */
static char *result[] = {
/* columns rows colors chars-per-pixel */
"32 32 176 2 ",
"   c #262A45",
".  c #2B3053",
"X  c #1F2F7C",
"o  c #313767",
"O  c #383F71",
"+  c #3E4461",
"@  c #4B527F",
"#  c #50577E",
"$  c #213280",
"%  c #223281",
"&  c #233383",
"*  c #233484",
"=  c #243484",
"-  c #243485",
";  c #253586",
":  c #323C8A",
">  c #2D3D94",
",  c #31429B",
"<  c #3647A3",
"1  c #3F4AAE",
"2  c #3B4CAC",
"3  c #3B4DAD",
"4  c #3C4DAD",
"5  c #3D4EB0",
"6  c #3F51B4",
"7  c #444C81",
"8  c #51598B",
"9  c #404AA0",
"0  c #4051B1",
"q  c #4153B8",
"w  c #4253B8",
"e  c #4254B8",
"r  c #5660A3",
"t  c #5E68A6",
"y  c #5A64AB",
"u  c #5E69AC",
"i  c #5B65B2",
"p  c #6670A9",
"a  c #6F78A9",
"s  c #4759C1",
"d  c #485AC2",
"f  c #4A5CC3",
"g  c #4B5DC4",
"h  c #4C5EC5",
"j  c #4D5FC5",
"k  c #4E60C6",
"l  c #4F60C6",
"z  c #5061C6",
"x  c #5263C7",
"c  c #5667CC",
"v  c #576BC9",
"b  c #5869CD",
"n  c #5A6ACE",
"m  c #5D71CD",
"M  c #5F72CC",
"N  c #5E6ED1",
"B  c #5F6FD1",
"V  c #6874C5",
"C  c #6F7AC5",
"Z  c #6375D2",
"A  c #6375D3",
"S  c #6476D3",
"D  c #6272D4",
"F  c #6373D4",
"G  c #6576D4",
"H  c #6676D7",
"J  c #6776D7",
"K  c #6F7CD2",
"L  c #6979D9",
"P  c #697AD8",
"I  c #6A7BD8",
"U  c #6C7CD9",
"Y  c #6D7DDB",
"T  c #6E7EDB",
"R  c #6F7EDB",
"E  c #6F7FDB",
"W  c #6F7EDC",
"Q  c #707ED5",
"!  c #707ED6",
"~  c #727FD7",
"^  c #707EDD",
"/  c #707FDD",
"(  c #7783CA",
")  c #6F81D5",
"_  c #7283D9",
"`  c #7280DF",
"'  c #7583DE",
"]  c #7989DB",
"[  c #7482E0",
"{  c #7483E0",
"}  c #7583E1",
"|  c #7584E1",
" . c #7785E1",
".. c #7584E2",
"X. c #7684E2",
"o. c #7685E2",
"O. c #7785E2",
"+. c #7785E3",
"@. c #7786E3",
"#. c #7987E2",
"$. c #7886E3",
"%. c #7987E3",
"&. c #7886E4",
"*. c #7887E4",
"=. c #7987E4",
"-. c #7987E5",
";. c #7A89E1",
":. c #7A88E3",
">. c #7A89E3",
",. c #7B89E3",
"<. c #7E8CE0",
"1. c #7F8CE0",
"2. c #7D8CE2",
"3. c #7E8DE2",
"4. c #7A88E4",
"5. c #7B89E4",
"6. c #7A88E6",
"7. c #7C8AE5",
"8. c #7D8BE5",
"9. c #7C8AE7",
"0. c #7C8BE7",
"q. c #7F8EE4",
"w. c #8490D4",
"e. c #8091DC",
"r. c #98A3D7",
"t. c #828FE7",
"y. c #8391E4",
"u. c #8694E4",
"i. c #8796E5",
"p. c #8895E7",
"a. c #8A99E1",
"s. c #8E9AE4",
"d. c #8D9CE4",
"f. c #8D9CE5",
"g. c #8391E8",
"h. c #8391E9",
"j. c #8592E8",
"k. c #8593E9",
"l. c #8592EA",
"z. c #8895EA",
"x. c #8A97EB",
"c. c #8B98EB",
"v. c #8B98EC",
"b. c #8D9AEC",
"n. c #8E9BED",
"m. c #8E9CED",
"M. c #919EED",
"N. c #919DEF",
"B. c #929FEE",
"V. c #95A4E6",
"C. c #93A0EF",
"Z. c #94A1EF",
"A. c #95A2EF",
"S. c #97A3EE",
"D. c #9EA9E8",
"F. c #96A3F0",
"G. c #97A4F0",
"H. c #98A5F0",
"J. c #9AA7F5",
"K. c #ACB7E4",
"L. c #B0BAEA",
"P. c #B4BEEF",
"I. c #A2AFF1",
"U. c #A3AFF1",
"Y. c #A4B0F0",
"T. c #A4B0F1",
"R. c #A5B0F3",
"E. c #A9B5F1",
"W. c #AAB5F1",
"Q. c #AEBAF1",
"!. c #ACB8F5",
"~. c #B5C0F1",
"^. c #B6C1F1",
"/. c #B5C0F2",
"(. c #B6C1F2",
"). c #566C86",
/* pixels */
").).).).).).).).).).).).).).).).).).).).).).).).).).).).).).).).",
").).).).).).).).).).).).).).).).).).).).).).).).).).).).).).).).",
").).).).).).).).).).).).).).).).).).).).).).).).).).).).).).).).",
").).).).).).).).).).).).$.).).).).).).).).).).).).).).).).).).).",
").).).).).).).).).).).).).).).).).).).).).).).).).).).).).).).).",
").).).).).).).).).).).).).).$.).).).v ).).).).).).).).).).).).).",
").).).).).).).).).).).).).).$.).).).).).).).).).).).).).).).).).",
").).).).).).).).).).).).).).$.$.).).).).).).).).).).).).).).).).",
").).).).).).).).).).).).).).$.$.).).).).T ).).).).).).).).).).).",
").).).).).).).).).).).).).$.$.$.$.).).).S O.).).).).).).).).).).",
").).).).).).).).).).).).).$.$.$.$.).).).A O.$.).).).).).).).).).",
").).).).).).).).).M ).).u.$.$.$.$.).).).Y $.$.).).).).).).).).).",
").).).).).).).).).m ] a.y.$.$.$.).).).S } $.O.).).).).).).).).).",
").).).).).).).).).P ;.3.$.8.j.%.).).G { 7.{ U $.).).).).).).).).",
").).).).).).).).Z o.%.$.$.z.C.7.I T O.g.x.R W O.)._ ).).).).).).",
").).).).).).).).T $.$.$.8.B.A.t.} 5.k.Z.b.| $.{ E d.).).).).).).",
").).).).).).).) 2.$.$.5.m.G.H.B.v.M.G.F.n.4.$.+.y.V.).).).).).).",
").).).).).).).e.i.$.&.l.F.Y.E.U.T.W.Y.G.F.h.@.>.f.).).).).).).).",
").).).).).).).u.:.&.Q ( S.Q.(.~.~.^./.I.s.C ' :.q.,.).).).).).).",
").).).).).).).%.$.6.y   i R.K.P.~.L.D.N.# . K *.$.$.).).).).).).",
").).).).).).).$.$.&.~ 7 : 9 + r.!.a o 1 O r  .$.$.$.).).).).).).",
").).).).).).).} O.$...$.V t @ w.J.p 8 u ! =.X.} } ).).).).).).).",
").).).).).).).z F L b ` -.0.<.p.c.1.#.9.=.$.H b x ).).).).).).).",
").).).).).).).).0 h s F $.$.[ O.%.} X.$.^ N l 5 ).).).).).).).).",
").).).).).).).).- 2 s h N / B D J c n N j d 3 ; ).).).).).).).).",
").).).).).).).).).& 3 s s k g f f s s s s 4 = ).).).).).).).).).",
").).).).).).).).).).* > < q w w w e w 6 , = ).).).).).).).).).).",
").).).).).).).).).).).).X % $ $ $ $ % * ).).).).).).).).).).).).",
").).).).).).).).).).).).).).).).).).).).).).).).).).).).).).).).",
").).).).).).).).).).).).).).).).).).).).).).).).).).).).).).).).",
").).).).).).).).).).).).).).).).).).).).).).).).).).).).).).).).",
").).).).).).).).).).).).).).).).).).).).).).).).).).).).).).).)."
};
