/* XPM */
static char *result[] = {
/* columns rows colors chars-per-pixel */
"32 32 213 2 ",
"   c #1E223A",
".  c #292C45",
"X  c #22274E",
"o  c #272B49",
"O  c #212758",
"+  c #323752",
"@  c #30365D",
"#  c #1F2F7C",
"$  c #363D6F",
"%  c #262E74",
"&  c #2E3670",
"*  c #30397F",
"=  c #213280",
"-  c #223281",
";  c #233383",
":  c #233484",
">  c #243484",
",  c #243485",
"<  c #253586",
"1  c #323B88",
"2  c #2D3D94",
"3  c #31429B",
"4  c #3647A3",
"5  c #3B4CAC",
"6  c #3B4DAD",
"7  c #3C4DAD",
"8  c #3C4EAF",
"9  c #3D4FB0",
"0  c #474F84",
"q  c #4B548F",
"w  c #525A89",
"e  c #545C90",
"r  c #5C6494",
"t  c #5D6595",
"y  c #5E6799",
"u  c #555EA6",
"i  c #4051B4",
"p  c #4153B8",
"a  c #4253B8",
"s  c #4557BE",
"d  c #4658BF",
"f  c #555FBA",
"g  c #5862A5",
"h  c #5963A7",
"j  c #6E77A7",
"k  c #7179A3",
"l  c #606BB6",
"z  c #616CB7",
"x  c #6B76BB",
"c  c #4759C1",
"v  c #4759C2",
"b  c #485AC2",
"n  c #495BC2",
"m  c #495BC3",
"M  c #4B5CC3",
"N  c #4C5DC5",
"B  c #4D5FC6",
"V  c #4E60C6",
"C  c #4F60C7",
"Z  c #4F61C7",
"A  c #5061C8",
"S  c #5162C8",
"D  c #5364C9",
"F  c #5465CA",
"G  c #5666CB",
"H  c #576BC9",
"J  c #576CC9",
"K  c #586CCA",
"L  c #596DCB",
"P  c #5A6ECC",
"I  c #5B6ECC",
"U  c #5C6FCD",
"Y  c #5C6CCF",
"T  c #5E72CC",
"R  c #5E71CF",
"E  c #5F71CF",
"W  c #5D6DD0",
"Q  c #5E6ED1",
"!  c #5E6FD1",
"~  c #6671C1",
"^  c #6975C7",
"/  c #6D7ACD",
"(  c #6072D0",
")  c #6173D1",
"_  c #6070D2",
"`  c #6174D1",
"'  c #6274D2",
"]  c #6374D2",
"[  c #6375D2",
"{  c #6476D3",
"}  c #6272D4",
"|  c #6373D5",
" . c #6476D4",
".. c #6677D4",
"X. c #6677D5",
"o. c #6777D7",
"O. c #6778D5",
"+. c #6778D6",
"@. c #6E7BD0",
"#. c #697AD7",
"$. c #6A7BD7",
"%. c #6C7ED4",
"&. c #6777D8",
"*. c #6877D8",
"=. c #6979D9",
"-. c #6A79D9",
";. c #6A7BD8",
":. c #6B7BD9",
">. c #6A79DA",
",. c #6B7ADA",
"<. c #6C7CD9",
"1. c #6C7CDA",
"2. c #6D7DDA",
"3. c #6D7CDB",
"4. c #6E7DDB",
"5. c #6E7EDB",
"6. c #6E7DDC",
"7. c #6F7FDC",
"8. c #717FD6",
"9. c #727FD7",
"0. c #707FDE",
"q. c #7F89BD",
"w. c #7D8AD7",
"e. c #7280D8",
"r. c #7484DB",
"t. c #7080DD",
"y. c #7180DD",
"u. c #7282DC",
"i. c #7281DE",
"p. c #7281DF",
"a. c #7381DF",
"s. c #7382DF",
"d. c #7483DF",
"f. c #7484DC",
"g. c #7B8CDC",
"h. c #7483E0",
"j. c #7583E0",
"k. c #7583E1",
"l. c #7584E1",
"z. c #7684E1",
"x. c #7685E1",
"c. c #7685E2",
"v. c #7785E2",
"b. c #7785E3",
"n. c #7786E3",
"m. c #7886E2",
"M. c #7987E2",
"N. c #7886E3",
"B. c #7986E3",
"V. c #7987E3",
"C. c #7886E4",
"Z. c #7987E4",
"A. c #7987E5",
"S. c #7A88E3",
"D. c #7C8BE0",
"F. c #7F8DE2",
"G. c #7988E5",
"H. c #7A88E4",
"J. c #7A88E6",
"K. c #7C8AE5",
"L. c #7D8BE5",
"P. c #7E8CE4",
"I. c #7E8DE4",
"U. c #7E8CE5",
"Y. c #7E8CE6",
"T. c #828DD0",
"R. c #98A2D8",
"E. c #818FE7",
"W. c #8595E0",
"Q. c #8392E4",
"!. c #8492E6",
"~. c #8796E4",
"^. c #8290E9",
"/. c #8491E8",
"(. c #8592E8",
"). c #8694E9",
"_. c #8895EA",
"`. c #8896EA",
"'. c #8A97EB",
"]. c #8B98EB",
"[. c #8A98ED",
"{. c #8C9AEE",
"}. c #909DED",
"|. c #919EED",
" X c #919EEE",
".X c #929FEF",
"XX c #93A0EF",
"oX c #94A1EF",
"OX c #95A2EF",
"+X c #98A4EA",
"@X c #95A2F0",
"#X c #95A2F1",
"$X c #96A3F0",
"%X c #97A4F0",
"&X c #97A4F2",
"*X c #98A5F0",
"=X c #9FACF2",
"-X c #9AA8F6",
";X c #ADB7E7",
":X c #A3AFF1",
">X c #A1AEF2",
",X c #A3B0F0",
"<X c #A4B0F1",
"1X c #A5B1F1",
"2X c #AAB5F1",
"3X c #ACB8F5",
"4X c #B3BEF0",
"5X c #B3BEF2",
"6X c #B4BFF3",
"7X c #B5C0F1",
"8X c #B6C1F1",
"9X c #B6C1F2",
"0X c #566C86",
/* pixels */
"0X0X0X0X0X0X0X0X0X0X0X0X0X0X0X0X0X0X0X0X0X0X0X0X0X0X0X0X0X0X0X0X",
"0X0X0X0X0X0X0X0X0X0X0X0X0X0X0X0X] <.0X0X0X0X0X0X0X0X0X0X0X0X0X0X",
"0X0X0X0X0X0X0X0X0X0X0X0X0X0X0X0X1.Z.0X0X0X0X0X0X0X0X0X0X0X0X0X0X",
"0X0X0X0X0X0X0X0X0X0X0X0X0X0X0X0X0X0X0X0X0X0X0X0X0X0X0X0X0X0X0X0X",
"0X0X0X0X0X0X0X0X0X0X0X0X0X0X0X0X0XK 0X0X0X0X0X0X0X0X0X0X0X0X0X0X",
"0X0X0X0X0X0X0X0X0X0X0X0X0X0X0X0X0XH P 0X0X0X0X0X0X0X0X0X0X0X0X0X",
"0X0X0X0X0X0X0X0X0X0X0X0X0X0X0X0X0X0X) z.0X0X0X0X0X0X0X0X0X0X0X0X",
"0X0X0X0X0X0X0X0X0X0X0X0X0X0XH 0X0X) i.N.0X0X0X0X0X0X0X0X0X0X0X0X",
"0X0X0X0X0X0X0X0X0X0X0X0X0X0XU { 0X;.N.N.5.0X0X0X0X0X0X0X0X0X0X0X",
"0X0X0X0X0X0X0X0X0X0X0X0X0XE t.z.X.h.N.B.5.K 0X0X0X0X0X0X0X0X0X0X",
"0X0X0X0X0X0X0X0X0X0X0X0X;.:.v.2.+.z.N.B.4.L 0X0X0X0X0X0X0X0X0X0X",
"0X0X0X0X0X0X0X0X0XI 0XU.r.` l.p.n.N.N.V.5.U s. .( 0X0X0X0X0X0X0X",
"0X0X0X0X0X0X0X0XI :.$.D.u.' z.N.N.N.N.v...[ z.5.l.0X0X0X0X0X0X0X",
"0X0X0X0X0X0X0X0XI +.f.F.N.7.d.Z.N.N.c.O.R 7.N.#.s.N.0X0X0X0X0X0X",
"0X0X0X0X0X0X0X0XE x.V.N.V.H.).Y.N.N.j.;.M.L.N.y.#.0X0X0X0X0X0X0X",
"0X0X0X0X0X0X0XJ %.Q.S.Z._. XoX'.N.K.L.E.`._.V.:.[ 0X0X0X0X0X0X0X",
"0X0X0X0X0X0X0XT W.I.N.K.XX%X*X.X].|. X@X$X}.S.O.y.N.!.0X0X0X0X0X",
"0X0X0X0X0X0X0Xg.~.N.N./.OX,X2X:X<X2X1X%X$X(.N.c.N.N.+X0X0X0X0X0X",
"0X0X0X0X0X0X0XQ.P.N.Z.[.&X>X5X8X7X8X6X=X#X^.N.N.N.N.0X0X0X0X0X0X",
"0X0X0X0X0X0X0Xv.V.A.~ 0 e r q.4X9X;Xk t w q e.N.k.>.0X0X0X0X0X0X",
"0X0X0X0X0X0X0XW k.J.l   % u + R.3Xj O f . @ 9.0.W G 0X0X0X0X0X0X",
"0X0X0X0X0X0X0Xm *.o.a.g & * o T.-Xy X 1 $ ^ C.Q b 0X0X0X0X0X0X0X",
"0X0X0X0X0X0X0Xd M B 0.m.@./ h w.{.x z / 8.C.6.V s 0X0X0X0X0X0X0X",
"0X0X0X0X0X0X0X0X8 b Y -.*.G.&.3.N.C.b.| =.! C 9 0X0X0X0X0X0X0X0X",
"0X0X0X0X0X0X0X0X, 5 b n D ,.F } k.h._ n n b 6 < 0X0X0X0X0X0X0X0X",
"0X0X0X0X0X0X0X0X0X; 6 c v N b Z S A m c c 7 > 0X0X0X0X0X0X0X0X0X",
"0X0X0X0X0X0X0X0X0X0X: 2 4 a a p p p a i 3 > 0X0X0X0X0X0X0X0X0X0X",
"0X0X0X0X0X0X0X0X0X0X0X0X# - = = = = - : 0X0X0X0X0X0X0X0X0X0X0X0X",
"0X0X0X0X0X0X0X0X0X0X0X0X0X0X0X0X0X0X0X0X0X0X0X0X0X0X0X0X0X0X0X0X",
"0X0X0X0X0X0X0X0X0X0X0X0X0X0X0X0X0X0X0X0X0X0X0X0X0X0X0X0X0X0X0X0X",
"0X0X0X0X0X0X0X0X0X0X0X0X0X0X0X0X0X0X0X0X0X0X0X0X0X0X0X0X0X0X0X0X",
"0X0X0X0X0X0X0X0X0X0X0X0X0X0X0X0X0X0X0X0X0X0X0X0X0X0X0X0X0X0X0X0X"
};
