/* XPM */
static char *result[] = {
/* columns rows colors chars-per-pixel */
"32 32 43 1 ",
"  c #0D1228",
". c #262C2F",
"X c #2F3438",
"o c #383E42",
"O c #08287A",
"+ c #313A60",
"@ c #42494F",
"# c #4F585E",
"$ c #2F4CB2",
"% c #4F5B8D",
"& c #3B59C5",
"* c #3C59C5",
"= c #4A65CD",
"- c #4B6ACD",
"; c #4C6BCD",
": c #526BD3",
"> c #506FD0",
", c #5371D2",
"< c #5B75D6",
"1 c #5F79DA",
"2 c #637DDD",
"3 c #667CE0",
"4 c #6E83E3",
"5 c #7186E6",
"6 c #7286E6",
"7 c #7287E7",
"8 c #7489E7",
"9 c #7285FA",
"0 c #8296ED",
"q c #859AE8",
"w c #8699EE",
"e c #90A6E9",
"r c #92A8E8",
"t c #92A8E9",
"y c #8DA1F1",
"u c #92A5F3",
"i c #96A9F4",
"p c #97AAF4",
"a c #9AACF4",
"s c #A2B3F3",
"d c #A6B6F3",
"f c #B2C1F3",
"g c #DAE0F3",
/* pixels */
"Xoooooooo@o@ooooooooooooooooooX.",
"@@@@@@@@@@@@@;@@@@@;@@@@@@@@@@oX",
"@@@@@@@@@@@@@,@@@@@@@@@@@@@@@@@o",
"@@@@@@@@@@@@@@@@@@@@@@@@@@@@@@@o",
"@@@@@@@@@@@@@@@@@@@@@@@@@@@@@@@o",
"@@@@@@@@@@@@@@@@@@@@@@@@@@@@@@@o",
"@@@@@@@@t@@@@@@@;@@@@@@@@@@@@@@o",
"@@@@@@@@@@@@@@@@-7@@@@@@@@@@@@@o",
"@@@@@@@@@@@@@@@@;77@@@;@@@@@@@@o",
"@@@@@@@t@@@;;@;;7775@;;@@@@@@@@o",
"@@@@@@@t@@@;;@177775@;7@@@@@@@@o",
"@@@@@@@@@@;7t;7777727777@@@@@@@o",
"@@@@@@@@@;;77;77777<7777@@@@@@@o",
"@@@@@@@@;-7777177;;777776@@@@@@o",
"@@@@@@@;;7777y77;4777>47r4@@@@oo",
"o@@@@@@;7q77uu07777u7777e7@@@o.X",
"oooott;7t777uuuuuuuuu7778totoooo",
"@@@@@@;7t777uusuuuuuu77777@t@@@@",
"@@@@@@tt777uuufffffdu77777@@@@@@",
"@@@@@@7=777+uuifffapu+777=@@@@@@",
"@@@@@@@*777  guffuu9  777*@@@@@@",
"@@@@@@@*77777  uuu  7777&@@@@@@@",
"@@@@@@@@*7777u%uuuuw777**@@@@@@@",
"@@@@@@@@*&*7*77777777***O@@@@@@@",
"@@@@@@@@O$&&&777:&:3:&&O@@@@@@@@",
"@@@@@@@@@O************O@@@@@@@@@",
"@@@@@@@@@@OOO*******OO@@@@@@@@@@",
"@@@@@@@@@@@OOOOOOOOOO@@@@@@@@@@@",
"@@@@@@@@@@@@@@@o#@@@@@@@@@@@@@@@",
"@@@@@@@@@@@@@@@o#@@@@@@@@@@@@@@@",
"@@@@@@@@@@@@@@oo@@@@@@@@@@@@@@@@",
"@@@@@@@@@@@@@o.Xo@@@@@@@@@@@@@@@"
};
