/* XPM */
static char *result[] = {
/* columns rows colors chars-per-pixel */
"32 32 216 2 ",
"   c #161A39",
".  c #1C2036",
"X  c #1F2237",
"o  c #1E223C",
"O  c #1F233C",
"+  c #20243D",
"@  c #292D46",
"#  c #272C4C",
"$  c #222859",
"%  c #333753",
"&  c #333755",
"*  c #31375F",
"=  c #1F2F7C",
"-  c #212863",
";  c #282E63",
":  c #242B6E",
">  c #333A6A",
",  c #283077",
"<  c #3B4271",
"1  c #3C4373",
"2  c #404879",
"3  c #213280",
"4  c #223281",
"5  c #233383",
"6  c #233484",
"7  c #243484",
"8  c #243485",
"9  c #253586",
"0  c #2D3D94",
"q  c #31429B",
"w  c #3647A3",
"e  c #3B4CAC",
"r  c #3B4DAD",
"t  c #3C4DAD",
"y  c #3C4EAF",
"u  c #3D4EB0",
"i  c #3F51B4",
"p  c #444C80",
"a  c #5D6698",
"s  c #656C90",
"d  c #4F5AA1",
"f  c #4153B8",
"g  c #4253B8",
"h  c #4254B8",
"j  c #4557BF",
"k  c #4658BF",
"l  c #5762A6",
"z  c #5862A6",
"x  c #5760A9",
"c  c #5761BD",
"v  c #6E77A7",
"b  c #606BB6",
"n  c #6974B8",
"m  c #4759C1",
"M  c #485AC2",
"N  c #495BC2",
"B  c #495BC3",
"V  c #4B5CC3",
"C  c #4A5CC4",
"Z  c #4B5CC4",
"A  c #4D5EC5",
"S  c #4E60C6",
"D  c #4F60C7",
"F  c #5062C8",
"G  c #5162C8",
"H  c #5263C9",
"J  c #5364CA",
"K  c #566AC8",
"L  c #576BC9",
"P  c #5768CC",
"I  c #596DCB",
"U  c #5869CD",
"Y  c #5969CD",
"T  c #5B6ECD",
"R  c #5D70CE",
"E  c #5E70CE",
"W  c #5E71CE",
"Q  c #5E6ED1",
"!  c #5E6FD1",
"~  c #6976C7",
"^  c #6A76C7",
"/  c #6E7AC5",
"(  c #737EC3",
")  c #6072D0",
"_  c #6173D1",
"`  c #6274D1",
"'  c #6274D2",
"]  c #6375D2",
"[  c #6476D3",
"{  c #6373D4",
"}  c #6373D5",
"|  c #6575D6",
" . c #6675D6",
".. c #6777D7",
"X. c #6678D5",
"o. c #6778D6",
"O. c #6E7BD0",
"+. c #6879D6",
"@. c #6877D8",
"#. c #6978D8",
"$. c #6979D9",
"%. c #6A79D9",
"&. c #6A7AD8",
"*. c #6C7BDB",
"=. c #6C7DD8",
"-. c #6C7CDA",
";. c #6D7DDA",
":. c #6D7CDB",
">. c #6D7DDB",
",. c #6E7EDB",
"<. c #6D7CDC",
"1. c #6E7DDC",
"2. c #6E7EDC",
"3. c #6F7EDC",
"4. c #6F7FDC",
"5. c #6F7EDD",
"6. c #717ED5",
"7. c #717FD6",
"8. c #707EDE",
"9. c #707FDE",
"0. c #7D86B9",
"q. c #7A85C5",
"w. c #7383DB",
"e. c #7384DA",
"r. c #7080DD",
"t. c #7181DD",
"y. c #7281DC",
"u. c #7383DD",
"i. c #7281DE",
"p. c #7382DF",
"a. c #7583DF",
"s. c #7887DD",
"d. c #7788D9",
"f. c #7E8AD8",
"g. c #7888DC",
"h. c #7483E0",
"j. c #7583E1",
"k. c #7584E0",
"l. c #7584E1",
"z. c #7684E1",
"x. c #7785E1",
"c. c #7684E2",
"v. c #7685E2",
"b. c #7785E2",
"n. c #7785E3",
"m. c #7886E3",
"M. c #7887E3",
"N. c #7987E3",
"B. c #7886E4",
"V. c #7987E4",
"C. c #7987E5",
"Z. c #7B8AE0",
"A. c #7A88E3",
"S. c #7D8BE3",
"D. c #7D8CE3",
"F. c #7F8DE2",
"G. c #7E8DE3",
"H. c #7988E5",
"J. c #7A88E4",
"K. c #7B89E4",
"L. c #7A88E5",
"P. c #7A88E6",
"I. c #7C8AE4",
"U. c #7C8AE5",
"Y. c #7D8AE5",
"T. c #7E8CE4",
"R. c #7E8CE6",
"E. c #848EC7",
"W. c #828ED1",
"Q. c #8B96D0",
"!. c #98A2D8",
"~. c #818FE4",
"^. c #818FE7",
"/. c #8492E4",
"(. c #8493E4",
"). c #8896E5",
"_. c #8997E5",
"`. c #8A99E4",
"'. c #8C9BE5",
"]. c #8E9DE4",
"[. c #8F9EE5",
"{. c #8391E9",
"}. c #8593E9",
"|. c #8693E9",
" X c #8593EA",
".X c #8896EA",
"XX c #8996EA",
"oX c #8B98EC",
"OX c #8E9BED",
"+X c #8C9AEE",
"@X c #8F9DED",
"#X c #919EED",
"$X c #919EEE",
"%X c #929FEE",
"&X c #91A0E6",
"*X c #94A3E5",
"=X c #93A1EF",
"-X c #95A2F0",
";X c #97A4F0",
":X c #97A4F2",
">X c #98A5F0",
",X c #99A6F3",
"<X c #9AA8F6",
"1X c #ADB8E9",
"2X c #A3AFF1",
"3X c #A4B0F1",
"4X c #A5B1F1",
"5X c #A5B1F2",
"6X c #AAB5F1",
"7X c #ACB8F5",
"8X c #B2BDF1",
"9X c #B3BEF0",
"0X c #B5C0F1",
"qX c #B6C1F1",
"wX c #B6C1F2",
"eX c #566C86",
/* pixels */
"eXeXeXeXeXeXeXeXeXeXeXeXeXeXeXeXeXeXeXeXeXeXeXeXeXeXeXeXeXeXeXeX",
"eXeXeXeXeXeXeXeXeXeXeXeXeXeXeXeXeXeXeXeXeXeXeXeXeXeXeXeXeXeXeXeX",
"eXeXeXeXeXeXeXeXeXeXeXeXeX[ eXeXeXeXeXeXeXeXeXeXeXeXeXeXeXeXeXeX",
"eXeXeXeXeXeXeXeXeXeXeXeXeXeXeXeXeXeXeXeXeXeXeXeXeXeXeXeXeXeXeXeX",
"eXeXeXeXeXeXeXeXeXeXeXeXeXeXeXeXeXeXeXeXeXeXeXeXeXeXeXeXeXeXeXeX",
"eXeXeXeXeXeXeXeXeXeXeXeXeXeXeXeXeXeXeXeXeXeXeXeXeXeXeXeXeXeXeXeX",
"eXeXeXeXeXeXeXeXeXeXeXeXeXeXeXeXeXeXeXeXeXeXeXeXeXeXeXeXeXeXeXeX",
"eXeXeXeXeXeXeXeXeXeXeXeXeXeXeXeXE p.eXeXeXeXeXeXeXeXeXeXeXeXeXeX",
"eXeXeXeXeXeXeXeXeXeXeXeXeXeXeXeX_ z.m.eXeXeXeXeXeXeXeXeXeXeXeXeX",
"eXeXeXeXeXeXeXeXeXeXeXL eXeXeX) i.m.m.eXeXeX' eXeXeXeXeXeXeXeXeX",
"eXeXeXeXeXeXeXeXeXeXeXI ` ) ;.l.m.m.m.3.eX_ p.eXeXeXeXeXeXeXeXeX",
"eXeXeXeXeXeXeXeXeXeXI =.e._ b.m.m.m.b.+.&.h.m.m.eXeXeXeXeXeXeXeX",
"eXeXeXeXeXeXeXeXeXK W Z.y.' z.m.m.v.-.4.m.m.m.n.eXeXeXeXeXeXeXeX",
"eXeXeXeXeXeXeXeXI ) w.F.K.t.r.m.r.] X.b.m.b.>.k.D.eXeXeXeXeXeXeX",
"eXeXeXeXeXeXeXK ) x.N.m.|..XM.n.o.-.b.J.m.,.2.G.].g.eXeXeXeXeXeX",
"eXeXeXeXeXeXeXR s./.A.U.$X-XXXR.l.I.}.@X^.l.n.S.(.).eXeXeXeXeXeX",
"eXeXeXeXeX*XT u.'.T.m.Y.=X;X>X%XoX#X;X;XOXJ.m.m.~.[.eXeXeXeXeXeX",
"eXeXeXeXeXeXd.`.).m.B. X:X5X6X2X3X6X4X,X:X{.m.m.A.A.eXeXeXeXeXeX",
"eXeXeXeXeXeX&X_.A.B.6.( q.Q.8XqX0XwX1XE.q./ a.m.m.m.eXeXeXeXeXeX",
"eXeXeXeXeXeXi.:.m.P.l . o & 0.9XwX1Xs @ X # O.V.c.@.eXeXeXeXeXeX",
"eXeXeXeXeXeXeXY j.H.b O , x % !.7Xv $ c @ * 7.V.1.G eXeXeXeXeXeX",
"eXeXeXeXeXeXeXB $.V.m.z ; - + W.<Xa   : > ^ <. .J eXeXeXeXeXeXeX",
"eXeXeXeXeXeXeXj G *.5.j.d < p f.+Xn 1 2 ~ C.{ N k eXeXeXeXeXeXeX",
"eXeXeXeXeXeXeXeXy A P ..H 9.V.m.b.| 8.L.c.! D u eXeXeXeXeXeXeXeX",
"eXeXeXeXeXeXeXeX8 e M B N %.l.j.} V Q #.U M r 9 eXeXeXeXeXeXeXeX",
"eXeXeXeXeXeXeXeXeX5 r m M S G F C m B Z m t 7 eXeXeXeXeXeXeXeXeX",
"eXeXeXeXeXeXeXeXeXeX6 0 w f f f g h g i q 7 eXeXeXeXeXeXeXeXeXeX",
"eXeXeXeXeXeXeXeXeXeXeXeX= 4 3 3 3 3 4 6 eXeXeXeXeXeXeXeXeXeXeXeX",
"eXeXeXeXeXeXeXeXeXeXeXeXeXeXeXeXeXeXeXeXeXeXeXeXeXeXeXeXeXeXeXeX",
"eXeXeXeXeXeXeXeXeXeXeXeXeXeXeXeXeXeXeXeXeXeXeXeXeXeXeXeXeXeXeXeX",
"eXeXeXeXeXeXeXeXeXeXeXeXeXeXeXeXeXeXeXeXeXeXeXeXeXeXeXeXeXeXeXeX",
"eXeXeXeXeXeXeXeXeXeXeXeXeXeXeXeXeXeXeXeXeXeXeXeXeXeXeXeXeXeXeXeX"
};
