/* XPM */
static char *result[] = {
/* columns rows colors chars-per-pixel */
"32 32 185 2 ",
"   c #16192B",
".  c #242639",
"X  c #1A1F4A",
"o  c #222744",
"O  c #222645",
"+  c #242840",
"@  c #242947",
"#  c #262B4E",
"$  c #2A2F56",
"%  c #21285B",
"&  c #303555",
"*  c #363B5B",
"=  c #353B5C",
"-  c #353A5E",
";  c #1F2F7C",
":  c #313762",
">  c #393F60",
",  c #262E72",
"<  c #3C426E",
"1  c #404778",
"2  c #41497E",
"3  c #4B517F",
"4  c #505572",
"5  c #505675",
"6  c #213280",
"7  c #223281",
"8  c #233383",
"9  c #233484",
"0  c #243484",
"q  c #243485",
"w  c #243586",
"e  c #2D3D94",
"r  c #31429B",
"t  c #3A4398",
"y  c #3647A3",
"u  c #3B46A8",
"i  c #3B4CAC",
"p  c #3B4CAD",
"a  c #3B4DAD",
"s  c #3C4DAD",
"d  c #3F51B4",
"f  c #474E88",
"g  c #626A98",
"h  c #555FA2",
"j  c #4051B1",
"k  c #4152B3",
"l  c #4153B8",
"z  c #4253B8",
"x  c #4254B8",
"c  c #5661A5",
"v  c #5862A7",
"b  c #5F6AB3",
"n  c #656EA6",
"m  c #4759C1",
"M  c #4759C2",
"N  c #485AC1",
"B  c #485AC2",
"V  c #4A5CC4",
"C  c #4C5DC5",
"Z  c #4D5FC5",
"A  c #4D5FC6",
"S  c #4E5FC6",
"D  c #4F60C7",
"F  c #5061C6",
"G  c #5162C6",
"H  c #5263C9",
"J  c #5364CA",
"K  c #5566CB",
"L  c #566AC8",
"P  c #576BC9",
"I  c #5768CC",
"U  c #5869CD",
"Y  c #5B6BCF",
"T  c #5E71CF",
"R  c #5E6FD1",
"E  c #6D7ACF",
"W  c #6171D4",
"Q  c #6272D4",
"!  c #6373D4",
"~  c #6473D5",
"^  c #6677D5",
"/  c #6777D7",
"(  c #6778D5",
")  c #687BD1",
"_  c #6E7BD1",
"`  c #6A7DD2",
"'  c #6F7CD1",
"]  c #6879D7",
"[  c #697AD7",
"{  c #6A7AD8",
"}  c #6A7BD8",
"|  c #6A7ADA",
" . c #6B7CD8",
".. c #6C7CD9",
"X. c #6E7CDC",
"o. c #6F7DDD",
"O. c #707DD4",
"+. c #727FD7",
"@. c #707EDD",
"#. c #707FDE",
"$. c #7385D5",
"%. c #7784D5",
"&. c #7380D9",
"*. c #7586D8",
"=. c #7080DD",
"-. c #7281DE",
";. c #7482DC",
":. c #7989DB",
">. c #7988DF",
",. c #7E8BDF",
"<. c #7281E0",
"1. c #7382E0",
"2. c #7483E0",
"3. c #7483E1",
"4. c #7583E1",
"5. c #7785E1",
"6. c #7685E2",
"7. c #7785E2",
"8. c #7785E3",
"9. c #7886E2",
"0. c #7886E3",
"q. c #7987E3",
"w. c #7886E4",
"e. c #7987E4",
"r. c #7987E5",
"t. c #7A88E3",
"y. c #7E8DE0",
"u. c #7F8CE2",
"i. c #7A88E4",
"p. c #7B89E4",
"a. c #7B89E5",
"s. c #7A88E6",
"d. c #7D8BE4",
"f. c #7C8AE5",
"g. c #7D8BE5",
"h. c #7E8CE6",
"j. c #8790B9",
"k. c #8E97C0",
"l. c #8691D6",
"z. c #949ED1",
"x. c #A4AEDB",
"c. c #808DE2",
"v. c #808EE4",
"b. c #808EE6",
"n. c #808EE7",
"m. c #818FE7",
"M. c #8391E4",
"N. c #8492E4",
"B. c #8493E4",
"V. c #8694E4",
"C. c #8F9EE5",
"Z. c #8491E8",
"A. c #8593E9",
"S. c #8895E8",
"D. c #8996EB",
"F. c #8B98EB",
"G. c #8B99EB",
"H. c #8C99EC",
"J. c #8C9AEC",
"K. c #8E9CED",
"L. c #8F9CED",
"P. c #919EE9",
"I. c #939FEA",
"U. c #919FEE",
"Y. c #929FEE",
"T. c #93A2E6",
"R. c #94A3E6",
"E. c #97A6E6",
"W. c #96A3EF",
"Q. c #96A3F0",
"!. c #97A4F0",
"~. c #98A4F0",
"^. c #9AA7F5",
"/. c #A1ADEC",
"(. c #A9B4E2",
"). c #A3AFF1",
"_. c #A4B0F0",
"`. c #A4B0F1",
"'. c #AAB5F1",
"]. c #AAB6F1",
"[. c #ADB9F6",
"{. c #B5C0F1",
"}. c #B6C1F2",
"|. c #B7C3F4",
" X c #566C86",
/* pixels */
" X X X X X X X X X X X X X X X X X X X X X X X X X X X X X X X X",
" X X X X X X X X X X X X X X X X X X X X X X X X X X X X X X X X",
" X X X X X X X X X X X X X X X X X X X X X X X X X X X X X X X X",
" X X X X X X X X X X X X X X X X X X X X X X X X X X X X X X X X",
" X X X X X X X X X X X X X0. X X X X X X X X X X X X X X X X X X",
" X X X X X X X X X X X X X0. X X X X X X X X X X X X X X X X X X",
" X X X X X X X X X X X X} 0. X X X X X X X X X X X X X X X X X X",
" X X X X X X X X X X X X( 0.0. X X X X X X X X X X X X X X X X X",
" X X X X X X X X X X X X[ 0.0. X X X X X X X X X X X X X X X X X",
" X X X X X X X X X X X X X0.0. X X X X.. X X X X X X X X X X X X",
" X X X X X X X X X X X X X0.0.0. X X X]  X X X X X X X X X X X X",
" X X X X X X X X X X X XV.0.0.0. X XT -.0. X X X X X X X X X X X",
" X X X X X X X X X`  XR.M.0.0.0. X X( 8.0. X X X X X X X X X X X",
" X X X X X X X XP *.T.N.e.Z.q.0...] 9.p.0.{ $.E. X X X X X X X X",
" X X X X X X X XP  .v.0.e.H.b.8.=.4.n.A.0.^ :. X X X X X X X X X",
" X X X X X X X XL } 0.0.g.U.G.h.i.m.K.U.f.3.B. X X X X X X X X X",
" X X X X X X X X) >.0.a.L.!.~.Y.J.W.!.Q.D.i.d.C. X X X X X X X X",
" X X X X X X X Xy.i.5.c.P./.].).`.'._.I.P.u.7.v.R. X X X X X X X",
" X X X X X X XV.t.r.b - * 5 x.}.{.}.j.> = < O.i.v. X X X X X X X",
" X X X X X X Xq.0.s.v   % 3 4 (.|.k.: f . @ _ e.0. X X X X X X X",
" X X X X X X X0.0.e.+.1 , t + z.[.g X u $ h 5.0.0. X X X X X X X",
" X X X X X X X4.7.4.w.&.2 O & l.^.n o # c 0.w.7.4. X X X X X X X",
" X X X X X X XF ! Q #.r.;.E %.S.F.,.E ' 7.o.2.~ G  X X X X X X X",
" X X X X X X X Xj A Y @.0.r.3.6.q.1.W <.#.I H k  X X X X X X X X",
" X X X X X X X Xq i B Z R | U X./ K N J S B p w  X X X X X X X X",
" X X X X X X X X X8 a m m C B D V m M m m s 0  X X X X X X X X X",
" X X X X X X X X X X9 e y z z l z x z d r 0  X X X X X X X X X X",
" X X X X X X X X X X X X; 7 6 6 6 6 7 9  X X X X X X X X X X X X",
" X X X X X X X X X X X X X X X X X X X X X X X X X X X X X X X X",
" X X X X X X X X X X X X X X X X X X X X X X X X X X X X X X X X",
" X X X X X X X X X X X X X X X X X X X X X X X X X X X X X X X X",
" X X X X X X X X X X X X X X X X X X X X X X X X X X X X X X X X"
};
