/* XPM */
static char *result[] = {
/* columns rows colors chars-per-pixel */
"32 32 181 2 ",
"   c #16192B",
".  c #24273A",
"X  c #23273F",
"o  c #191E47",
"O  c #222744",
"+  c #222645",
"@  c #242847",
"#  c #262B4D",
"$  c #21285B",
"%  c #2A3057",
"&  c #2F3454",
"*  c #363B5B",
"=  c #353B5C",
"-  c #343A5D",
";  c #1F2F7C",
":  c #313760",
">  c #262E72",
",  c #3A4061",
"<  c #3C426E",
"1  c #404879",
"2  c #424A7E",
"3  c #4F5571",
"4  c #4B517F",
"5  c #505675",
"6  c #213280",
"7  c #223281",
"8  c #233383",
"9  c #233484",
"0  c #243484",
"q  c #243485",
"w  c #253586",
"e  c #2D3D94",
"r  c #31429B",
"t  c #3A4398",
"y  c #3647A3",
"u  c #3B46A8",
"i  c #3B4CAC",
"p  c #3B4DAD",
"a  c #3C4DAE",
"s  c #3D4FB0",
"d  c #464E88",
"f  c #626A98",
"g  c #555FA2",
"h  c #4051B1",
"j  c #4051B4",
"k  c #4153B8",
"l  c #4253B8",
"z  c #4254B8",
"x  c #5660A4",
"c  c #5862A7",
"v  c #5F6AB3",
"b  c #656EA6",
"n  c #4759C1",
"m  c #485AC2",
"M  c #4A5CC3",
"N  c #4B5DC4",
"B  c #4C5EC5",
"V  c #4E5FC6",
"C  c #4E60C6",
"Z  c #4F60C7",
"A  c #5061C6",
"S  c #5263C7",
"D  c #5667CC",
"F  c #576BC9",
"G  c #5869CD",
"H  c #5A6ACE",
"J  c #5D71CD",
"K  c #5F72CC",
"L  c #5E6ED1",
"P  c #5F6FD1",
"I  c #6D7ACF",
"U  c #6375D2",
"Y  c #6375D3",
"T  c #6476D3",
"R  c #6272D4",
"E  c #6373D4",
"W  c #6576D4",
"Q  c #6676D7",
"!  c #6776D7",
"~  c #6E7BD1",
"^  c #6F7BD1",
"/  c #6979D9",
"(  c #697AD8",
")  c #6A7BD8",
"_  c #6C7CD9",
"`  c #6D7DDB",
"'  c #6E7EDB",
"]  c #6F7EDB",
"[  c #6F7FDB",
"{  c #6F7EDC",
"}  c #707DD4",
"|  c #727FD8",
" . c #707FDD",
".. c #707FDE",
"X. c #6F81D4",
"o. c #7784D5",
"O. c #7380D9",
"+. c #7283D9",
"@. c #7280DF",
"#. c #7582DC",
"$. c #7889DB",
"%. c #7E8BDF",
"&. c #7F90DC",
"*. c #7483E0",
"=. c #7583E0",
"-. c #7483E1",
";. c #7583E1",
":. c #7584E1",
">. c #7785E1",
",. c #7684E2",
"<. c #7685E2",
"1. c #7785E2",
"2. c #7785E3",
"3. c #7786E3",
"4. c #7885E2",
"5. c #7886E3",
"6. c #7987E3",
"7. c #7886E4",
"8. c #7987E4",
"9. c #7987E5",
"0. c #7A89E1",
"q. c #7A88E3",
"w. c #7B89E3",
"e. c #7D8CE2",
"r. c #7F8CE2",
"t. c #7E8DE2",
"y. c #7F8DE2",
"u. c #7A88E4",
"i. c #7B89E5",
"p. c #7A88E6",
"a. c #7C89E4",
"s. c #7C8AE5",
"d. c #7D8BE5",
"f. c #7F8EE4",
"g. c #8891BB",
"h. c #8E97C0",
"j. c #929CCF",
"k. c #8590D4",
"l. c #A4AEDB",
"z. c #8391E4",
"x. c #8392E4",
"c. c #8290E7",
"v. c #8694E4",
"b. c #8796E5",
"n. c #8999E1",
"m. c #8D9BE5",
"M. c #8D9CE4",
"N. c #8391E8",
"B. c #8592E8",
"V. c #8593E9",
"C. c #8895E8",
"Z. c #8895EA",
"A. c #8A97EB",
"S. c #8B98EB",
"D. c #8B98EC",
"F. c #8D9AEC",
"G. c #8E9CED",
"H. c #919DE9",
"J. c #919EE9",
"K. c #939FEA",
"L. c #919EED",
"P. c #929FEE",
"I. c #95A4E6",
"U. c #93A0EF",
"Y. c #94A1EF",
"T. c #95A2EF",
"R. c #97A4F0",
"E. c #97A4F1",
"W. c #98A5F0",
"Q. c #9AA7F5",
"!. c #A1ADEC",
"~. c #A9B3E1",
"^. c #A3AFF0",
"/. c #A5B1F0",
"(. c #A4B0F1",
"). c #AAB6F1",
"_. c #ADB9F6",
"`. c #B5C0F1",
"'. c #B6C1F2",
"]. c #B8C3F4",
"[. c #566C86",
/* pixels */
"[.[.[.[.[.[.[.[.[.[.[.[.[.[.[.[.[.[.[.[.[.[.[.[.[.[.[.[.[.[.[.[.",
"[.[.[.[.[.[.[.[.[.[.[.[.[.[.[.[.[.[.[.[.[.[.[.[.[.[.[.[.[.[.[.[.",
"[.[.[.[.[.[.[.[.[.[.[.[.[.[.[.[.[.[.[.[.[.[.[.[.[.[.[.[.[.[.[.[.",
"[.[.[.[.[.[.[.[.[.[.[.[.5.[.[.[.[.[.[.[.[.[.[.[.[.[.[.[.[.[.[.[.",
"[.[.[.[.[.[.[.[.[.[.[.[.[.[.[.[.[.[.[.[.[.[.[.[.[.[.[.[.[.[.[.[.",
"[.[.[.[.[.[.[.[.[.[.[.[.[.[.5.[.[.[.F [.[.[.[.[.[.[.[.[.[.[.[.[.",
"[.[.[.[.[.[.[.[.[.[.[.[.[.[.5.[.[.[.[.[.[.[.[.[.[.[.[.[.[.[.[.[.",
"[.[.[.[.[.[.[.[.[.[.[.[.[.[.5.5.[.[.[.[.[.[.[.[.[.[.[.[.[.[.[.[.",
"[.[.[.[.[.[.[.[.[.[.[.[.[.[.5.5.[.[.[.[.' [.[.[.[.[.[.[.[.[.[.[.",
"[.[.[.[.[.[.[.[.[.[.[.[.[.5.5.5.5.[.[.[.T 1.[.[.[.[.[.[.[.[.[.[.",
"[.[.[.[.[.[.[.[.[.[.[.[.[.5.5.5.5.[.[.[.Y 1.5.[.[.[.[.[.[.[.[.[.",
"[.[.[.[.[.[.[.[.[.K [.[.v.5.5.5.5.[.[.[.` 5.5.[.[.[.[.[.[.[.[.[.",
"[.[.[.[.[.[.[.[.[.J $.n.x.5.5.5.[.[.[.T =.5.1.[.[.[.[.[.[.[.[.[.",
"[.[.[.[.[.[.[.[.[.( 0.t.5.d.B.8.[.[.W *.s.*._ 5.[.[.[.[.[.[.[.[.",
"[.[.[.[.[.[.[.[.U <.6.5.5.Z.U.s.) ' 1.N.A.] { 3.[.+.[.[.[.[.[.[.",
"[.[.[.[.[.[.[.[.' 5.5.5.d.P.T.c.:.a.V.Y.F.:.5.*.[ M.[.[.[.[.[.[.",
"[.[.[.[.[.[.[.X.e.5.5.i.G.R.W.P.D.L.R.E.G.u.5.2.z.I.[.[.[.[.[.[.",
"[.[.[.[.[.[.[.&.b.5.>.y.J.!.).^.(.)./.K.H.r.1.q.m.[.[.[.[.[.[.[.",
"[.[.[.[.[.[.[.v.q.9.v - * 5 l.'.`.'.g., = < } u.f.w.[.[.[.[.[.[.",
"[.[.[.[.[.[.[.6.5.p.c   $ 4 3 ~.].h.: d . @ ~ 8.5.5.[.[.[.[.[.[.",
"[.[.[.[.[.[.[.5.5.7.| 1 > t X j._.f o u % g >.5.5.5.[.[.[.[.[.[.",
"[.[.[.[.[.[.[.;.1.5.,.O.2 + & k.Q.b O # x 5.,.;.;.[.[.[.[.[.[.[.",
"[.[.[.[.[.[.[.A E / G @.#.I o.C.S.%.I ^ 4.5.Q G S [.[.[.[.[.[.[.",
"[.[.[.[.[.[.[.[.h B n R 8.9.-.1.6.;.2.8...L Z s [.[.[.[.[.[.[.[.",
"[.[.[.[.[.[.[.[.q i n B L  .P R ! D H L V m p w [.[.[.[.[.[.[.[.",
"[.[.[.[.[.[.[.[.[.8 p n n C N M M n n n n a 0 [.[.[.[.[.[.[.[.[.",
"[.[.[.[.[.[.[.[.[.[.9 e y k l l l z l j r 0 [.[.[.[.[.[.[.[.[.[.",
"[.[.[.[.[.[.[.[.[.[.[.[.; 7 6 6 6 6 7 9 [.[.[.[.[.[.[.[.[.[.[.[.",
"[.[.[.[.[.[.[.[.[.[.[.[.[.[.[.[.[.[.[.[.[.[.[.[.[.[.[.[.[.[.[.[.",
"[.[.[.[.[.[.[.[.[.[.[.[.[.[.[.[.[.[.[.[.[.[.[.[.[.[.[.[.[.[.[.[.",
"[.[.[.[.[.[.[.[.[.[.[.[.[.[.[.[.[.[.[.[.[.[.[.[.[.[.[.[.[.[.[.[.",
"[.[.[.[.[.[.[.[.[.[.[.[.[.[.[.[.[.[.[.[.[.[.[.[.[.[.[.[.[.[.[.[."
};
