/* XPM */
static char *result[] = {
/* columns rows colors chars-per-pixel */
"32 32 214 2 ",
"   c #161A39",
".  c #1C2036",
"X  c #1F2237",
"o  c #1E223C",
"O  c #1F233C",
"+  c #20243D",
"@  c #292D46",
"#  c #272C4C",
"$  c #222859",
"%  c #333753",
"&  c #333755",
"*  c #31375F",
"=  c #1F2F7C",
"-  c #212863",
";  c #272E63",
":  c #242C6E",
">  c #333A6A",
",  c #283077",
"<  c #3C4371",
"1  c #3C4473",
"2  c #404779",
"3  c #444B7F",
"4  c #213280",
"5  c #223281",
"6  c #233383",
"7  c #233484",
"8  c #243484",
"9  c #243485",
"0  c #253586",
"q  c #2D3D94",
"w  c #31429B",
"e  c #3647A3",
"r  c #3B4CAC",
"t  c #3B4DAD",
"y  c #3C4DAD",
"u  c #3C4EAF",
"i  c #3D4FB0",
"p  c #3F51B4",
"a  c #5D6698",
"s  c #656C90",
"d  c #4153B8",
"f  c #4253B8",
"g  c #4557BE",
"h  c #4658BF",
"j  c #5762A6",
"k  c #5862A6",
"l  c #5863A7",
"z  c #5760A9",
"x  c #5761BD",
"c  c #6E77A7",
"v  c #606BB6",
"b  c #6974B8",
"n  c #4759C1",
"m  c #4759C2",
"M  c #485AC1",
"N  c #485AC2",
"B  c #495BC2",
"V  c #495BC3",
"C  c #4B5CC3",
"Z  c #4C5DC5",
"A  c #4D5FC6",
"S  c #4E60C6",
"D  c #4F60C7",
"F  c #4F61C7",
"G  c #5061C8",
"H  c #5162C8",
"J  c #5364C9",
"K  c #5465CA",
"L  c #5667CB",
"P  c #576BC9",
"I  c #576CC9",
"U  c #586CCA",
"Y  c #596DCB",
"T  c #5A6ECC",
"R  c #5B6ECC",
"E  c #5C6FCD",
"W  c #5C6CCF",
"Q  c #5E72CC",
"!  c #5E71CF",
"~  c #5F71CF",
"^  c #5C6DD0",
"/  c #5D6DD0",
"(  c #5D6ED1",
")  c #5E6FD1",
"_  c #6976C7",
"`  c #6E7AC5",
"'  c #737EC3",
"]  c #6072D0",
"[  c #6173D1",
"{  c #6070D2",
"}  c #6174D1",
"|  c #6274D2",
" . c #6374D2",
".. c #6375D2",
"X. c #6476D3",
"o. c #6272D4",
"O. c #6373D5",
"+. c #6476D4",
"@. c #6577D4",
"#. c #6677D5",
"$. c #6777D7",
"%. c #6778D6",
"&. c #6E7BD0",
"*. c #697AD7",
"=. c #6A7BD7",
"-. c #6C7ED4",
";. c #6776D8",
":. c #6777D8",
">. c #6877D8",
",. c #6979D9",
"<. c #6A7BD8",
"1. c #6B7BD9",
"2. c #6A79DA",
"3. c #6B7ADA",
"4. c #6C7CD9",
"5. c #6C7CDA",
"6. c #6D7DDA",
"7. c #6D7CDB",
"8. c #6E7DDB",
"9. c #6E7EDB",
"0. c #6E7DDC",
"q. c #6F7FDC",
"w. c #717ED5",
"e. c #727FD7",
"r. c #707EDE",
"t. c #707FDE",
"y. c #7D86B9",
"u. c #7A84C5",
"i. c #7A85C5",
"p. c #7484DB",
"a. c #7080DD",
"s. c #7180DD",
"d. c #7281DC",
"f. c #7281DE",
"g. c #7281DF",
"h. c #7381DF",
"j. c #7382DF",
"k. c #7483DF",
"l. c #7583DF",
"z. c #7484DC",
"x. c #7E8BD9",
"c. c #7B8CDC",
"v. c #7483E0",
"b. c #7583E0",
"n. c #7583E1",
"m. c #7584E1",
"M. c #7684E1",
"N. c #7685E1",
"B. c #7685E2",
"V. c #7785E2",
"C. c #7786E3",
"Z. c #7987E2",
"A. c #7886E3",
"S. c #7986E3",
"D. c #7987E3",
"F. c #7886E4",
"G. c #7987E4",
"H. c #7987E5",
"J. c #7A88E3",
"K. c #7C8BE0",
"L. c #7E8DE2",
"P. c #7A88E4",
"I. c #7A88E6",
"U. c #7C8AE5",
"Y. c #7D8BE5",
"T. c #7E8CE4",
"R. c #7E8DE4",
"E. c #7F8DE5",
"W. c #7E8CE6",
"Q. c #848EC7",
"!. c #828ED1",
"~. c #8B96D0",
"^. c #98A2D8",
"/. c #818FE7",
"(. c #8595E0",
"). c #8392E4",
"_. c #8492E6",
"`. c #8796E4",
"'. c #8593EA",
"]. c #8693EB",
"[. c #8694E9",
"{. c #8895EA",
"}. c #8896EA",
"|. c #8A97EB",
" X c #8B98EB",
".X c #8C9AEE",
"XX c #909DED",
"oX c #919EED",
"OX c #919EEE",
"+X c #929FEF",
"@X c #93A0EF",
"#X c #94A1EF",
"$X c #98A4EA",
"%X c #95A2F0",
"&X c #96A3F0",
"*X c #97A4F0",
"=X c #97A4F2",
"-X c #98A5F0",
";X c #98A5F3",
":X c #99A6F3",
">X c #9AA8F6",
",X c #ADB8E9",
"<X c #A3AFF1",
"1X c #A4B0F1",
"2X c #A5B1F1",
"3X c #A5B1F2",
"4X c #AAB5F1",
"5X c #ACB8F5",
"6X c #B2BDF1",
"7X c #B3BEF0",
"8X c #B5C0F1",
"9X c #B6C1F1",
"0X c #B6C1F2",
"qX c #566C86",
/* pixels */
"qXqXqXqXqXqXqXqXqXqXqXqXqXqXqXqXqXqXqXqXqXqXqXqXqXqXqXqXqXqXqXqX",
"qXqXqXqXqXqXqXqXqXqXqXqXqXqXqXqX .4.qXqXqXqXqXqXqXqXqXqXqXqXqXqX",
"qXqXqXqXqXqXqXqXqXqXqXqXqXqXqXqX5.G.qXqXqXqXqXqXqXqXqXqXqXqXqXqX",
"qXqXqXqXqXqXqXqXqXqXqXqXqXqXqXqXqXqXqXqXqXqXqXqXqXqXqXqXqXqXqXqX",
"qXqXqXqXqXqXqXqXqXqXqXqXqXqXqXqXqXU qXqXqXqXqXqXqXqXqXqXqXqXqXqX",
"qXqXqXqXqXqXqXqXqXqXqXqXqXqXqXqXqXP T qXqXqXqXqXqXqXqXqXqXqXqXqX",
"qXqXqXqXqXqXqXqXqXqXqXqXqXqXqXqXqXqX[ M.qXqXqXqXqXqXqXqXqXqXqXqX",
"qXqXqXqXqXqXqXqXqXqXqXqXqXqXP qXqX[ f.A.qXqXqXqXqXqXqXqXqXqXqXqX",
"qXqXqXqXqXqXqXqXqXqXqXqXqXqXE X.qX<.A.A.9.qXqXqXqXqXqXqXqXqXqXqX",
"qXqXqXqXqXqXqXqXqXqXqXqXqX~ a.M.#.v.A.S.9.U qXqXqXqXqXqXqXqXqXqX",
"qXqXqXqXqXqXqXqXqXqXqXqX<.1.V.6.%.M.A.S.8.Y qXqXqXqXqXqXqXqXqXqX",
"qXqXqXqXqXqXqXqXqXR qXE.p.} m.g.C.A.A.G.9.E j.+.] qXqXqXqXqXqXqX",
"qXqXqXqXqXqXqXqXR 1.=.K.d.| M.A.A.A.A.V.@...M.9.m.qXqXqXqXqXqXqX",
"qXqXqXqXqXqXqXqXR %.z.L.A.q.k.G.A.A.B.%.! q.A.*.j.A.qXqXqXqXqXqX",
"qXqXqXqXqXqXqXqX~ N.D.A.D.P.[.W.A.A.b.<.Z.Y.A.a.*.qXqXqXqXqXqXqX",
"qXqXqXqXqXqXqXI -.).J.G.{.OX#X|.A.U.Y./.}.{.D.1...qXqXqXqXqXqXqX",
"qXqXqXqXqXqXqXQ (.R.A.U.@X*X-X+X XoXOX%X&XXXJ.%.s.A._.qXqXqXqXqX",
"qXqXqXqXqXqXqXc.`.A.F.'.=X3X4X<X1X4X2X:X;X].A.B.A.A.$XqXqXqXqXqX",
"qXqXqXqXqXqXqX).T.F.w.' i.~.6X9X8X0X,XQ.u.` l.A.A.A.qXqXqXqXqXqX",
"qXqXqXqXqXqXqXV.D.I.j . o & y.7X0X,Xs @ X # &.F.n.2.qXqXqXqXqXqX",
"qXqXqXqXqXqXqX/ n.I.v O , z % ^.5Xc $ x @ * e.r.^ L qXqXqXqXqXqX",
"qXqXqXqXqXqXqXV >.$.h.k ; - + !.>Xa   : > _ F.( M qXqXqXqXqXqXqX",
"qXqXqXqXqXqXqXh C A t.G.l < 3 x..Xb 1 2 _ H.0.S g qXqXqXqXqXqXqX",
"qXqXqXqXqXqXqXqXu N W ,.:.G.;.7.A.F.V.O.2.) D i qXqXqXqXqXqXqXqX",
"qXqXqXqXqXqXqXqX9 r N B J 3.K o.n.v.{ B V N t 0 qXqXqXqXqXqXqXqX",
"qXqXqXqXqXqXqXqXqX6 t n m Z N F H G V n n y 8 qXqXqXqXqXqXqXqXqX",
"qXqXqXqXqXqXqXqXqXqX7 q e f f d d d f p w 8 qXqXqXqXqXqXqXqXqXqX",
"qXqXqXqXqXqXqXqXqXqXqXqX= 5 4 4 4 4 5 7 qXqXqXqXqXqXqXqXqXqXqXqX",
"qXqXqXqXqXqXqXqXqXqXqXqXqXqXqXqXqXqXqXqXqXqXqXqXqXqXqXqXqXqXqXqX",
"qXqXqXqXqXqXqXqXqXqXqXqXqXqXqXqXqXqXqXqXqXqXqXqXqXqXqXqXqXqXqXqX",
"qXqXqXqXqXqXqXqXqXqXqXqXqXqXqXqXqXqXqXqXqXqXqXqXqXqXqXqXqXqXqXqX",
"qXqXqXqXqXqXqXqXqXqXqXqXqXqXqXqXqXqXqXqXqXqXqXqXqXqXqXqXqXqXqXqX"
};
