/* XPM */
static char *cac6eef017a54f0fe2e3e20280817adbvQQ9lcv24W5xiZ9A[] = {
/* columns rows colors chars-per-pixel */
"32 32 63 1 ",
"  c #172634",
". c #162735",
"X c #162937",
"o c #162B38",
"O c #162D3A",
"+ c #162C3B",
"@ c #152F3D",
"# c #152F3E",
"$ c #17353F",
"% c #153140",
"& c #153343",
"* c #173740",
"= c #153345",
"- c #143546",
"; c #153546",
": c #193741",
"> c #163C46",
", c #183D43",
"< c #193B44",
"1 c #14394C",
"2 c #143A4C",
"3 c #143B53",
"4 c #133D55",
"5 c #133F56",
"6 c #1A454B",
"7 c #1C494E",
"8 c #154351",
"9 c #134056",
"0 c #154555",
"q c #184A55",
"w c #134158",
"e c #134259",
"r c #11475F",
"t c #14495C",
"y c #164F5C",
"u c #124660",
"i c #104A62",
"p c #104F6C",
"a c #175A63",
"s c #1A5A66",
"d c #165A6B",
"f c #1A5C68",
"g c #1A5E6B",
"h c #0F597E",
"j c #0D5D7F",
"k c #115775",
"l c #105578",
"z c #13617F",
"x c #1C727B",
"c c #2F787B",
"v c #0D6388",
"b c #0B6588",
"n c #1A7581",
"m c #0A719A",
"M c #097AA8",
"N c #087EAC",
"B c #0780AF",
"V c #0984AE",
"C c #2996A4",
"Z c #30ADB4",
"A c #0395C8",
"S c #13B3D2",
"D c #0AB3E0",
/* pixels */
"OiooOo%O>X%+9X.X$oXX-Oi+XXX4X+Xe",
" oo owO<c*5=++X-X9X*$Oo X+X XXXX",
"o#OooOiO6=++Xo-XdX$pjp$X-$4 XX-X",
"OXwOXXO *XX*XXXX++pNAB9X*XXXXX*o",
"o go;2#XXX++i  %+emjAB1oXXXX.o-+",
"oXXX2z4$+XXX  iOX*rSSbp +. X.XX-",
" o# #8k2X+ X4 ooX+vDbMpOXXXXX5XX",
"9o$OOg2; oO  oX$X*pNVp$.+XiXX+rX",
"X$ooXOXOXrX Oi-r-X$59$o XXX4X*XX",
"Xowo OXX  4 X-ll-.X$XX9o--%XX-$X",
"XOo0OOOO-   O1r-oXoo X o2v3+X+=X",
" XOx:O;%O=$ XO-o++oro-oX*5b-X+iX",
"OOyZx>; X% XooO+ o9 aX. o+2-iXoX",
"4OOdOOO#OwXX 4--XooX..X3Xo+XoXXX",
"O X*Ooo OXXoo *+4*2-X..XX=XXX-X*",
"OO;2#ioo4oOX4O  +9h8XXXXXX=*XXXX",
"oo1h4%XX.X$$++XX2vexo O=+X+o4+ X",
" iX4h2+ .4XXX*XX-2xZ04+XoXooo *+",
"o#XX2-X5X.XXXXXX+XoqoOaoo-XXXw==",
"o=X XX XXX1-iX$XX +--o+Xo*XXXX++",
" XXrXX X$3j1+XiX+9ooo X X=$XX+*X",
"XoXX $X+-v5XXX-+ao*XX  +-XXXoel-",
"o9XXX dX-1+XX-$.X X  4XXXXeXX-r=",
"+oX *XXXoXXeX%XXX-  XXXXXi+ooioX",
"XOX   O1r-iX++iX X.XXX$.XX*XXXXX",
"X9XXoX -ll-XX5XX.XXXX4XX XoX4X+X",
"o o oXXo-r2oXXX-XX*XXXXX ..X.Xi+",
"oo-oroooX*+XX$=X*-4*aXXXX .XrXX*",
" XX9X9o o+oXXX*oX-*aC$XXXXX*XX..",
"9OXoXXoo--eXXX-X++XX*+*X7=++ X=X",
" X oOoOi*+XXoXX+XoXXXXX>c%w%o+X=",
"OooOXoOOooXwX+++XXi+*oX+*+*oeXXX"
};
