/* XPM */
static char *_b0968a7151a439390f7dfc9b4192075e3gdr8zAemlmPE52[] = {
/* columns rows colors chars-per-pixel */
"32 32 58 1 ",
"  c #172634",
". c #162735",
"X c #162937",
"o c #162B38",
"O c #162B3A",
"+ c #162D3A",
"@ c #162C3B",
"# c #162D3B",
"$ c #152F3E",
"% c #17313B",
"& c #17343D",
"* c #153140",
"= c #153042",
"- c #173740",
"; c #153345",
": c #143546",
"> c #153546",
", c #153646",
"< c #163C46",
"1 c #143A4C",
"2 c #143B53",
"3 c #133F56",
"4 c #184247",
"5 c #18434A",
"6 c #1A454B",
"7 c #154351",
"8 c #154153",
"9 c #134056",
"0 c #134158",
"q c #134259",
"w c #11475F",
"e c #164F5C",
"r c #124660",
"t c #104A62",
"y c #104F6C",
"u c #1A5A66",
"i c #1A5C68",
"p c #1A5E6B",
"a c #0F597E",
"s c #115775",
"d c #105578",
"f c #1B6A70",
"g c #13617F",
"h c #1C727B",
"j c #2F787B",
"k c #0D5F82",
"l c #0D6388",
"z c #0B6588",
"x c #0A719A",
"c c #097AA8",
"v c #087EAC",
"b c #0780AF",
"n c #0A82AD",
"m c #0984AE",
"M c #30ADB4",
"N c #0395C8",
"B c #13B3D2",
"V c #0AB3E0",
/* pixels */
"+too+o*+%%$$3X.@o@XX:+t@o @3X@X3",
" oo o0+6j<0*@@X:@9@%$$o X@..XXX@",
"o$+oo+t+5:%@ o:Xi%%yky$o:*:..X:@",
"+X0+XX+ ooX%@XXXX%ybNn0o%$  .@%X",
"o p+>1$XXX@@ro *@0xkNb<oX$  .%:@",
"oXXo1g8%@ XX  toX%tBBzyX@. X. X:",
" o$ $8s1X@  3 +oX%kVzcy+.*XX.9.X",
"9+*++p1>XX*  o+*$$yvby%XXXtoX@tX",
"X%+oo+ooor  ot:r<+$99%o.XX.3@*%X",
"Xo3- + o  3  :dd:X ++X7o:<$XX**.",
"o+%<++++:   $1r:+  + X.o1a3$.$:$",
" o-h-+>*+:* oo=oo$+t+:XX%3z1@XtX",
"++eMh<> o= ooo$$ o3 u...@@1:t@@X",
"0++e--o$o: o 3::ooooX.X2.o@XX.X.",
"+ o4+oo +o oX %o:$1:.... :$X.%@o",
"+o:1$too3ooo3@ o$3a7@XXXo :%@@X%",
"XX:k3%@X. *%o+XX<kwfo @:$o@o3$ .",
" t@0k<@ .3oX :+$:1hM33% @oXoX %X",
"@@XX::X3X.+Xo o +X 7o@uoX*XX.9::",
"$:..X. .@@1:t@+ X $*:@oo@%XoX $*",
".  tXXXX%3a1$XtX+8o+o   o:* X+%$",
" X$  *@@1a9@ +:+uX*oo  o:ooX$0d:",
"$3  . iX:<%XX;=   X  3 o X3oo:w=",
"X%X $XX $@.0$+$XX>  o  %Xtooot+o",
" @ X  @<w:tooot     .$$ X@% XX @",
"X3o @ X:dk:X 3   X+.X7X..  $0@@X",
"@ o X.X@:t<@ooo:++@@% @X...X  t@",
"oo:oi%@XX*%X *:$*:0-h@X ...XwXX%",
".oXu.3X.%@XXoo%oX:<hMe++XX.*@X X",
"9oXX.XoX::9XoX:X%+X+e+++5:%%XX:X",
".X.@%o@t@% XoXX@ +X+$XX5j<q%o@X:",
"@XX@Xo@@@@@9o@@@XXt+%+X@%$*@9X @"
};
