/* XPM */
static char *e0514b02db7e4790e312e375aae5c9abI3dqPdwlzQwWwx0u[] = {
/* columns rows colors chars-per-pixel */
"32 32 60 1 ",
"  c #171B26",
". c #181F2B",
"X c #17222E",
"o c #18222E",
"O c #172633",
"+ c #182330",
"@ c #172936",
"# c #162D3B",
"$ c #16313E",
"% c #18323F",
"& c #152F40",
"* c #153343",
"= c #183442",
"- c #173A44",
"; c #193B44",
": c #14364A",
"> c #143A4C",
", c #143C52",
"< c #16414E",
"1 c #18414D",
"2 c #134355",
"3 c #144854",
"4 c #1D4D54",
"5 c #12445A",
"6 c #16495B",
"7 c #1B4F5A",
"8 c #1F5055",
"9 c #1B515D",
"0 c #0F4462",
"q c #124761",
"w c #124963",
"e c #114E6A",
"r c #1A5360",
"t c #10526F",
"y c #0F567A",
"u c #105371",
"i c #135976",
"p c #10577A",
"a c #10597E",
"s c #14617E",
"d c #2C7072",
"f c #21747D",
"g c #0C5C81",
"h c #0F6384",
"j c #0C678D",
"k c #176980",
"l c #0A6F96",
"z c #0A709A",
"x c #217A83",
"c c #0977A4",
"v c #077FAE",
"b c #087CAA",
"n c #0686B6",
"m c #0A8AB6",
"M c #2EAEB4",
"N c #2EB1B9",
"B c #0392C6",
"V c #0AA8D3",
"C c #16B5D1",
"Z c #09B6E5",
/* pixels */
"@5*@#O$#@@*@,&O#@*@@*:5@@@*,O$@,",
"O*#O@,#4d*5$*#@**2*@&*#@@@XO#O@@",
"@#*#@$5<7*&#X#*Or*Otje#@::,O@@*#",
"#O>*@O*@@@@**##@@#ubBm5@&##@O#*@",
"@$9O-:#@@@#@5$X$#5zgVm&@##OOO**$",
"@$*@>s6##@@@XX5*@$5CCge@#OO@OO#*",
"@##@#2p>@@@#,X*#O$hZlcu@##O@#,XO",
",**@-r:*#*@@##$$##ennt@@#*5O##5*",
"O##@#-@@*2@#O5>w>##,,#&OO##,=#=#",
"@&,@@@O@@.,#@$yy*@@##&,@:>@&#=*O",
"@%*%#$$#*@+O#>0:#O#*O@O@>aq@@@=#",
"@O-x7>>$#:&O@#$@##>,O*#O#qg>O*5O",
"@#3Nx$*O#*@@##$$O*, 9=@&@@:*5**@",
"2*X31%#$@*@#O,::OO@@=@#>O*#O*@O@",
"$@@%#@@O#@O#O+*@5*:=@OOOX,*@X*##",
"@@*>@3$$,O$O,&+@*wa>@@@#=X****@@",
"#*>gq*&@#X$*$$@#:ysm#O#:,O$O>*O@",
"O,=5g:@OO,#@X*$#::dM2:@O@@O#@O$#",
"##O@>*&,O##@*@OO#@+;X>7O#*@@O>::",
"#=@O@O@#@@:$5:*@@X%%***@#*##@$#$",
"O@o5##O@#qa>O*5O%<$$#XO@$:#@##*@",
"@@#&@&:#>aw@O##-9#%@@#@@:#@@@5p*",
"*,@O@O9**>@*#**#%X@OX>#@OX,#@-w:",
"#&OO*@O@@##>$#:@O*OO@@@#*2$#O5$O",
"O#@OOO#,w>5O##2#O@@@@##O@*#@#&@@",
"O,=O@@O*pp$@#2XO@@@@@2$OOO@&,@*#",
"#O@O*OO@:w,#@@#:@#&@@@$O@O@@XO5*",
"@#*X5>##@$#@@#:#&,>7x#@O@O@@5&X&",
"#@=r ,&O&#$@##*@@**xN3#@@@O#&#@@",
",*#*@@@O->,O@@*@##@$3X#;9&*#X@*@",
"O#@@#@*5O$O@#O@#@@O###O8d*5**#@:",
"#O@##@$*#@*>@##$@*5@##@#@@*@,#@#"
};
