/* XPM */
static char *_b58850c64624f95e846ac6262ff18cfVCo2QGMk8bdKlX6J[] = {
/* columns rows colors chars-per-pixel */
"32 32 65 1 ",
"  c #172634",
". c #162735",
"X c #162937",
"o c #162B38",
"O c #162D3A",
"+ c #162C3B",
"@ c #162D3B",
"# c #152F3E",
"$ c #17343D",
"% c #153140",
"& c #153042",
"* c #153343",
"= c #173740",
"- c #153345",
"; c #143546",
": c #153546",
"> c #163A45",
", c #163C46",
"< c #14394C",
"1 c #143A4C",
"2 c #143B53",
"3 c #133F56",
"4 c #184247",
"5 c #1A454B",
"6 c #1C494E",
"7 c #154153",
"8 c #134056",
"9 c #134158",
"0 c #134259",
"q c #11475F",
"w c #164C59",
"e c #14495C",
"r c #164F5C",
"t c #16525F",
"y c #124660",
"u c #114860",
"i c #104A62",
"p c #104F6C",
"a c #1A5A66",
"s c #1A5C68",
"d c #1A5E6B",
"f c #0F597E",
"g c #0D5D7F",
"h c #115775",
"j c #145D71",
"k c #105578",
"l c #1C676C",
"z c #13617F",
"x c #19697A",
"c c #1C727B",
"v c #2F787B",
"b c #0B6588",
"n c #0A719A",
"m c #097AA8",
"M c #087EAC",
"N c #1F818A",
"B c #0780AF",
"V c #0A82AD",
"C c #0984AE",
"Z c #0684B2",
"A c #30ADB4",
"S c #32B0B7",
"D c #0395C8",
"F c #13B3D2",
"G c #0AB3E0",
/* pixels */
"OiooOo%OXO$O9o ##OXX-oi+X +3X# 8",
" oo o9=5v43%OOX;O3O#$&X X# X+ X#",
"o#OooOiO<;$o o;Xso#pbi$o-%#  X;X",
"OX9OXXO XX %oo  o$pMDV3X#O oXX$X",
"X so:1#XoX+#qo %#9nbDB<OX@   #;@",
"Xooo1z3$o  X  io $yFFgp @X X XX;",
" X# $7h1o#  3 Oo %bGbmpO %XX.8..",
"9#$Ood1:o # XXX$%#iMZp$X@XiXX@iX",
" %OooOXooq  Oi;q<X$88$o  X.3@%#X",
"oo9o O o  8 X;kk;XXoXX8o;<#.X%$ ",
" #owOOOO;   #<q;@XX@XX o<f8$ #;#",
"  oc=O;%O;#  #%XX@@uX;oX$8f<@XiX",
"#4xSNi, o% X#X##.o8Xa.. X@<;i@@.",
"9oOj$Oo$o9 o 3;;XXoX..X2X.#+X X.",
"# o$ooo Oo  X $X8$<;X X .;+XX*@X",
"oo-<$yoo3oo#-O X$8f<@XXXX $$@@X@",
"@X<f3$#X..$$@@X@<fql@X@$#X@X9@.X",
" u@3f<X .3.X ;@@;<lA$2$.+X.@X.$@",
"@@.X<;X3.XXoX X.@.X>X@aX#;.X.9%-",
"@;X X  X.#<;i@@ X.#$;@@X.$XXXX+%",
" . u.XXX$3f<XXi@@3@@X.X #%#.XX$X",
"XX@. -#X<f9X.#;@a@$XX. X;X@X#9k;",
"@8XXX a.;<$XX;$ . @ .3.X..9XX;i%",
"@@X %XX #+.9.$#X.%  X..@Xi@XXi@#",
" X..  @<q-i@X@i. ..  $$ X@$.XXX@",
"X8XX@ X*kk-X 8  ..# X8o.  XX9X@X",
"o o o..@;i<#@@X;#o$X$ o. ..X..i@",
"oo;ou@ooX##X #;@$;9$cXX.. .@q..$",
" X.a.8o.$+XXX@$o -,cAtoXXX $XXX.",
"8OXoXooo;$3.X.;o#oX#t@o@,-## X;X",
" o oOooi@$ XXXX@ XX@XX.6v<9%@@X;",
"OooOooOOX@@3X#@@XXi@$@X@.@$@3X.@"
};
