/* XPM */
static char *result[] = {
/* columns rows colors chars-per-pixel */
"32 32 250 2 ",
"   c #262C2F",
".  c #2F3438",
"X  c #383E42",
"o  c #42494F",
"O  c #4F585E",
"+  c #715F7C",
"@  c #A00306",
"#  c #A30406",
"$  c #A60605",
"%  c #A40606",
"&  c #A70606",
"*  c #A50907",
"=  c #A70B06",
"-  c #AA0804",
";  c #AA0F05",
":  c #AE0C04",
">  c #B10B03",
",  c #B20C03",
"<  c #B90F02",
"1  c #B31003",
"2  c #B61703",
"3  c #BC1202",
"4  c #BD1302",
"5  c #BE1402",
"6  c #BC1702",
"7  c #B21803",
"8  c #B41E03",
"9  c #BD2706",
"0  c #BD2902",
"q  c #BF2902",
"w  c #BF3302",
"e  c #C41701",
"r  c #C61801",
"t  c #C31D02",
"y  c #C21F02",
"u  c #CF1D00",
"i  c #CC1E01",
"p  c #D01D00",
"a  c #D32000",
"s  c #C63D02",
"d  c #CC3E01",
"f  c #CC3F01",
"g  c #D73300",
"h  c #D03701",
"j  c #D43700",
"k  c #D93101",
"l  c #D83800",
"z  c #DC3B00",
"x  c #E02800",
"c  c #E52900",
"v  c #E62B00",
"b  c #E82B00",
"n  c #EA2D00",
"m  c #EB2D00",
"M  c #EB2E00",
"N  c #E63100",
"B  c #EC3200",
"V  c #E53E00",
"C  c #EB3A00",
"Z  c #EE3D00",
"A  c #C44103",
"S  c #CB4301",
"D  c #D74100",
"F  c #DC4200",
"G  c #DF4700",
"H  c #CF5006",
"J  c #D35203",
"K  c #D65001",
"L  c #D75606",
"P  c #DD5B00",
"I  c #D95C00",
"U  c #E04000",
"Y  c #E64100",
"T  c #E94000",
"R  c #EC4200",
"E  c #E64B00",
"W  c #EF4900",
"Q  c #ED4D00",
"!  c #F04B00",
"~  c #F14B00",
"^  c #E45000",
"/  c #E25400",
"(  c #E05600",
")  c #E95100",
"_  c #EE5102",
"`  c #EE5400",
"'  c #EF5600",
"]  c #E85D00",
"[  c #F15000",
"{  c #F15300",
"}  c #F25500",
"|  c #F15700",
" . c #F25700",
".. c #F15A00",
"X. c #F35A00",
"o. c #F15C00",
"O. c #F25D00",
"+. c #F25F00",
"@. c #DE6100",
"#. c #D6640B",
"$. c #D6641A",
"%. c #E76B00",
"&. c #EA6A00",
"*. c #E96E00",
"=. c #EC6E00",
"-. c #F36400",
";. c #F66700",
":. c #F16801",
">. c #F26A00",
",. c #F16803",
"<. c #F36902",
"1. c #F66800",
"2. c #EC7400",
"3. c #F57000",
"4. c #F67000",
"5. c #F57301",
"6. c #F77200",
"7. c #F77400",
"8. c #F67500",
"9. c #F57700",
"0. c #F67800",
"q. c #F67C00",
"w. c #F57E02",
"e. c #F87900",
"r. c #F87A00",
"t. c #FB7E00",
"y. c #FA7F00",
"u. c #EB8505",
"i. c #F98500",
"p. c #F88402",
"a. c #FD8700",
"s. c #F78C03",
"d. c #F48907",
"f. c #F68907",
"g. c #F68A06",
"h. c #FD8E00",
"j. c #F68D0C",
"k. c #FD9601",
"l. c #F59710",
"z. c #F79512",
"x. c #F99E14",
"c. c #FCA104",
"v. c #FAAD0E",
"b. c #F9A812",
"n. c #FAB013",
"m. c #FCB211",
"M. c #F9B615",
"N. c #FCB714",
"B. c #F9B31C",
"V. c #EE9229",
"C. c #F7AF2B",
"Z. c #FCB422",
"A. c #F9BB2C",
"S. c #EFA93A",
"D. c #FDBE32",
"F. c #F7C615",
"G. c #FBC111",
"H. c #FCC013",
"J. c #FDC714",
"K. c #FFC811",
"L. c #FDC21A",
"P. c #FCC818",
"I. c #FBC81D",
"U. c #FED214",
"Y. c #FED218",
"T. c #FDD51A",
"R. c #FEDA1C",
"E. c #FEC721",
"W. c #FDCF28",
"Q. c #FCD322",
"!. c #FFD235",
"~. c #FED13E",
"^. c #FFE420",
"/. c #FFE825",
"(. c #FDF127",
"). c #FFF22D",
"_. c #FFE932",
"`. c #FEE63A",
"'. c #FEEB38",
"]. c #FEF53D",
"[. c #F2915C",
"{. c #F6A85C",
"}. c #DE9873",
"|. c #FBB566",
" X c #F5A677",
".X c #F6A979",
"XX c #FBCE45",
"oX c #FFD241",
"OX c #FCDA49",
"+X c #FFD84A",
"@X c #FBDC4C",
"#X c #FBC552",
"$X c #FBCF51",
"%X c #FBD95E",
"&X c #FEE74B",
"*X c #FEE44D",
"=X c #FEE95C",
"-X c #FDC76B",
";X c #FDD260",
":X c #FDD378",
">X c #FDD07F",
",X c #FBE260",
"<X c #FBE36B",
"1X c #FEFB63",
"2X c #FEFC61",
"3X c #FEE873",
"4X c #FBE07C",
"5X c #FBE67F",
"6X c #FDE47C",
"7X c #F9D594",
"8X c #FDEA8B",
"9X c #FCEF88",
"0X c #FDF480",
"qX c #FEFB83",
"wX c #FDF88C",
"eX c #FDFC8C",
"rX c #FCE09D",
"tX c #FDF794",
"yX c #FDF895",
"uX c #FDFD98",
"iX c #FBEDA2",
"pX c #FBE8AB",
"aX c #FDF9A3",
"sX c #FDFDA4",
"dX c #FCF0AC",
"fX c #FDFBAB",
"gX c #FDFCAA",
"hX c #FCF8B3",
"jX c #FCF0BE",
"kX c #FDFCBA",
"lX c #FDF9BD",
"zX c #FDFAC3",
"xX c #FBF1C9",
"cX c #FDFBCA",
"vX c #FCECD2",
"bX c #FCF3DE",
"nX c #FCF9DD",
"mX c #FBEFE4",
"MX c #FCFAEB",
"NX c #FCFDEA",
"BX c #FCFAEC",
"VX c #FCFCF1",
"CX c #FCFAF7",
"ZX c #FCFCF4",
"AX c #FCFCF7",
"SX c #FCFBFA",
"DX c #FCFCF9",
"FX c gray99",
"GX c #FCFCFD",
"HX c #FCFCFE",
/* pixels */
". X X X X X X X X o X o X X X X X X X X X X X X X X X X X X .   ",
"o o o o o o o o o o o o o o o o o o o o o o o o o o o o o o X . ",
"o o o o o o o o o o o o o o o o o o o o o o o o o o o o o o o X ",
"o o o o o o o o o o o o o o o o o o o o o o o o o o o o o o o X ",
"o o o o o o o o o o o o o o o o o o o o o o o o o o o o o o o X ",
"o o o o o o o o o o o o o o o o o o o o o b o o o o o o o o o X ",
"o o o o o o o o o o o o o o o M o o & o o u o o o o o o o o o X ",
"o o o o o o o o o o o x , o o o o o - o v o o o o o o o o o o X ",
"o o o o o o o o o o o > # o m n o o ( o M o o o o o o o o o o X ",
"o o o o o o o o o o o $ o o o o o o a.[ N 1.o o o o o o o o o X ",
"o o o o o o o o o o o a 5 o o o o h.! o.6 U o o o o o o o o o X ",
"o o o o o o o o o c < e 3 % >.) K 3.` T G &.y o o o o o o o o X ",
"o o o o o o o o o o l g * 8 Q V ' 0.q F t.y.s o o o o o o o o X ",
"o o o o o o o o o C O.^ ; u.4.o Z 8.*.] 2./ A o o o o o o o o X ",
"o o o o o o o o o 6.e.j 9 #XZ.o o E =.S P J F.o o o o o o o X X ",
"X o o o o o p o o 7.%.+.H 5X9X#.= Y h L S.l.^.o o o o o o X   . ",
"X X X X X X r X X { q.z X !.jXA.. i :.%X,Xv.9.X X X X X X X X X ",
"o o o o o o o o 1 4 0 : @.(.oX+Xk.I m.tX_.D.R f @ o o o o o o o ",
"o o o o o o o o d 7 t k V.P.@X).i.$.Q.zXsXdX,.2 w o o o o o o o ",
"o o o o o o o o W o | j.>X{.].I.[.}.OXwX6XrX<.D o o o o o o o o ",
"o o o o o o o o -.o J.f.4XxX`.x.mXiX&X~.n.b.w.G.o o o o o o o o ",
"o o o o o o } B o s.Y._ <XMX3XW.nXbX*Xp.H.L.c.d.o o o o o o o o ",
"o o o o o o  ...o U.K.C.yXaX$X/.1XuXhX.Xz.-XN.~ o o o o o o o o ",
"o o o o o o o 5.T.R.'.0XgXlXXX=XcX2XVXBX|.:Xo ;.X.o o o o o o o ",
"o o o o o o o o g.B.8XeXZXAXqXNXDXkXfXpX XE.M.r.o o o o o o o o ",
"o o o o o o o o o o o ;XvXSXHXGXFXCX7Xo o o o o o o o o o o o o ",
"o o o o o o o o o o o o o o o X + o o o o o o o o o o o o o o o ",
"o o o o o o o o o o o o o o o X + o o o o o o o o o o o o o o o ",
"o o o o o o o o o o o o o o o X O o o o o o o o o o o o o o o o ",
"o o o o o o o o o o o o o o o X O o o o o o o o o o o o o o o o ",
"o o o o o o o o o o o o o o X X o o o o o o o o o o o o o o o o ",
"o o o o o o o o o o o o o X   . X o o o o o o o o o o o o o o o "
};
