/* XPM */
static char *result[] = {
/* columns rows colors chars-per-pixel */
"32 32 83 1 ",
"  c #262C2F",
". c #2F3438",
"X c #383E42",
"o c #42494F",
"O c #4F585E",
"+ c #715F7C",
"@ c #6C33FE",
"# c #6A36FD",
"$ c #6C37FD",
"% c #653FFE",
"& c #6E38FE",
"* c #693DFE",
"= c #6D3FFE",
"- c #6E3FFF",
"; c #7639FE",
": c #713EFD",
"> c #713EFF",
", c #763CFD",
"< c #753DFE",
"1 c #7C3EFF",
"2 c #6B45FE",
"3 c #6B4DFD",
"4 c #7440FF",
"5 c #704AFE",
"6 c #7A48FD",
"7 c #794AFE",
"8 c #7B4AFE",
"9 c #7D48FE",
"0 c #7E48FE",
"q c #7F49FE",
"w c #7C4AFE",
"e c #7F4BFE",
"r c #794EFD",
"t c #7F4EFE",
"y c #7454FE",
"u c #7C51FE",
"i c #755DFD",
"p c #7B61FE",
"a c #7A61FF",
"s c #756CFF",
"d c #766DFE",
"f c #7A7AFF",
"g c #8439FF",
"h c #843FFF",
"j c #8244FD",
"k c #8045FE",
"l c #8648FE",
"z c #804DFE",
"x c #874DFE",
"c c #854FFF",
"v c #894FFF",
"b c #8E4FFD",
"n c #8D4CFE",
"m c #8655FF",
"M c #8B55FD",
"N c #8D57FE",
"B c #8159FE",
"V c #855CFE",
"C c #875EFE",
"Z c #895DFE",
"A c #9250FF",
"S c #9955FF",
"D c #9159FE",
"F c #935EFF",
"G c #A35CFE",
"H c #8966FD",
"J c #8269FE",
"K c #9463FE",
"L c #9264FD",
"P c #9B65FE",
"I c #9D6DFE",
"U c #887EFD",
"Y c #887EFF",
"T c #897EFF",
"R c #A760FE",
"E c #A267FE",
"W c #AB66FE",
"Q c #A26FFE",
"! c #B07AFE",
"~ c #8982FF",
"^ c #8987FF",
"/ c #B8A7FF",
"( c #B3A9FF",
/* pixels */
".XXXXXXXXoXoXXXXXXXXXXXXXXXXXX. ",
"ooooooooooooooooooooooooooooooX.",
"oooooooooooooooooooooooooooooooX",
"oooooooooooooooooooooooooooooooX",
"oooooooooooooooooooooooooooooooX",
"oooooooooooooooooooooooooooooooX",
"oooooooooooll4--%%2ooooooooooooX",
"oooooooooooll4--%%2ooooooooooooX",
"oooooooooooxxq11008::ooooooooooX",
"ooooooo6oooKKpkkffshh;oooooooooX",
"ooooooo6oooKKpkkffshh;oooooooooX",
"ooooooo9ooQooooooo*~~u&&#ooooooX",
"oooooooMnnoooooooooooG>>=55ooooX",
"oooooooMnnoooooooooooG>>=55ooooX",
"oooooooovvooooooooooooaawDDoooXX",
"XooooooommooooooooooooTTNzzooX .",
"XXXXXXXXmmXXXooo.XXXXXTTNzzXXXXX",
"ooooLoojccooooooX+oooo((W77ooooo",
"ooooLoojccoooooo+ooooo((W77ooooo",
"oooooIIbZZoooooo+oooog^^oCCooooo",
"ooooooo<ooPooooo+ooyytYYoooooooo",
"ooooooo<ooPooooX+ooyytYYoooooooo",
"oooooooorre,,$@@33URRJddoooooooo",
"ooooooooooFEE!//SSAooioooooooooo",
"ooooooooooFEE!//SSAooioooooooooo",
"oooooooooooHHVBB+ooooooooooooooo",
"oooooooooooooooX+ooooooooooooooo",
"oooooooooooooooX+ooooooooooooooo",
"oooooooooooooooXOooooooooooooooo",
"oooooooooooooooXOooooooooooooooo",
"ooooooooooooooXXoooooooooooooooo",
"oooooooooooooX .Xooooooooooooooo"
};
