/* XPM */
static char *result[] = {
/* columns rows colors chars-per-pixel */
"32 32 117 2 ",
"   c #262C2F",
".  c #2F3438",
"X  c #383E42",
"o  c #42494F",
"O  c #4F585E",
"+  c #715F7C",
"@  c #6B37FE",
"#  c #6D37FE",
"$  c #663FFE",
"%  c #6F3BFF",
"&  c #6D3FFE",
"*  c #6E3FFF",
"=  c #6F3FFF",
"-  c #7A35FF",
";  c #7639FE",
":  c #713EFD",
">  c #703EFE",
",  c #723FFE",
"<  c #773DFE",
"1  c #763EFF",
"2  c #7C3EFF",
"3  c #6D47FF",
"4  c #7541FF",
"5  c #7E47FE",
"6  c #7049FD",
"7  c #764CFE",
"8  c #7849FD",
"9  c #7948FE",
"0  c #7B48FE",
"q  c #7B4AFE",
"w  c #7B4BFF",
"e  c #7E49FF",
"r  c #7F4BFE",
"t  c #7A4EFD",
"y  c #7B4EFE",
"u  c #7851FE",
"i  c #7956FF",
"p  c #765EFE",
"a  c #7B5CFE",
"s  c #7E5CFF",
"d  c #7465FF",
"f  c #7C64FE",
"g  c #756CFD",
"h  c #7A6DFE",
"j  c #7C74FF",
"k  c #853DFE",
"l  c #8043FE",
"z  c #8542FF",
"x  c #8244FE",
"c  c #8345FE",
"v  c #8046FF",
"b  c #8246FE",
"n  c #8049FE",
"m  c #804BFE",
"M  c #804CFD",
"N  c #824CFE",
"B  c #804FFE",
"V  c #844CFE",
"C  c #864CFE",
"Z  c #8D4BFE",
"A  c #8A4EFF",
"S  c #8C4DFE",
"D  c #8D4DFE",
"F  c #944DFF",
"G  c #8550FE",
"H  c #8652FE",
"J  c #8755FF",
"K  c #8C52FF",
"L  c #8C56FE",
"P  c #8159FE",
"I  c #8358FF",
"U  c #8558FE",
"Y  c #865DFD",
"T  c #865DFE",
"R  c #8E58FE",
"E  c #885DFD",
"W  c #9150FF",
"Q  c #9152FE",
"!  c #9157FE",
"~  c #9456FF",
"^  c #9656FF",
"/  c #9D57FE",
"(  c #9158FD",
")  c #925EFE",
"_  c #935EFF",
"`  c #9C5FFF",
"'  c #A653FF",
"]  c #A65FFE",
"[  c #8E63FE",
"{  c #8864FD",
"}  c #806AFE",
"|  c #9264FE",
" . c #9364FE",
".. c #9B65FE",
"X. c #9B67FE",
"o. c #9D6CFF",
"O. c #8573FF",
"+. c #8B72FE",
"@. c #887DFE",
"#. c #A060FF",
"$. c #A660FE",
"%. c #A366FE",
"&. c #A06BFE",
"*. c #A469FE",
"=. c #AF68FF",
"-. c #A272FE",
";. c #AF74FE",
":. c #7E8CFE",
">. c #7290FF",
",. c #8B82FE",
"<. c #9082FE",
"1. c #9B85FD",
"2. c #B186FE",
"3. c #BD8CFE",
"4. c #AF90FE",
"5. c #B099FF",
"6. c #B8A7FF",
/* pixels */
". X X X X X X X X o X o X X X X X X X X X X X X X X X X X X .   ",
"o o o o o o o o o o o o o o o o o o o o o o o o o o o o o o X . ",
"o o o o o o o o o o o o o o o o o o o o o o o o o o o o o o o X ",
"o o o o o o o o o o o o o o o o o o o o o o o o o o o o o o o X ",
"o o o o o o o o o o o o 6 6 ( M M 8 8 Y o o o o o o o o o o o X ",
"o o o o o o o o o o o @ & & q R R =.=.o o o o o o o o o o o o X ",
"o o o o o o o o o o o @ & & q R R =.=.o o o o o o o o o o o o X ",
"o o o o o o o o o o o # > > a +.+.5.5.,.@.@.g o o o o o o o o X ",
"o o o o o o o o o ; ; y ^ ^ 7 N N X.X.Z B B } p p o o o o o o X ",
"o o o o o o o o o ; ; y ^ ^ 7 N N X.X.Z B B } p p o o o o o o X ",
"o o o o o o o o : z z O.% % , j j >.>.:.i i ] o o o o o o o o X ",
"o o o o o o 3 3 w d d = - - Q / / ' ' s U U <.W W o o o o o o X ",
"o o o o o o 3 3 w d d = - - Q / / ' ' s U U <.W W o o o o o o X ",
"o o o o o o $ $ 5 h h 9 4.4.1.o o o o o ! ! u ` ` o o o o o o X ",
"o o o o o o * * 2 l l v 3.3.o o o ) ) o -.-.x 6.6.P o o o o X X ",
"X o o o o o * * 2 l l v 3.3.o o o ) ) o -.-.x 6.6.P o o o X   . ",
"X X X X X X 4 4 m f f I %.%.o F F X X k #.#.< ;.;.T X X X X X X ",
"o o o o o o 4 4 m f f I %.%.o F F + o k #.#.< ;.;.T o o o o o o ",
"o o o o o o b b C [ [ o o o V K K G G | n n < *.*.{ o o o o o o ",
"o o o o o o o o o o o &.$.$.o ~ ~ 2.2.o ....r _ _ o o o o o o o ",
"o o o o o o o o o o o &.$.$.o ~ ~ 2.2.o ....r _ _ o o o o o o o ",
"o o o o o o o o o o o o D D A J J H H E o o t o o o o o o o o o ",
"o o o o o o o o o 0 0 e L L o X + c c S 1 1 o o o o o o o o o o ",
"o o o o o o o o o 0 0 e L L o o + c c S 1 1 o o o o o o o o o o ",
"o o o o o o o o o o o o o o o X + o o o.o o o o o o o o o o o o ",
"o o o o o o o o o o o o o o o X +  . .o o o o o o o o o o o o o ",
"o o o o o o o o o o o o o o o X +  . .o o o o o o o o o o o o o ",
"o o o o o o o o o o o o o o o X + o o o o o o o o o o o o o o o ",
"o o o o o o o o o o o o o o o X O o o o o o o o o o o o o o o o ",
"o o o o o o o o o o o o o o o X O o o o o o o o o o o o o o o o ",
"o o o o o o o o o o o o o o X X o o o o o o o o o o o o o o o o ",
"o o o o o o o o o o o o o X   . X o o o o o o o o o o o o o o o "
};
