/* XPM */
static char *result[] = {
/* columns rows colors chars-per-pixel */
"32 32 83 1 ",
"  c #262C2F",
". c #2F3438",
"X c #383E42",
"o c #42494F",
"O c #4F585E",
"+ c #715F7C",
"@ c #6C33FE",
"# c #6B37FE",
"$ c #6C37FD",
"% c #6D37FE",
"& c #663FFE",
"* c #6A3EFF",
"= c #6D3FFE",
"- c #6E3FFF",
"; c #743BFD",
": c #7639FE",
"> c #713EFD",
", c #703EFE",
"< c #763EFF",
"1 c #7C3EFF",
"2 c #6D47FF",
"3 c #6B4AFD",
"4 c #7541FF",
"5 c #7E47FE",
"6 c #7049FD",
"7 c #7849FD",
"8 c #7B48FE",
"9 c #7B4AFE",
"0 c #7B4BFF",
"q c #7E49FF",
"w c #7F4BFE",
"e c #7A4EFD",
"r c #7C4EFE",
"t c #7454FE",
"y c #765EFE",
"u c #7A5EFE",
"i c #7B66FE",
"p c #7469FF",
"a c #756CFD",
"s c #7A73FE",
"d c #8539FE",
"f c #843FFF",
"g c #8045FE",
"h c #8345FE",
"j c #8246FE",
"k c #804BFE",
"l c #804CFD",
"z c #804EFE",
"x c #864CFE",
"c c #844EFE",
"v c #8C4BFD",
"b c #884EFE",
"n c #8C4DFE",
"m c #8554FE",
"M c #8C56FE",
"N c #8159FE",
"B c #865DFD",
"V c #865DFE",
"C c #8E58FE",
"Z c #885CFD",
"A c #9150FF",
"S c #9158FD",
"D c #935EFF",
"F c #9C5FFF",
"G c #A45DFF",
"H c #8F63FE",
"J c #8864FD",
"K c #806AFE",
"L c #9364FE",
"P c #9B65FE",
"I c #9D6CFF",
"U c #8979FE",
"Y c #887DFE",
"T c #A760FE",
"R c #A469FE",
"E c #A26FFE",
"W c #AF68FF",
"Q c #AF74FE",
"! c #8982FF",
"~ c #8A86FE",
"^ c #908AFE",
"/ c #B2A0FF",
"( c #B8A7FF",
/* pixels */
".XXXXXXXXoXoXXXXXXXXXXXXXXXXXX. ",
"ooooooooooooooooooooooooooooooX.",
"oooooooooooooooooooooooooooooooX",
"oooooooooooooooooooooooooooooooX",
"oooooooooooo66Sll77BoooooooooooX",
"ooooooooooo#==9CCWWooooooooooooX",
"ooooooooooo#==9CCWWooooooooooooX",
"ooooooooooo%,,uUU//~YYaooooooooX",
"ooooooooo::rGGooooodzzKyyooooooX",
"ooooooooo::rGGooooodzzKyyooooooX",
"oooooooo>ff!oooooooottTooooooooX",
"oooooo220pp*oooooooooo^AAooooooX",
"oooooo220pp*oooooooooo^AAooooooX",
"oooooo&&5ssooooooooooo3FFooooooX",
"oooooo--1ggooooooooooo@((NooooXX",
"Xooooo--1ggooooooooooo@((NoooX .",
"XXXXXX44kiiXXooo.XXXXX$QQVXXXXXX",
"oooooo44kiioooooX+oooo$QQVoooooo",
"oooooojjxHHooooo+ooooo;RRJoooooo",
"oooooooooooEoooo+oooPPwDDooooooo",
"oooooooooooEoooo+oooPPwDDooooooo",
"oooooooooooovvbmmccZooeooooooooo",
"ooooooooo88qMMoX+hhn<<oooooooooo",
"ooooooooo88qMMoo+hhn<<oooooooooo",
"oooooooooooooooX+ooIoooooooooooo",
"oooooooooooooooX+LLooooooooooooo",
"oooooooooooooooX+LLooooooooooooo",
"oooooooooooooooX+ooooooooooooooo",
"oooooooooooooooXOooooooooooooooo",
"oooooooooooooooXOooooooooooooooo",
"ooooooooooooooXXoooooooooooooooo",
"oooooooooooooX .Xooooooooooooooo"
};
