/* XPM */
static char *result[] = {
/* columns rows colors chars-per-pixel */
"32 32 32 1 ",
"  c #0C1128",
". c #0C1228",
"X c #0D1228",
"o c #262C2F",
"O c #2F3438",
"+ c #383E42",
"@ c #08287A",
"# c #42494F",
"$ c #4F585E",
"% c #3B59C5",
"& c #3C58C5",
"* c #3C59C5",
"= c #4B6ACD",
"- c #4C6BCD",
"; c #4E68D1",
": c #526BD3",
"> c #506FD0",
", c #5A77D3",
"< c #6B81E2",
"1 c #6E83E3",
"2 c #7287E7",
"3 c #859AE8",
"4 c #8BA1E8",
"5 c #92A8E8",
"6 c #92A8E9",
"7 c #8DA1F1",
"8 c #92A5F3",
"9 c #96A8F3",
"0 c #9AACF4",
"q c #B2C1F3",
"w c #C6CEF4",
"e c #DAE0F3",
/* pixels */
"O++++++++#+#++++++++++++++++++Oo",
"############2#################+O",
"###############################+",
"##################-############+",
"##############2################+",
"##############-2###############+",
"################2##############+",
"################22#############+",
"########6#####-222#############+",
"##########-##-2222###2#########+",
"##########-#-22222##-2#########+",
"##########-262222##-22#########+",
"##########-222222#-1222########+",
"#######6#-222222#--222#2##-####+",
"########-2222722-1222>125#####++",
"+#######-6228822222822226####+oO",
"+++++++=622288888888822236+6++++",
"#######,622288888888822222######",
"#######4222888qqqqq9822222#6####",
"#######2222. .0qqq. ..2222######",
"#######2222XXeXqq8XwXX2222######",
"#######%2222XXX888XXX222%#######",
"########*2222XX888XX222*########",
"########**22*222*22<2***########",
"########@%%%&22:%:%;:%%@########",
"#########@************@#########",
"##########@@@*******@@##########",
"###########@@@@@@@@@@###########",
"###############+$###############",
"###############+$###############",
"##############++################",
"#############+oO+###############"
};
