/* XPM */
static char *result[] = {
/* columns rows colors chars-per-pixel */
"32 32 38 1 ",
"  c #0C1228",
". c #0D1228",
"X c #262C2F",
"o c #2F3438",
"O c #121B49",
"+ c #141E54",
"@ c #383E42",
"# c #08287A",
"$ c #3A4360",
"% c #42494F",
"& c #4F585E",
"* c #133289",
"= c #3B59C5",
"- c #3C59C5",
"; c #314FFE",
": c #435EC9",
"> c #4C6BCD",
", c #4C6ACE",
"< c #5E70C2",
"1 c #5069D1",
"2 c #506BD2",
"3 c #516BD2",
"4 c #526BD3",
"5 c #5C74D9",
"6 c #637ADE",
"7 c #6E83E3",
"8 c #7286E6",
"9 c #7287E7",
"0 c #788CE9",
"q c #A5AABE",
"w c #889FE5",
"e c #89A0E5",
"r c #8EA3E8",
"t c #92A8E9",
"y c #8DA1F1",
"u c #92A5F3",
"i c #B1C0F2",
"p c #B2C1F3",
/* pixels */
"o@@@@@@@@%@%@@@@>9@>@@@@@@@@@@oX",
"%%%%%%%%%%%%%%%%9%%%%%%%%%%%%%@o",
"%%%%%%%%%%%%%%%%%8%%%%%%%%%%%%%@",
"%%%%%%%%%%%%%%%%%%%%%%%%%%%%%%%@",
"%%%%%%%%%%%%%%%%%%%%%%%%%%%%%%%@",
"%%%%%%%%%%%%%%%%>%%%%%%%%%%%%%%@",
"%%%%%%%%%%%%%%%%%>%%%%%%%%%%%%%@",
"%%%%%%%%%%%%%%%%%,9%%%%%%%%%%%%@",
"%%%%%%%%%%%>%%%%>>9%%%%%%%%%%%%@",
"%%%%%%%%%%%>%%%>99999%%%%%%%%%%@",
"%%%%%%%%%%>>%%>>99999%%>%%%%%%%@",
"%%%%%%%%%>>9899>9999999>%%%%%%%@",
"%%%%%%%%%>99999>9999999-%%%%%%%@",
"%%%%%%%%%>9999999999999>e%%%9%%@",
"%%%%%%%%>9999y99u9999997w%%%%%@@",
"@%%%%%%%tt990uuuu9u999u9rt%%%@Xo",
"@@@@@@@@9999uuuuuuuuuu999t@@@@@@",
"%%%%%%%99999uuuuuuuuuu9999%%%%%%",
"%%%%%%%9999. .ppppp...9999%%%%%%",
"%%%%%%%6999 Oq$ppi q  991=%%%%%%",
"%%%%%%%--99.+;.ppu.;.999:-%%%%%%",
"%%%%%%%--999<..uuu..9999-%%%%%%%",
"%%%%%%%%-999999uuu999-9-%%%%%%%%",
"%%%%%%%%----99-999999---%%%%%%%%",
"%%%%%%%%#===29=59344===#%%%%%%%%",
"%%%%%%%%%#--=---------#%%%%%%%%%",
"%%%%%%%%%%##*-------##%%%%%%%%%%",
"%%%%%%%%%%%##########%%%%%%%%%%%",
"%%%%%%%%%%%%%%%@&%%%%%%%%%%%%%%%",
"%%%%%%%%%%%%%%%@&%%%%%%%%%%%%%%%",
"%%%%%%%%%%%%%%@@%%%%%%%%%%%%%%%%",
"%%%%%%%%%%%%%@Xo@%%%%%%%%%%%%%%%"
};
