/* XPM */
static char *result[] = {
/* columns rows colors chars-per-pixel */
"32 32 39 1 ",
"  c #0C1228",
". c #0D1228",
"X c #262C2F",
"o c #2F3438",
"O c #383E42",
"+ c #29325C",
"@ c #08287A",
"# c #3A4360",
"$ c #42494F",
"% c #4F585E",
"& c #3754BE",
"* c #3B59C5",
"= c #3C59C5",
"- c #314EFE",
"; c #314FFE",
": c #425DC8",
"> c #435EC9",
", c #4864CD",
"< c #4B6ACD",
"1 c #4C6BCD",
"2 c #526BD3",
"3 c #637CDC",
"4 c #7380C4",
"5 c #6D83E3",
"6 c #6E83E3",
"7 c #7287E7",
"8 c #768BE7",
"9 c #798EE9",
"0 c #7A8EEA",
"q c #7E93EB",
"w c #A5AABE",
"e c #909CC8",
"r c #899CF0",
"t c #89A0E5",
"y c #92A8E9",
"u c #92A5F3",
"i c #9AACF4",
"p c #9EB1F3",
"a c #B2C1F3",
/* pixels */
"oOOOOOOOO$O$OOOOOOOOOOOOOOOOOOoX",
"$$$$$$$$$$$$$$$$$$$$$$$$$$$$$$Oo",
"$$$$$$$$$$$$$$$$$$$$$$$$$$$$$$$O",
"$$$$$$$$$$$$$$$$$$$$$$$$$$$$$$$O",
"$$$$$$$$$$$$$7$$$$$$$$$$$$$$$$$O",
"$$$$$$$$$$$$$7$$$$$$$$$$$$$$$$$O",
"$$$$$$$$$$$$17$$$$$$$$$$$$$$$$$O",
"$$$$$$$$$$$$<7$$$$$$$$$$$$$$$$$O",
"$$$$$$$$$$$$177$$$1$$$$$$$$$$$$O",
"$$$$$$$$$$$$$777$$$3$$$$$$$$$$$O",
"$$$$$$$$$$$$$777$$$3$$$$$$$$$$$O",
"$$$$$$$$$1$$y777$$177$$$$$$$$$$O",
"$$$$$$$$$1$yy777$$177$$$$$$$$$$O",
"$$$$$$$$1t$77u77$1777$1y$$$$$$$O",
"$$$$$$$$15877u97677q716$$$$$$$OO",
"O$$$$$$$$6777u0777uu777$$$$$$OXo",
"OOOOOOOO1877uuuuuuuuu77yOOOOOOOO",
"$$$$$$$$y777uuiuuuuuu777$$$$$$$$",
"$$$$$$$y777uuaaaaaapu7777$$$$$$$",
"$$$$$$$7777  weaaa#4  777$$$$$$$",
"$$$$$$$7777..; aau.-.7777$$$$$$$",
"$$$$$$$7777777+uuu7777777$$$$$$$",
"$$$$$$$$7>7777ruuu777777$$$$$$$$",
"$$$$$$$$===7777777=77===$$$$$$$$",
"$$$$$$$$@&**27:722*,***@$$$$$$$$",
"$$$$$$$$$@====*====*==@$$$$$$$$$",
"$$$$$$$$$$@@@=*====*@@$$$$$$$$$$",
"$$$$$$$$$$$@@@@@@@@@@$$$$$$$$$$$",
"$$$$$$$$$$$$$$$O%$$$$$$$$$$$$$$$",
"$$$$$$$$$$$$$$$O%$$$$$$$$$$$$$$$",
"$$$$$$$$$$$$$$OO$$$$$$$$$$$$$$$$",
"$$$$$$$$$$$$$OXoO$$$$$$$$$$$$$$$"
};
