/* XPM */
static char *result[] = {
/* columns rows colors chars-per-pixel */
"32 32 32 1 ",
"  c #0C1129",
". c #0C1228",
"X c #0D1228",
"o c #262C2F",
"O c #2F3438",
"+ c #383E42",
"@ c #08287A",
"# c #3A4360",
"$ c #42494F",
"% c #4F585E",
"& c #3B59C5",
"* c #3C59C5",
"= c #314EFE",
"- c #314FFE",
"; c #4C6ACD",
": c #4C6BCD",
"> c #516ECE",
", c #506BD2",
"< c #526BD3",
"1 c #506FD0",
"2 c #637CDC",
"3 c #6E83E3",
"4 c #7287E7",
"5 c #A5AABE",
"6 c #838EC4",
"7 c #859AE8",
"8 c #869AEF",
"9 c #90A6E9",
"0 c #92A8E9",
"q c #8DA1F1",
"w c #92A5F3",
"e c #B2C1F3",
/* pixels */
"O++++++++$+$++++++++++++++++++Oo",
"$$$$$$$$$$$$$$$$$$$$$$$$$$$$$$+O",
"$$$$$$$$$$$$$$$$$$$$$$$$$$$$$$$+",
"$$$$$$$$$$$$4$$$$$$$$$$$$$$$$$$+",
"$$$$$$$$$$$$$$$$$$$$$$$$$$$$$$$+",
"$$$$$$$$$$$$$$$$$$:$$$$$$$$$$$$+",
"$$$$$$$$$$$:$$4$$$$$$$$$$$$$$$$+",
"$$$$$$$$$$$$:$44$$$$$$$$$$$$$$$+",
"$$$$$$$$$$$$$$44$$$:4$$$$$$$$$$+",
"$$$$$$$$$$$$$4444$$$:4$$$$$$$$$+",
"$$$$$$$$$$$$$4444$$$:44$$$$$$$$+",
"$$$$$$$$$:0$04444$$:444$$$$$$$$+",
"$$$$$$$$$:000444$$$:444$$$$$$$$+",
"$$$$$$$$$4444444$$:444:4$:0$$$$+",
"$$$$$$$$:4444qw4:348w134;3$$$$++",
"+$$$$$$$44444ww4444ww44420$$$+oO",
"+++++++>4444wwwwwwwww44470++++++",
"$$$$$$$>0444wwwwwwwww444700$$$$$",
"$$$$$$$9444XXXeeeee.XX444$$$$$$$",
"$$$$$$$4444. 5#eee.6..4444$$$$$$",
"$$$$$$$4444XX-XeewX=X44444$$$$$$",
"$$$$$$$444444XXwwwX.44444$$$$$$$",
"$$$$$$$$44*444wwww444444$$$$$$$$",
"$$$$$$$$***4444444444***$$$$$$$$",
"$$$$$$$$@&&&<4&<<<<,&&&@$$$$$$$$",
"$$$$$$$$$@*********&**@$$$$$$$$$",
"$$$$$$$$$$@@@******&@@$$$$$$$$$$",
"$$$$$$$$$$$@@@@@@@@@@$$$$$$$$$$$",
"$$$$$$$$$$$$$$$+%$$$$$$$$$$$$$$$",
"$$$$$$$$$$$$$$$+%$$$$$$$$$$$$$$$",
"$$$$$$$$$$$$$$++$$$$$$$$$$$$$$$$",
"$$$$$$$$$$$$$+oO+$$$$$$$$$$$$$$$"
};
