/* XPM */
static char *result[] = {
/* columns rows colors chars-per-pixel */
"32 32 33 1 ",
"  c #0C1128",
". c #0C1228",
"X c #0D1228",
"o c #262C2F",
"O c #2F3438",
"+ c #383E42",
"@ c #08287A",
"# c #3A4360",
"$ c #42494F",
"% c #4F585E",
"& c #3B59C5",
"* c #3C58C5",
"= c #3C59C5",
"- c #435EC9",
"; c #4762CC",
": c #4A65CD",
"> c #4B6ACD",
", c #4C6BCD",
"< c #526BD3",
"1 c #506FD0",
"2 c #5A77D3",
"3 c #5C74D9",
"4 c #637BDD",
"5 c #6D83E3",
"6 c #7287E7",
"7 c #788DE7",
"8 c #92A8E9",
"9 c #92A5F3",
"0 c #96A8F3",
"q c #9AACF4",
"w c #B2C1F3",
"e c #C6CEF4",
"r c #DAE0F3",
/* pixels */
"O++++++++$+$+++++++,++++++++++Oo",
"$$$$$$$$$$$$$$$$,6$$$$$$$$$$$$+O",
"$$$$$$$$$$$$$$$$66$$$$$$$$$$$$$+",
"$$$$$$$$$$$$$$$$$6$$$$$$$$$$$$$+",
"$$$$$$$$$$$$$$$$$,$$$$$$$$$$$$$+",
"$$$$$$$$$$$$$$$$$$,$$$$$$$$$$$$+",
"$$$$$$$$$$$$$$$$$$,$$$$$$$$$$$$+",
"$$$$$$$$$$$$$$$$$$66$$$$$$$$$$$+",
"$$$$$$8$$$$$$$,,$,666$$$$$$$$$$+",
"$$$$$$$$$$$$$,66,6666,$$$$$$$$$+",
"$$$$$$$$$$$$$666,6666,$$$$$$$$$+",
"$$$$$$$$$,$68,6666666,6,$$$$$$$+",
"$$$$$$$$,6666,6666666,666$$$$$$+",
"$$$$8$$$,,6666666661,66,66$$$$$+",
"$$$$$$$$,6666696666566664$$$$$++",
"+$$$$$$$,866699966666666$$$w$+oO",
"+++++++>866699999999996,666+++++",
"$$$$$$$2866699999999966666w$$$$$",
"$$$$$$$7666999wwwww0966666$$$$$$",
"$$$$$$$6666. .qwww# ..666:$$$$$$",
"$$$$$$$;666XXrXww9XeXX663=$$$$$$",
"$$$$$$$&6=66XXX999XXX66=&$$$$$$$",
"$$$$$$$$==666XX999XX666=$$$$$$$$",
"$$$$$$$$===6=6=6666-6===$$$$$$$$",
"$$$$$$$$@&&&=6&366<*&&&@$$$$$$$$",
"$$$$$$$$$@============@$$$$$$$$$",
"$$$$$$$$$$@@@=======@@$$$$$$$$$$",
"$$$$$$$$$$$@@@@@@@@@@$$$$$$$$$$$",
"$$$$$$$$$$$$$$$+%$$$$$$$$$$$$$$$",
"$$$$$$$$$$$$$$$+%$$$$$$$$$$$$$$$",
"$$$$$$$$$$$$$$++$$$$$$$$$$$$$$$$",
"$$$$$$$$$$$$$+oO+$$$$$$$$$$$$$$$"
};
