/* XPM */
static char *result[] = {
/* columns rows colors chars-per-pixel */
"32 32 35 1 ",
"  c #0D1228",
". c #262C2F",
"X c #2F3438",
"o c #383E42",
"O c #293053",
"+ c #29325C",
"@ c #08287A",
"# c #42494F",
"$ c #4F585E",
"% c #133289",
"& c #3B59C5",
"* c #3C59C5",
"= c #4B6ACD",
"- c #4C6BCD",
"; c #516BD2",
": c #526BD3",
"> c #506FD0",
", c #6681D7",
"< c #6E83E3",
"1 c #6E84E4",
"2 c #7286E6",
"3 c #7287E7",
"4 c #788CE9",
"5 c #7A8EEA",
"6 c #869BE8",
"7 c #8BA1E8",
"8 c #8EA3E8",
"9 c #92A8E9",
"0 c #91A8EA",
"q c #8DA1F1",
"w c #90A3F2",
"e c #92A5F3",
"r c #94A7F3",
"t c #9AACF4",
"y c #B2C1F3",
/* pixels */
"Xoooooooo#o#ooooooooooooooooooX.",
"############2#################oX",
"###############################o",
"##################-############o",
"##############3################o",
"##############-3###############o",
"################3##############o",
"################33#############o",
"########9#####-333#############o",
"##########-##-3333###3#########o",
"##########-#=33332##-3#########o",
"##########-373333##-33#########o",
"##########-333333#-3333########o",
"#######0#-333333#=-333#3##-####o",
"########-3334q33-1333><39#####oo",
"o#######-933ee33333e33339####o.X",
"ooooooo-9333eeeeeeeee33389o9oooo",
"#######,9333eeeeereee33333######",
"#######6333eeeyyyyyee33333#9####",
"#######3333eeeyyyyt55+3333######",
"#######3333 Oeeyyw33  3333######",
"#######*3333333eew333333*#######",
"########*33333eeee33333*########",
"########**33&333*3333***########",
"########@&&&&33:&;&::&&@########",
"#########@**&****&****@#########",
"##########@@%****&**@@##########",
"###########@@@@@@@@@@###########",
"###############o$###############",
"###############o$###############",
"##############oo################",
"#############o.Xo###############"
};
