/* XPM */
static char *result[] = {
/* columns rows colors chars-per-pixel */
"32 32 33 1 ",
"  c #0C1129",
". c #0C1228",
"X c #0D1228",
"o c #262C2F",
"O c #2F3438",
"+ c #383E42",
"@ c #08287A",
"# c #3A4360",
"$ c #42494F",
"% c #4F585E",
"& c #3B59C5",
"* c #3C59C5",
"= c #314FFE",
"- c #4B6ACD",
"; c #4C6BCD",
": c #516AD2",
"> c #526BD3",
", c #5A73D8",
"< c #5C74D9",
"1 c #758FDE",
"2 c #7690DD",
"3 c #6980E2",
"4 c #6E83E3",
"5 c #7286E6",
"6 c #7287E7",
"7 c #768AE8",
"8 c #A5AABE",
"9 c #959CC1",
"0 c #859AE8",
"q c #92A8E9",
"w c #8DA1F1",
"e c #92A5F3",
"r c #B2C1F3",
/* pixels */
"O++++++++$+$++++;6+;++++++++++Oo",
"$$$$$$$$$$$$$$$$6$$$$$$$$$$$$$+O",
"$$$$$$$$$$$$$$$$$5$$$$$$$$$$$$$+",
"$$$$$$$$$$$$$$$$$$$$$$$$$$$$$$$+",
"$$$$$$$$$$$$$$$$$$$$$$$$$$$$$$$+",
"$$$$$$$$$$$$$$$$;$$$$$$$$$$$$$$+",
"$$$$$$$$$$$$$$$$$;$$$$$$$$$$$$$+",
"$$$$$$$$$$$$$$$$$-6$$$$$$$$$$$$+",
"$$$$$$$$$$$;$$$$;;6$$$$$$$$$$$$+",
"$$$$$$$$$$$;$$$;66666$$$$$$$$$$+",
"$$$$$$$$$$;;$$;;66666$$;$$$$$$$+",
"$$$$$$$$$;;6666;6666666;$$$$$$$+",
"$$$$$$$$$;66666;6666666*$$$$$$$+",
"$$$$$$$$$;6666666666666;2$$$6$$+",
"$$$$$$$$;6666w66e66766641$$$$$++",
"+$$$$$$$qq666eeee6e766e60q$$$+oO",
"++++++++6666eeeeeeeeee666q++++++",
"$$$$$$$66666eeeeeeeeee6666$$$$$$",
"$$$$$$$6666XXXrrrrrXXX6666$$$$$$",
"$$$$$$$3666. 8#rrr.9..66,&$$$$$$",
"$$$$$$$&*66XX=XrreX=X666>*$$$$$$",
"$$$$$$$&*6666XXeeeXX6666&$$$$$$$",
"$$$$$$$$*666666eee666*6*$$$$$$$$",
"$$$$$$$$****66*666666***$$$$$$$$",
"$$$$$$$$@&&&>6&<6>>:&&&@$$$$$$$$",
"$$$$$$$$$@************@$$$$$$$$$",
"$$$$$$$$$$@@@*******@@$$$$$$$$$$",
"$$$$$$$$$$$@@@@@@@@@@$$$$$$$$$$$",
"$$$$$$$$$$$$$$$+%$$$$$$$$$$$$$$$",
"$$$$$$$$$$$$$$$+%$$$$$$$$$$$$$$$",
"$$$$$$$$$$$$$$++$$$$$$$$$$$$$$$$",
"$$$$$$$$$$$$$+oO+$$$$$$$$$$$$$$$"
};
