/* XPM */
static char *result[] = {
/* columns rows colors chars-per-pixel */
"32 32 27 1 ",
"  c #0C1129",
". c #0C1228",
"X c #0D1228",
"o c #262C2F",
"O c #2F3438",
"+ c #383E42",
"@ c #08287A",
"# c #3A4360",
"$ c #42494F",
"% c #4F585E",
"& c #3B59C5",
"* c #3C59C5",
"= c #314FFE",
"- c #4C6BCD",
"; c #4C6ACE",
": c #4E68D1",
"> c #526BD3",
", c #6E83E3",
"< c #7287E7",
"1 c #768BE7",
"2 c #768AE8",
"3 c #A5AABE",
"4 c #959CC1",
"5 c #8BA1E8",
"6 c #92A8E9",
"7 c #92A5F3",
"8 c #B2C1F3",
/* pixels */
"O++++++++$+$++++++++++++++++++Oo",
"$$$$$$$$$$$$$$$$$$$$$$$$$$$$$$+O",
"$$$$$$$$$$$$$$$$$$$$$$$$$$$$$$$+",
"$$$$$$$$$$$$$$$$$$$$$$$$$$$$$$$+",
"$$$$$$$$$$$$$<$$$$$$$$$$$$$$$$$+",
"$$$$$$$$$$$$$<$$$$$$$$$$$$$$$$$+",
"$$$$$$$$$$$$-<$$$$$$$$$$$$$$$$$+",
"$$$$$$$$$$$$;<$$$$$$$$$$$$$$$$$+",
"$$$$$$$$$$$$-<<$$$-$$$$$$$$$$$$+",
"$$$$$$$$$$$$$<<<$$$,$$$$$$$$$$$+",
"$$$$$$$$$$$$$<<<$$$,$$$$$$$$$$$+",
"$$$$$$$$$-$$6<<<$$-<<$$$$$$$$$$+",
"$$$$$$$$$-$66<<<$$-<<$$$$$$$$$$+",
"$$$$$$$$-6$<<7<<$-<<<$-6$$$$$$$+",
"$$$$$$$$-<1<<7<<,<<2<-,$$$$$$$++",
"+$$$$$$$$<<<<7<<<<77<<<$$$$$$+oO",
"++++++++-<<<777777777<<6++++++++",
"$$$$$$$$6<<<777777777<<<$$$$$$$$",
"$$$$$$$5<<<XXX88888XXX<<<$$$$$$$",
"$$$$$$$<<<<. 3#888.4..<<<$$$$$$$",
"$$$$$$$<<<<XX=X887X=X<<<<$$$$$$$",
"$$$$$$$<<<<<<XX777XX<<<<<$$$$$$$",
"$$$$$$$$<*<<<<7777<<<<<<$$$$$$$$",
"$$$$$$$$***<<<<<<<*<<***$$$$$$$$",
"$$$$$$$$@&&&><&<>>&:&&&@$$$$$$$$",
"$$$$$$$$$@************@$$$$$$$$$",
"$$$$$$$$$$@@@*******@@$$$$$$$$$$",
"$$$$$$$$$$$@@@@@@@@@@$$$$$$$$$$$",
"$$$$$$$$$$$$$$$+%$$$$$$$$$$$$$$$",
"$$$$$$$$$$$$$$$+%$$$$$$$$$$$$$$$",
"$$$$$$$$$$$$$$++$$$$$$$$$$$$$$$$",
"$$$$$$$$$$$$$+oO+$$$$$$$$$$$$$$$"
};
