/* XPM */
static char *_7f1a028b7e04ed9f00a6acd47f27547xe13cZ3CDJwHKPkR[] = {
/* columns rows colors chars-per-pixel */
"32 32 58 1 ",
"  c #172634",
". c #162735",
"X c #162937",
"o c #162B38",
"O c #162D3A",
"+ c #162C3B",
"@ c #152F3E",
"# c #17313B",
"$ c #17343D",
"% c #153140",
"& c #153141",
"* c #173740",
"= c #153345",
"- c #143546",
"; c #153546",
": c #163C46",
"> c #143A4C",
", c #143B53",
"< c #133F56",
"1 c #184247",
"2 c #1A454B",
"3 c #154351",
"4 c #154153",
"5 c #134056",
"6 c #134158",
"7 c #11475F",
"8 c #14495C",
"9 c #164F5C",
"0 c #16515F",
"q c #124660",
"w c #114860",
"e c #104A62",
"r c #104F6C",
"t c #1A5A66",
"y c #1A5C68",
"u c #1A5E6B",
"i c #0F597E",
"p c #0D5D7F",
"a c #115775",
"s c #105578",
"d c #1C676C",
"f c #1B6A70",
"g c #13617F",
"h c #1C727B",
"j c #2F787B",
"k c #0D5F82",
"l c #0D6388",
"z c #0B6588",
"x c #0A719A",
"c c #097AA8",
"v c #087EAC",
"b c #0780AF",
"n c #0984AE",
"m c #0684B2",
"M c #30ADB4",
"N c #0395C8",
"B c #13B3D2",
"V c #0AB3E0",
/* pixels */
"OeooOo%O++&+5o OOOXX;@eOX +<o+X<",
" oo o6O2j:6&++X-O<O###X X@X oXo+",
"o@OooOeO2-@#.o-ouo#rkrOo-%- ..=o",
"OX6OXXO oo Ooo..o@rmNb6o#o X.+#o",
"o uO;>@Xo @@e  &+6xkNb>+X@ ..o-+",
"oXXo>g4#@  o  eoo#eBBzr o. ..oX-",
" o@ @4a>Xo X< Oo #kVzcrO &XXo<..",
"5O%OOu>;ooO  XO&@@rvbr#X@ eoo+eX",
"X#OooOoooq  oe=q>+#<6#o  o 6@#o+",
"Xo6o O o  < o-ss- o+oX<o->OoX-# ",
"ooo#OOOO-   O>q-o. @ o.o>i6+ o-@",
" o*h*O;%O-% o+&oo#+wo=oo#<i>+oeo",
"o@9Mh:; o% oooo@.o< t...o+>-e@o ",
"6o@9*oO@oe o <--oooo..X,.o+oo o.",
"O ooOoo @X oo #+e#>=.....<+o.-++",
"Oo->@eoo<XOo=O o#5i4oXoXoX-#oooo",
"oo>z6#oXX %@@oo@>p7fOXO;#XXo5X.o",
" wo<i>+  5XX @oo-4hMe,# ooXooX#o",
"o@ X>-o<X ooo o.OXoeo+too-Xo <--",
"O=o o X X@>-e++ XX#*-oooo%Xoooo&",
"   e oo #<i>+oeoO6@oo . +-& o%#o",
"Xo@  @o+>z<oX+-+yX&.XX o-oooo6k-",
"o<    tX->@oo%& X o  <.o  < o-e&",
"@@o - X @oo<#O@  #  X .+oeoooeoo",
" oX   o>q-e o@eo . ooO# o+& oo o",
"X<XX+  -sa-o <  ..+ o6X   oo<o+o",
"o o XX @=e>OoOo-o+@o#oO   .o. e+",
"oo-owOOX@#oX @=O@-6*d X   .+eX %",
" X - 5o %+oXoo#oX-:dM1OO o &XXX ",
"5OXoXooo--6 XX-o@oX@1OOO2-@@ X-X",
" X oOoOe+# Xo XO oXOOXX2j:6&@oX-",
"OooOXoOOo@o<X@OOoXeO@OXO#@#o<Xo+"
};
